<svg xmlns="http://www.w3.org/2000/svg" viewBox="0 0 304.08 65.28"><title>Asset 2</title><path d="M0,10.08V0H9.36A45.89,45.89,0,0,0,10,4.73c1.76.47,3.5.91,5.22,1.41s3.5,1.1,5.27,1.59,3.19,1.32,4.94,1.5a21,21,0,0,0-2.7-2.06A107.13,107.13,0,0,0,11,.76C10.57.57,10,.53,9.84,0H46.32c0,.66-.63.62-1,.79A100,100,0,0,0,30.08,9.58C35.59,7.91,40.91,6,46.39,4.77c.42-1.69.33-3.26.65-4.77h257V51.6l-.24.23c-.37-.35-.84-.18-1.26-.18-1.94,0-3.89,0-5.85,0v-6.1h6.43a4.2,4.2,0,0,0-.16-1.82h-6.27v-5.4h6.81a4.92,4.92,0,0,0,0-1.76h-9v17c1.71,0,3.35,0,5,0a34.3,34.3,0,0,0,4.3-.09l.24.09V65.28H28.56c.07-.16.22-.2.38-.24,3.16-.8,6.31-1.6,9.46-2.42A3.93,3.93,0,0,0,40.11,62V57.83c.68.22,1.35.46,2,.64a30.94,30.94,0,0,0,4.18,1.27,56.73,56.73,0,0,0,5.75-2.27c1.58-.62,3.15-1.3,4.71-1.95,0-.33,0-.57,0-.8V28.27c0-.22.11-.48-.19-.61l-3.28-.9a21.09,21.09,0,0,1,.39-3c.84-.43,1.82-.52,2.59-1v-12a.49.49,0,0,0-.22-.58c-9.09.25-18.25.6-27.38,2.52v7.83l-.66.16-.47-.2V12.78a4.14,4.14,0,0,0-.65-.22c-2.52-.4-5-.86-7.56-1.17-5.26-.66-10.55-.93-15.85-1.07C2.36,10.29,1.18,10.16,0,10.08ZM177.18,29.94h4.52V17.67c.87,4.06,1.19,8.21,1.9,12.29h3.14l1.48-11.62h.24V29.92H193V10.14H186.4c-.39,2.88-.79,5.77-1.18,8.66h-.13c-.43-2.89-.87-5.79-1.31-8.66h-6.6ZM94.24,30V10.16H90v8.19l-.15,0-2.65-8.22H82.91V30H87.1V21.55l.19,0q1.26,4.24,2.52,8.46ZM303.33,10.16H299v8.2l-.15,0-2.7-8.32c-1.5,0-2.88-.07-4.24.08V29.92h4.28V21.59h.12c.84,2.8,1.67,5.6,2.48,8.35h4.5Zm-165.45-.09V30H143V21c1.22.08,1.41.22,1.46,1.2s0,2.16,0,3.24c0,1.5,0,3,0,4.56h4.79c0-2.36,0-4.67,0-7,0-1.93-.54-2.67-2.43-3.44a3.38,3.38,0,0,1,.58-.25,2.13,2.13,0,0,0,1.7-1.92,9.77,9.77,0,0,0-.16-4.5,3.39,3.39,0,0,0-3-2.56A75.08,75.08,0,0,0,137.88,10.07Zm87.24,19.85h4.8c0-2.27,0-4.47,0-6.66,0-1.79-.49-3.16-2.49-3.72a3.91,3.91,0,0,1,.59-.25,2.16,2.16,0,0,0,1.76-2,9.77,9.77,0,0,0-.2-4.5,3.45,3.45,0,0,0-3-2.51,65.91,65.91,0,0,0-7.3-.2c-.27,0-.57-.1-.77.16V29.92h5.21v-9c1.23.2,1.35.31,1.42,1.32,0,.36,0,.72,0,1.08Zm-55.34,0c-1-6.7-2-13.27-3-19.82h-7.33c-.88,6.62-1.76,13.2-2.65,19.83H162c.46-1.15.08-2.4.5-3.54a6.35,6.35,0,0,1,1.85.07A15.68,15.68,0,0,0,164.7,30ZM274.19,10.13c-.88,6.62-1.76,13.2-2.64,19.8h5.15c.44-1.17.07-2.38.5-3.5a7,7,0,0,1,1.83.06,17.34,17.34,0,0,0,.38,3.44h5.09l-3-19.8Zm-15,11.76v3a6.78,6.78,0,0,1-.15,1.42c-.09.44-.25.76-.74.79s-.79-.33-.9-.79a5,5,0,0,1-.08-.95q0-5.34,0-10.68a4.23,4.23,0,0,1,0-.71c.16-1,.49-1.12,1.58-.76.53,1.74.08,3.59.31,5.44h5c0-1.39.07-2.7,0-4a4.61,4.61,0,0,0-2.56-4.3,7.62,7.62,0,0,0-6.81,0,4.37,4.37,0,0,0-2.58,3.9c-.15,3.72-.16,7.44,0,11.15.11,2.58,1.27,4.08,3.46,4.75a8,8,0,0,0,3.56.29c2.13-.33,3.91-1.27,4.61-3.46a15,15,0,0,0,.34-5.09Zm-132.93,4V21.58h3.14c-.08-1.35.08-2.57-.11-3.86h-3V14.14h3.27v-4h-8.47V29.93h8.75v-4ZM210,17.74h-3.11V14.17h3.3v-4h-8.5V30h8.79V25.89h-3.64c0-1.48-.09-2.86.08-4.32H210c0-.24,0-.39,0-.55ZM105.19,14.16V29.94h5.18V14.14h2.9v-4h-11v4Zm21.1,39.18a3.25,3.25,0,0,0,2,.06c.09-4.6,0-9.22-.06-13.84,2.56,4.83,5.63,9.29,8.36,13.89h2.2v-17a10.29,10.29,0,0,0-2,.12c.09,4.6-.17,9.14.16,13.71-2.46-4.79-5.54-9.19-8.3-13.76h-2.36Zm92.9.15v-17a9.62,9.62,0,0,0-2,.13c.12,4.59-.17,9.14.17,13.71-1.24-2.37-2.59-4.65-4-6.9s-2.88-4.59-4.3-6.87h-2.35v17a10.28,10.28,0,0,0,2-.07c.12-4.64,0-9.26-.05-13.88,2.56,4.83,5.63,9.29,8.39,13.93Zm-150-43.38V29.93h5.06V10.11Zm169.45,0V29.93h5.05V10.11ZM110.24,36.52v17a7.38,7.38,0,0,0,2.14-.12v-7.7h8.14v7.78h2.09V36.53h-2.13v7.09H112.3v-7.1ZM172,48.27l1.81,5.16h2.34c-1.94-5.71-3.84-11.32-5.73-16.91h-2.68l-5.74,17a18.53,18.53,0,0,0,2.3-.08l1.76-5.18ZM276.21,36.51v1.28c0,2.76,0,5.52,0,8.28a13.84,13.84,0,0,1-.24,2.5,3.72,3.72,0,0,1-3.87,3.36,3.66,3.66,0,0,1-3.8-3.27,10.14,10.14,0,0,1-.23-2.26q0-4.5,0-9c0-.3.12-.64-.2-.91a5.89,5.89,0,0,0-2,.12c0,3.77-.13,7.49,0,11.2.15,3.24,1.69,5.28,4.64,5.85a7.22,7.22,0,0,0,2.27.07,5.57,5.57,0,0,0,5-4,8.41,8.41,0,0,0,.48-2.58c0-3.48,0-7,0-10.44,0-.06-.08-.13-.14-.23Zm-192.86,0V53.45h9.41a4.22,4.22,0,0,0-.13-1.82H85.5v-6h6.42a4.31,4.31,0,0,0-.07-1.82H85.51V38.32h6.83v-1.8Zm148.25.61c-1.55-1.13-5.27-1.27-7.22.06a4.31,4.31,0,0,0-.53,6.81,8.3,8.3,0,0,0,2.79,1.58A9.32,9.32,0,0,1,229,46.77a2.73,2.73,0,0,1,1,3.2,2.82,2.82,0,0,1-2.53,1.89,7.84,7.84,0,0,1-4.83-1c-.07.72-.49,1.24-.38,2a8.9,8.9,0,0,0,7.07.49,4.67,4.67,0,0,0,2.81-6.05,5.19,5.19,0,0,0-2.81-2.81c-1-.51-2.15-.84-3.14-1.45a2.62,2.62,0,0,1-1.42-2.89,2.71,2.71,0,0,1,2.58-2,7.15,7.15,0,0,1,3.72.68A6.1,6.1,0,0,0,231.6,37.13ZM106.9,51.32c-3.35.84-6.61,1.23-8.8-1.92A7.45,7.45,0,0,1,97.91,41c2.09-3.53,5.49-3.22,8.93-2.35a4.8,4.8,0,0,0,.45-1.61,3.69,3.69,0,0,0-2.05-.68c-4.07-.62-7.77.75-9.56,4.11A10.08,10.08,0,0,0,95,48.37a7.11,7.11,0,0,0,4.92,5,10.86,10.86,0,0,0,5,.3,4.87,4.87,0,0,0,2.33-.69,1.85,1.85,0,0,0,0-.41C107.15,52.15,107,51.78,106.9,51.32Zm53.37,0c-3.49.85-6.84,1.27-9-2.07a7.45,7.45,0,0,1,.08-8.49c2.16-3.25,5.43-3,8.76-2.09.18-.57.54-1.06.4-1.68a4.49,4.49,0,0,0-2.07-.63c-4.41-.61-8.26,1-9.87,4.95a10.44,10.44,0,0,0-.32,6.91c1.67,6,8.64,6.45,12.29,4.69C160.63,52.38,160.26,51.94,160.27,51.31Zm78.34-12.93V53.51a8.46,8.46,0,0,0,2.19-.11V38.32h5.12a6.62,6.62,0,0,0,0-1.78H233.5a4.4,4.4,0,0,0,.11,1.84Zm18.24,0V53.54A10.75,10.75,0,0,0,259,53.4V38.32h5.12a6.62,6.62,0,0,0,0-1.78H251.69c.09.63-.13,1.21.18,1.83Zm30.71,0h5.14a4.55,4.55,0,0,0,0-1.81H280.29a5.62,5.62,0,0,0,.09,1.82h5V53.47h2.2Zm-213.35,0V53.51a8.46,8.46,0,0,0,2.19-.11V38.32h5.11a6.64,6.64,0,0,0,0-1.78H69.05c.09.63-.13,1.21.18,1.83ZM187.9,53.49a6.89,6.89,0,0,0-.07-1.87h-7.11V36.51a10.16,10.16,0,0,0-2.08,0c-.18,2.06-.12,16,.07,17ZM51.32,8.7a30.26,30.26,0,0,0,.87-3.56c-3,.07-20.54,4.83-22.1,6A148.81,148.81,0,0,1,51.32,8.7ZM26.39,11.18c-.28-.26-.35-.37-.44-.41-.85-.34-1.72-.6-2.59-.88C17.34,8,11.23,6.52,5.08,5.15a.72.72,0,0,0-.89.26c.52,1,.29,2.23.92,3.31A139.12,139.12,0,0,1,26.39,11.18ZM142.87,36.52v17a8.38,8.38,0,0,0,2-.06V36.52Zm57.84,0V53.44h2V36.52Zm47.06,0V53.47h2V36.53Z" style="fill:#fefdfd"/><path d="M40.11,57.83V62a3.93,3.93,0,0,1-1.71.61c-3.15.82-6.3,1.62-9.46,2.42-.16,0-.31.08-.38.24h-.72a.34.34,0,0,0,0-.22c.46-.27.27-.72.27-1.08q0-21.63,0-43.26l.66-.16,1.47-.49,26.13-9.28v12c-.77.48-1.75.57-2.59,1l-13.68,4.5v1.35q0,11.4,0,22.8C40.08,54.24,40.1,56,40.11,57.83Z" style="fill:#f3a01f"/><path d="M28.08,20.72q0,21.63,0,43.26c0,.36.19.81-.27,1.08-2.5-.48-4.94-1.22-7.41-1.84a33,33,0,0,1-4.09-1.13v-3.5c0-.24,0-.47,0-.71V29.11c0-.24,0-.48,0-.71a5.47,5.47,0,0,0-1.69-.65l-12-4A7,7,0,0,0,0,23V10.8a2.56,2.56,0,0,1,.46.11l14.91,5.3c4.08,1.45,8.16,2.87,12.24,4.31Z" style="fill:#f28c21"/><path d="M0,29v-.72H.27A49.54,49.54,0,0,0,5,30c1.83.65,3.67,1.24,5.57,1.88V60.44a10.57,10.57,0,0,1-2.44-.92C5.48,58.41,2.79,57.44.23,56.19q0-13.14,0-26.29C.23,29.6.36,29.25,0,29Z" style="fill:#f28c21"/><path d="M27.61,20.52c-4.08-1.44-8.16-2.86-12.24-4.31L.46,10.91A2.56,2.56,0,0,0,0,10.8v-.72c1.18.08,2.36.21,3.55.24,5.3.14,10.59.41,15.85,1.07,2.53.31,5,.77,7.56,1.17a4.14,4.14,0,0,1,.65.22Z" style="fill:#1d1c4f"/><path d="M.23,56.19c2.56,1.25,5.25,2.22,7.87,3.33a10.57,10.57,0,0,0,2.44.92c2-.47,3.83-1.26,5.76-1.85v3.5a33,33,0,0,0,4.09,1.13c2.47.62,4.91,1.36,7.41,1.84a.34.34,0,0,1,0,.22H0V56.16l.11,0Z" style="fill:#fefdfd"/><path d="M47,0c-.32,1.51-.23,3.08-.65,4.77C40.91,6,35.59,7.91,30.08,9.58A100,100,0,0,1,45.32.79c.37-.17,1-.13,1-.79Z" style="fill:#292c5b"/><path d="M9.84,0c.19.53.73.57,1.13.76A107.13,107.13,0,0,1,22.74,7.17a21,21,0,0,1,2.7,2.06c-1.75-.18-3.29-1-4.94-1.5S17,6.64,15.23,6.14,11.77,5.2,10,4.73A45.89,45.89,0,0,1,9.36,0Z" style="fill:#292c5b"/><path d="M.27,28.33H0V23a7,7,0,0,1,2.62.74l.6,3.7Z" style="fill:#fefdfd"/><path d="M.23,56.19H.11l-.11,0V29c.36.21.23.56.23.86Q.25,43,.23,56.19Z" style="fill:#f3a01f"/><path d="M304.08,53.52l-.24-.09v-1.6l.24-.23Z" style="fill:#f3a01f"/><path d="M56.64,27.66c.3.13.19.39.19.61V54.72c0,.23,0,.47,0,.8-1.56.65-3.13,1.33-4.71,1.95a56.73,56.73,0,0,1-5.75,2.27V31.22l1.42-.5Z" style="fill:#f3a01f"/><path d="M177.18,29.94V10.13h6.6c.44,2.87.88,5.77,1.31,8.66h.13c.39-2.89.79-5.78,1.18-8.66H193V29.92h-4.52V18.35h-.24L186.74,30H183.6c-.71-4.08-1-8.23-1.9-12.29V29.94Z" style="fill:#1d1c4f"/><path d="M56.64,27.66l-8.9,3.06-1.42.5V59.74a30.94,30.94,0,0,1-4.18-1.27c-.68-.18-1.35-.42-2-.64,0-1.79,0-3.59,0-5.39q0-11.4,0-22.8V28.29l13.68-4.5a21.09,21.09,0,0,0-.39,3Z" style="fill:#1d1c4f"/><path d="M94.24,30H89.81q-1.26-4.21-2.52-8.46l-.19,0V30H82.91V10.16h4.28l2.65,8.22.15,0V10.16h4.25Z" style="fill:#1d1c4f"/><path d="M303.33,10.16V29.93h-4.5c-.81-2.75-1.64-5.55-2.48-8.35h-.12v8.33H292V10.15c1.36-.15,2.74,0,4.24-.08l2.7,8.32.15,0v-8.2Z" style="fill:#1d1c4f"/><path d="M137.88,10.07a75.08,75.08,0,0,1,8.11.23,3.39,3.39,0,0,1,3,2.56,9.77,9.77,0,0,1,.16,4.5,2.13,2.13,0,0,1-1.7,1.92,3.38,3.38,0,0,0-.58.25c1.89.77,2.41,1.51,2.43,3.44,0,2.31,0,4.62,0,7h-4.79c0-1.55,0-3.06,0-4.56,0-1.08,0-2.16,0-3.24S144.22,21,143,21v9h-5.12Zm5.17,7.62c1.17-.06,1.37-.22,1.42-1.16,0-.6,0-1.19,0-1.79,0-1-.29-1.2-1.43-1.18Z" style="fill:#1d1c4f"/><path d="M225.12,29.92V23.3c0-.36,0-.72,0-1.08-.07-1-.19-1.12-1.42-1.32v9h-5.21V10.24c.2-.26.5-.16.77-.16a65.91,65.91,0,0,1,7.3.2,3.45,3.45,0,0,1,3,2.51,9.77,9.77,0,0,1,.2,4.5,2.16,2.16,0,0,1-1.76,2,3.91,3.91,0,0,0-.59.25c2,.56,2.53,1.93,2.49,3.72-.05,2.19,0,4.39,0,6.66Zm-1.41-16.43v4.24c1.23-.14,1.37-.27,1.41-1.36,0-.51,0-1,0-1.55C225.08,13.77,224.92,13.63,223.71,13.49Z" style="fill:#1d1c4f"/><path d="M169.78,30H164.7a15.68,15.68,0,0,1-.38-3.46,6.35,6.35,0,0,0-1.85-.07c-.42,1.14,0,2.39-.5,3.54h-5.15c.89-6.63,1.77-13.21,2.65-19.83h7.33C167.79,16.69,168.78,23.26,169.78,30Zm-7.54-7.22h1.95c-.28-2.64-.55-5.22-.82-7.81h-.11Z" style="fill:#1d1c4f"/><path d="M274.19,10.13h7.33l3,19.8h-5.09a17.34,17.34,0,0,1-.38-3.44,7,7,0,0,0-1.83-.06c-.43,1.12-.06,2.33-.5,3.5h-5.15C272.43,23.33,273.31,16.75,274.19,10.13Zm4.71,12.61c-.27-2.64-.54-5.23-.81-7.82-.47,2.58-.82,5.16-1.09,7.82Z" style="fill:#1d1c4f"/><path d="M259.17,21.89h5.06a15,15,0,0,1-.34,5.09c-.7,2.19-2.48,3.13-4.61,3.46a8,8,0,0,1-3.56-.29c-2.19-.67-3.35-2.17-3.46-4.75-.16-3.71-.15-7.43,0-11.15a4.37,4.37,0,0,1,2.58-3.9,7.62,7.62,0,0,1,6.81,0,4.61,4.61,0,0,1,2.56,4.3c.08,1.31,0,2.62,0,4h-5c-.23-1.85.22-3.7-.31-5.44-1.09-.36-1.42-.19-1.58.76a4.23,4.23,0,0,0,0,.71q0,5.34,0,10.68a5,5,0,0,0,.08.95c.11.46.34.82.9.79s.65-.35.74-.79a6.78,6.78,0,0,0,.15-1.42Z" style="fill:#1d1c4f"/><path d="M126.24,25.91h3.58v4h-8.75V10.16h8.47v4h-3.27v3.58h3c.19,1.29,0,2.51.11,3.86h-3.14Z" style="fill:#1d1c4f"/><path d="M210,17.74V21c0,.16,0,.31,0,.55h-3.05c-.17,1.46,0,2.84-.08,4.32h3.64V30h-8.79V10.14h8.5v4h-3.3v3.57Z" style="fill:#1d1c4f"/><path d="M56.34,10.79,30.21,20.07l-1.47.49V12.73c9.13-1.92,18.29-2.27,27.38-2.52A.49.49,0,0,1,56.34,10.79Z" style="fill:#1d1c4f"/><path d="M105.19,14.16h-3v-4h11v4h-2.9v15.8h-5.18Z" style="fill:#1d1c4f"/><path d="M126.29,53.34V36.53h2.36c2.76,4.57,5.84,9,8.3,13.76-.33-4.57-.07-9.11-.16-13.71a10.29,10.29,0,0,1,2-.12v17h-2.2c-2.73-4.6-5.8-9.06-8.36-13.89.05,4.62.15,9.24.06,13.84A3.25,3.25,0,0,1,126.29,53.34Z" style="fill:#f38e22"/><path d="M219.19,53.49H217c-2.76-4.64-5.83-9.1-8.39-13.93,0,4.62.17,9.24.05,13.88a10.28,10.28,0,0,1-2,.07v-17H209c1.42,2.28,2.85,4.58,4.3,6.87s2.77,4.53,4,6.9c-.34-4.57,0-9.12-.17-13.71a9.62,9.62,0,0,1,2-.13Z" style="fill:#f38e22"/><path d="M69.22,10.11h5.06V29.93H69.22Z" style="fill:#1d1c4f"/><path d="M238.67,10.11h5.05V29.93h-5.05Z" style="fill:#1d1c4f"/><path d="M110.24,36.52h2.06v7.1h8.18V36.53h2.13V53.47h-2.09V45.69h-8.14v7.7a7.38,7.38,0,0,1-2.14.12Z" style="fill:#f28c21"/><path d="M172,48.27h-5.94l-1.76,5.18a18.53,18.53,0,0,1-2.3.08l5.74-17h2.68c1.89,5.59,3.79,11.2,5.73,16.91H173.8Zm-3-9.49c-.73,2.6-1.7,5.1-2.47,7.72h5C170.73,43.85,169.71,41.38,169,38.78Z" style="fill:#f38e22"/><path d="M276.21,36.51h2c.06.1.14.17.14.23,0,3.48,0,7,0,10.44a8.41,8.41,0,0,1-.48,2.58,5.57,5.57,0,0,1-5,4,7.22,7.22,0,0,1-2.27-.07c-3-.57-4.49-2.61-4.64-5.85-.17-3.71,0-7.43,0-11.2a5.89,5.89,0,0,1,2-.12c.32.27.19.61.2.91q0,4.5,0,9a10.14,10.14,0,0,0,.23,2.26,3.66,3.66,0,0,0,3.8,3.27A3.72,3.72,0,0,0,276,48.57a13.84,13.84,0,0,0,.24-2.5c0-2.76,0-5.52,0-8.28Z" style="fill:#f38e22"/><path d="M83.35,36.52h9v1.8H85.51v5.45h6.34a4.31,4.31,0,0,1,.07,1.82H85.5v6h7.13a4.22,4.22,0,0,1,.13,1.82H83.35Z" style="fill:#f38e22"/><path d="M303.84,51.83v1.6a34.3,34.3,0,0,1-4.3.09c-1.63,0-3.27,0-5,0v-17h9a4.92,4.92,0,0,1,0,1.76h-6.81v5.4H303a4.2,4.2,0,0,1,.16,1.82h-6.43v6.1c2,0,3.91,0,5.85,0C303,51.65,303.47,51.48,303.84,51.83Z" style="fill:#f38e22"/><path d="M231.6,37.13a6.1,6.1,0,0,1-.6,1.67,7.15,7.15,0,0,0-3.72-.68,2.71,2.71,0,0,0-2.58,2A2.62,2.62,0,0,0,226.12,43c1,.61,2.11.94,3.14,1.45a5.19,5.19,0,0,1,2.81,2.81,4.67,4.67,0,0,1-2.81,6.05,8.9,8.9,0,0,1-7.07-.49c-.11-.71.31-1.23.38-2a7.84,7.84,0,0,0,4.83,1A2.82,2.82,0,0,0,229.93,50a2.73,2.73,0,0,0-1-3.2,9.32,9.32,0,0,0-2.33-1.19A8.3,8.3,0,0,1,223.85,44a4.31,4.31,0,0,1,.53-6.81C226.33,35.86,230.05,36,231.6,37.13Z" style="fill:#f38e22"/><path d="M106.9,51.32c.13.46.25.83.35,1.21a1.85,1.85,0,0,1,0,.41,4.87,4.87,0,0,1-2.33.69,10.86,10.86,0,0,1-5-.3,7.11,7.11,0,0,1-4.92-5,10.08,10.08,0,0,1,.65-7.89c1.79-3.36,5.49-4.73,9.56-4.11a3.69,3.69,0,0,1,2.05.68,4.8,4.8,0,0,1-.45,1.61c-3.44-.87-6.84-1.18-8.93,2.35a7.45,7.45,0,0,0,.19,8.39C100.29,52.55,103.55,52.16,106.9,51.32Z" style="fill:#f38e22"/><path d="M160.27,51.31c0,.63.36,1.07.27,1.59-3.65,1.76-10.62,1.31-12.29-4.69a10.44,10.44,0,0,1,.32-6.91c1.61-3.92,5.46-5.56,9.87-4.95a4.49,4.49,0,0,1,2.07.63c.14.62-.22,1.11-.4,1.68-3.33-.86-6.6-1.16-8.76,2.09a7.45,7.45,0,0,0-.08,8.49C153.43,52.58,156.78,52.16,160.27,51.31Z" style="fill:#f38e22"/><path d="M238.61,38.38h-5a4.4,4.4,0,0,1-.11-1.84h12.42a6.62,6.62,0,0,1,0,1.78H240.8V53.4a8.46,8.46,0,0,1-2.19.11Z" style="fill:#f38e22"/><path d="M256.85,38.37h-5c-.31-.62-.09-1.2-.18-1.83h12.47a6.62,6.62,0,0,1,0,1.78H259V53.4a10.75,10.75,0,0,1-2.19.14Z" style="fill:#f38e22"/><path d="M287.56,38.37v15.1h-2.2V38.38h-5a5.62,5.62,0,0,1-.09-1.82h12.39a4.55,4.55,0,0,1,0,1.81Z" style="fill:#f38e22"/><path d="M74.21,38.37h-5c-.31-.62-.09-1.2-.18-1.83H81.52a6.64,6.64,0,0,1,0,1.78H76.4V53.4a8.46,8.46,0,0,1-2.19.11Z" style="fill:#f38e22"/><path d="M187.9,53.49h-9.19c-.19-.94-.25-14.89-.07-17a10.16,10.16,0,0,1,2.08,0V51.62h7.11A6.89,6.89,0,0,1,187.9,53.49Z" style="fill:#f38e22"/><path d="M51.32,8.7a148.81,148.81,0,0,0-21.23,2.45c1.56-1.18,19.11-5.94,22.1-6A30.26,30.26,0,0,1,51.32,8.7Z" style="fill:#292c5b"/><path d="M26.39,11.18A139.12,139.12,0,0,0,5.11,8.72c-.63-1.08-.4-2.34-.92-3.31a.72.72,0,0,1,.89-.26C11.23,6.52,17.34,8,23.36,9.89c.87.28,1.74.54,2.59.88C26,10.81,26.11,10.92,26.39,11.18Z" style="fill:#292c5b"/><path d="M142.87,36.52h2V53.44a8.38,8.38,0,0,1-2,.06Z" style="fill:#f28c21"/><path d="M200.71,36.52h2V53.44h-2Z" style="fill:#f28c21"/><path d="M247.77,36.53h2V53.47h-2Z" style="fill:#f28c21"/><path d="M.27,28.33l3-.85-.6-3.7,12,4a5.47,5.47,0,0,1,1.69.65c0,.23,0,.47,0,.71V57.88c0,.24,0,.47,0,.71-1.93.59-3.8,1.38-5.76,1.85V31.88C8.64,31.24,6.8,30.65,5,30A49.54,49.54,0,0,1,.27,28.33Z" style="fill:#1d1c4f"/><path d="M143.05,17.69V13.56c1.14,0,1.38.17,1.43,1.18,0,.6,0,1.19,0,1.79C144.42,17.47,144.22,17.63,143.05,17.69Z" style="fill:#fefdfd"/><path d="M223.71,13.49c1.21.14,1.37.28,1.41,1.33,0,.52,0,1,0,1.55,0,1.09-.18,1.22-1.41,1.36Z" style="fill:#fefdfd"/><path d="M162.24,22.74l1-7.81h.11c.27,2.59.54,5.17.82,7.81Z" style="fill:#fefdfd"/><path d="M278.9,22.74H277c.27-2.66.62-5.24,1.09-7.82C278.36,17.51,278.63,20.1,278.9,22.74Z" style="fill:#fefdfd"/><path d="M169,38.78c.7,2.6,1.72,5.07,2.48,7.72h-5C167.31,43.88,168.28,41.38,169,38.78Z" style="fill:#fefdfd"/></svg>