<svg xmlns="http://www.w3.org/2000/svg" viewBox="0 0 283 67"><title>iti-logo</title><path d="M67.32,31.82c0,20.17-14.58,35.07-33,34.94a32.79,32.79,0,0,1,.53-65.58,31.62,31.62,0,0,1,22.91,9.66C64.13,17.23,67.22,25,67.32,31.82ZM35.81,2.26A30.94,30.94,0,0,0,12.75,11a30.74,30.74,0,0,0-9.87,22.6A30.72,30.72,0,0,0,11.72,56a30.71,30.71,0,0,0,22,9.76,30.63,30.63,0,0,0,22.72-8.79,30.64,30.64,0,0,0,9.81-22.18A31.64,31.64,0,0,0,35.81,2.26Z" transform="translate(-0.47 -0.96)"/><path d="M138.45,26.82l.62-.07c.66,0,1.33-.07,2-.13a1.71,1.71,0,0,0,.59-.15.38.38,0,0,0,.22-.51c-.53-1.37-1.07-2.73-1.6-4.1h-4.85c-.32.93-.66,1.85-.95,2.79a1.39,1.39,0,0,0,1.13,1.91c.38.1.77.12,1.15.19a2.93,2.93,0,0,1,.37.1c-.09.3-.31.22-.47.22H131a5.49,5.49,0,0,1-.59-.08c.19-.13.27-.23.35-.23a3.48,3.48,0,0,0,3.19-2.35c.68-1.65,1.38-3.3,2-5,.92-2.28,1.82-4.56,2.72-6.85.05-.12.12-.24.17-.37s.19-.29.36-.23a.62.62,0,0,1,.35.26c.2.44.37.89.55,1.34q2.34,5.69,4.69,11.39c.17.42.39.83.6,1.23a.74.74,0,0,0,.6.41,12.08,12.08,0,0,0,3.7,0c.44-.07.46-.1.54-.56a4,4,0,0,0,.07-.68q0-3,0-5.94a7.79,7.79,0,0,0-.09-1,.55.55,0,0,0-.52-.54l-1-.11-.74,0c.19-.16.26-.26.34-.27l2.6-.27c.57-.06,1.13-.1,1.76-.15v2.65a12.32,12.32,0,0,1,.51-1.27,2.05,2.05,0,0,1,1.87-1.21,11.36,11.36,0,0,1,1.84.11A2.6,2.6,0,0,1,159,19.69c.12-.32.2-.58.31-.83a2.49,2.49,0,0,1,2.34-1.63,3.88,3.88,0,0,1,2.61.66,2.4,2.4,0,0,1,1.05,2v5.73c0,1,.08.94.93,1.08a3,3,0,0,1,.87.23,1,1,0,0,1-.31.15h-5.17c-.19,0-.42.09-.61-.2a2.82,2.82,0,0,1,.43-.12c1.41-.07,1.45-.21,1.45-1.55s0-2.76,0-4.14c0-.67-.07-1.33-.11-2a2.59,2.59,0,0,0-.09-.4,1.33,1.33,0,0,0-2.29-.73,2.39,2.39,0,0,0-.79,1.11,7.33,7.33,0,0,0-.56,2.89c0,1.22,0,2.44,0,3.65,0,.14,0,.28,0,.42,0,.51,0,.55.53.62l1,.13a1.59,1.59,0,0,1,.33.14c-.18.09-.27.17-.36.17h-5.52a1.64,1.64,0,0,1-.42-.15,2.22,2.22,0,0,1,.4-.16c.34-.06.68-.08,1-.14s.46-.18.5-.54a2.53,2.53,0,0,0,0-.28c0-2,0-4.09,0-6.14a4.23,4.23,0,0,0-.3-1.4,1.14,1.14,0,0,0-1.41-.67,1.85,1.85,0,0,0-1.2.86,6.45,6.45,0,0,0-.75,2.2,9.26,9.26,0,0,0-.14,1.57c0,1.22,0,2.44,0,3.66,0,.61.05.66.64.76l1.26.19c-.18.13-.26.22-.34.23a2,2,0,0,1-.42,0H139.2C139,27.07,138.74,27.17,138.45,26.82Zm-.59-11-2.24,5.68h4.48Z" transform="translate(-0.47 -0.96)"/><path d="M78.34,39.75h15.1a2,2,0,0,1,.07.4c0,1.91,0,3.81,0,5.72,0,.19.11.47-.2.51s-.32-.24-.36-.47a14,14,0,0,0-1.12-3.74,3.77,3.77,0,0,0-4.22-2c0,.21,0,.43,0,.66V53.13c0,.92.07,1,1,1.09.77.06,1.55.09,2.33.13l.66.07c-.17.14-.24.23-.32.25a3.85,3.85,0,0,1-.48,0H81a.81.81,0,0,1-.7-.17,1.43,1.43,0,0,1,.37-.15c.75,0,1.51-.08,2.27-.12l.34,0c1-.1,1.05-.4,1.05-1.1V40.84c0-.11,0-.23,0-.34,0-.35-.13-.43-.48-.45a4.79,4.79,0,0,0-1.95.32A3.28,3.28,0,0,0,80.19,42a12.91,12.91,0,0,0-1.14,3.3c-.06.25-.11.49-.15.74s0,.38-.29.38-.27-.2-.27-.39V39.75Z" transform="translate(-0.47 -0.96)"/><path d="M119.05,39.6v7.63l.08,0c.15-.29.29-.58.45-.87a2.58,2.58,0,0,1,2.48-1.54,10.11,10.11,0,0,1,1.36.11,2.6,2.6,0,0,1,2.37,2.88c0,1.45,0,2.89,0,4.34,0,.49,0,1,0,1.45s0,.55.53.61.82.08,1.23.13a3.5,3.5,0,0,1,.45.12c-.24.11-.34.19-.45.19-.55,0-1.1,0-1.65,0h-4a.77.77,0,0,1-.7-.19,2,2,0,0,1,.39-.13c.41-.06.82-.09,1.23-.14a.48.48,0,0,0,.47-.5V53.3c0-2,0-3.95,0-5.93a5.06,5.06,0,0,0-.12-1.09,1.36,1.36,0,0,0-1.82-1.06,2,2,0,0,0-1.15.82,5.85,5.85,0,0,0-1.12,3.34c0,1.31,0,2.62,0,3.93a2.58,2.58,0,0,0,0,.48.49.49,0,0,0,.46.44c.36,0,.73.08,1.09.13a3.1,3.1,0,0,1,.44.12c-.23.11-.33.19-.44.19-.48,0-1,0-1.45,0h-4.34a.87.87,0,0,1-.71-.15c.12-.06.21-.16.32-.17.54,0,1.09-.08,1.64-.14s.51-.17.54-.57c0-.14,0-.28,0-.41V41.31c0-.62-.14-.78-.74-.88-.4-.07-.81-.07-1.22-.1a1.39,1.39,0,0,1-.51-.14,5.81,5.81,0,0,1,2.36-.4C117.36,39.66,118.19,39.66,119.05,39.6Z" transform="translate(-0.47 -0.96)"/><path d="M251,54.67v-2.4a6,6,0,0,1-1.06,1.6,2.56,2.56,0,0,1-1.85.8,6.92,6.92,0,0,1-1.43-.13,2.53,2.53,0,0,1-2-2.53c0-1.89,0-3.77,0-5.66,0-.9,0-1.08-1-1.06a2.79,2.79,0,0,1-1.23-.1c.12-.1.19-.2.26-.21.55,0,1.1-.1,1.65-.13l2.2-.14h.61c0,.28,0,.52,0,.77V52.1a9.15,9.15,0,0,0,0,1.17,1.15,1.15,0,0,0,1.53,1,2.45,2.45,0,0,0,1.53-1.19,4.72,4.72,0,0,0,.76-2.47c0-1.47,0-3,0-4.42,0-.68-.21-.89-.91-.92h-1.24c-.15,0-.3,0-.58-.07.17-.13.25-.23.33-.24.57,0,1.14-.1,1.71-.13l2.54-.14h.61c0,.28,0,.53,0,.77v7.25c0,.93,0,1.13,1.19,1.21a1.82,1.82,0,0,1,1.07.16,6.53,6.53,0,0,1-2.3.38A22.41,22.41,0,0,1,251,54.67Z" transform="translate(-0.47 -0.96)"/><path d="M196.75,45.28c1.47-.3,3-.35,4.48-.6a3.34,3.34,0,0,1,.1,1.32c0,.41,0,.83,0,1.23.31-.52.59-1,.93-1.55a1.91,1.91,0,0,1,1.52-.82,4.48,4.48,0,0,1,2.74.46,2.37,2.37,0,0,1,1.31,2.18c0,1.86,0,3.72,0,5.59a5,5,0,0,0,0,.55c0,.44.15.54.6.6l1.23.12a2.43,2.43,0,0,1,.42.14c-.21.1-.3.17-.39.17h-6a2.16,2.16,0,0,1-.43-.13,2.18,2.18,0,0,1,.36-.19c.41,0,.82-.08,1.23-.14s.54-.17.56-.62c0-.26,0-.51,0-.76,0-1.7,0-3.41,0-5.11a11,11,0,0,0-.12-1.29c-.25-1.5-1.51-1.52-2.38-.9a2.73,2.73,0,0,0-.91,1.18,7.23,7.23,0,0,0-.67,3.07c0,1.12,0,2.25,0,3.38a3.85,3.85,0,0,0,0,.48c.05.4.15.52.54.58s.73.08,1.1.13a2.15,2.15,0,0,1,.35.14c-.21.09-.31.17-.42.17-.58,0-1.15,0-1.73,0H197.4a1,1,0,0,1-.73-.15,2.18,2.18,0,0,1,.36-.17l1.3-.13c.44-.06.55-.18.59-.61a2,2,0,0,0,0-.35V46.72a2.77,2.77,0,0,0,0-.41.61.61,0,0,0-.6-.63c-.36-.06-.73-.07-1.09-.11l-.49-.08Z" transform="translate(-0.47 -0.96)"/><path d="M141.61,54.45c-.16.13-.21.21-.26.21h-6.27c-.05,0-.1-.08-.21-.17a2,2,0,0,1,.39-.13c.41-.06.82-.1,1.23-.14a.49.49,0,0,0,.47-.51V53.3c0-1.91,0-3.82,0-5.73a6.21,6.21,0,0,0-.14-1.29,1.27,1.27,0,0,0-1.82-1,2.39,2.39,0,0,0-1.4,1.35,6.86,6.86,0,0,0-.71,3.05v3.52a3.33,3.33,0,0,0,0,.55.5.5,0,0,0,.49.49c.34,0,.68.08,1,.13a2.15,2.15,0,0,1,.38.1c-.15.31-.38.22-.56.22h-5.59a.55.55,0,0,1-.37-.2,1.39,1.39,0,0,1,.32-.12c.44,0,.87-.08,1.3-.14s.52-.17.57-.56a2.77,2.77,0,0,0,0-.41V46.7a2,2,0,0,0,0-.35.64.64,0,0,0-.62-.68c-.29-.05-.59-.06-.89-.1s-.46.08-.7-.14c.09-.07.16-.17.24-.18.45-.08.9-.15,1.36-.2l3-.36c.07.89,0,1.73,0,2.53.28-.49.57-1,.89-1.5a2,2,0,0,1,1.64-.87,4.66,4.66,0,0,1,2.55.41,2.43,2.43,0,0,1,1.41,2.26c0,1.89,0,3.77,0,5.66a3.37,3.37,0,0,0,0,.55c.06.35.17.46.54.5l1.23.13A4.29,4.29,0,0,1,141.61,54.45Z" transform="translate(-0.47 -0.96)"/><path d="M95.59,26.85a2.42,2.42,0,0,1,.36-.1c.38-.05.77-.08,1.16-.14s.47-.16.51-.52a2.61,2.61,0,0,0,0-.28c0-2,0-4,0-6.07a4.58,4.58,0,0,0-.27-1.41,1.18,1.18,0,0,0-1.51-.73A2.4,2.4,0,0,0,94.25,19a6.87,6.87,0,0,0-.71,3.06c0,1.15,0,2.3,0,3.45a3.37,3.37,0,0,0,0,.55c0,.36.15.47.51.53s.68.08,1,.13c.11,0,.22.05.33.07,0,.32-.25.25-.41.25H89.35a.55.55,0,0,1-.41-.21,1.93,1.93,0,0,1,.34-.11l1.3-.13c.36-.05.48-.17.53-.51a2.68,2.68,0,0,0,0-.49V19.14a1.91,1.91,0,0,0,0-.48c-.06-.31-.18-.57-.56-.59s-.69-.07-1-.1l-.64-.06c.39-.37.56-.4,2.27-.54.77-.07,1.53-.18,2.37-.28,0,.88,0,1.71,0,2.53.3-.5.57-1,.88-1.47a2,2,0,0,1,1.69-.91,4.53,4.53,0,0,1,2.54.43A2.39,2.39,0,0,1,100,19.94c0,1.84,0,3.68,0,5.52,0,.16,0,.32,0,.48,0,.53.13.63.65.7l1.16.11c.1,0,.2.06.43.12-.19.11-.27.2-.36.2H95.78A.48.48,0,0,1,95.6,27Z" transform="translate(-0.47 -0.96)"/><path d="M224,26.86c-.14.12-.19.19-.24.19h-6.2c-.06,0-.12-.05-.3-.14a4.82,4.82,0,0,1,.5-.16l1.3-.13c.36-.05.48-.17.54-.52a3.81,3.81,0,0,0,0-.48V19.14a2.55,2.55,0,0,0,0-.48c-.07-.31-.19-.57-.57-.59s-.68-.07-1-.1l-.64-.06c.38-.37.56-.4,2.26-.54.77-.07,1.53-.18,2.37-.28,0,.88,0,1.71,0,2.53.29-.5.56-1,.87-1.47a2,2,0,0,1,1.69-.91,4.53,4.53,0,0,1,2.54.43,2.39,2.39,0,0,1,1.39,2.27c0,1.84,0,3.68,0,5.52,0,.16,0,.32,0,.48,0,.52.13.63.65.7l1.16.11a3.22,3.22,0,0,1,.45.13,2.32,2.32,0,0,1-.44.19h-5.59c-.22,0-.46.08-.71-.15a1.19,1.19,0,0,1,.32-.16c.39-.06.78-.08,1.16-.14s.58-.16.58-.67c0-1,0-2,0-3s0-1.89,0-2.83a9.52,9.52,0,0,0-.12-1.3,1.38,1.38,0,0,0-2.4-.88,3.28,3.28,0,0,0-.85,1.07,6.8,6.8,0,0,0-.71,3.05c0,1.17,0,2.35,0,3.52a2.57,2.57,0,0,0,0,.48c.05.36.16.48.52.53s.72.09,1.09.13A2.87,2.87,0,0,1,224,26.86Z" transform="translate(-0.47 -0.96)"/><path d="M186.12,39.83c.51-.14,9.38-.15,10,0a1.12,1.12,0,0,1-.35.19c-.59.05-1.19.08-1.78.12-1.28.09-1.36.16-1.36,1.5,0,3.36,0,6.71,0,10.07,0,.39,0,.78,0,1.17s.06.5.08.75a.43.43,0,0,0,.42.46q1,.14,2,.24a3.16,3.16,0,0,1,1,.1c-.16.12-.23.2-.32.22a2.55,2.55,0,0,1-.48,0h-8.55a.92.92,0,0,1-.77-.17,1.3,1.3,0,0,1,.37-.15l2-.13.27,0c.61-.1.73-.22.82-.82a4.21,4.21,0,0,0,0-.62V41.6a3.85,3.85,0,0,0,0-.48c-.08-.72-.21-.86-.93-.93s-1.33-.09-2-.14c-.16,0-.33,0-.49-.07Z" transform="translate(-0.47 -0.96)"/><path d="M78.34,26.86c.22-.05.32-.1.42-.11l2-.13.35,0c.55-.11.63-.18.73-.75a4.17,4.17,0,0,0,0-.61q0-5.62,0-11.24a3.77,3.77,0,0,0,0-.48c-.08-.71-.21-.85-.94-.93s-1.32-.09-2-.14a.73.73,0,0,1-.49-.21,1,1,0,0,1,.27-.1c.27,0,.55,0,.83,0h8.13l.73,0c0,.34-.18.29-.33.3l-2,.14h-.21c-.65.1-.76.2-.85.85a4.29,4.29,0,0,0,0,.62c0,3.68,0,7.36,0,11,0,1.38.06,1.47,1.38,1.55l1.65.11c.12,0,.25.05.49.1-.17.12-.25.2-.33.21a2.57,2.57,0,0,1-.48,0H79.15A.94.94,0,0,1,78.34,26.86Z" transform="translate(-0.47 -0.96)"/><path d="M212.29,25.62a6.13,6.13,0,0,1-.64.79,2.8,2.8,0,0,1-1.53.72,5,5,0,0,1-2.7-.23,2.3,2.3,0,0,1-.84-3.58A3.92,3.92,0,0,1,209,21.93c.68-.12,1.36-.17,2-.28.84-.14,1.1-.45,1.11-1.29,0-.53,0-1.06,0-1.59,0-.77-.24-1.07-1-1.17a3.07,3.07,0,0,0-2.76.71,2.89,2.89,0,0,0-.19.27,1.16,1.16,0,0,1,1.22.73,1,1,0,0,1-.22,1.13,1.33,1.33,0,0,1-1.64.25A1.37,1.37,0,0,1,207,19a2,2,0,0,1,1.23-1.23,6.94,6.94,0,0,1,4.71-.23,3.77,3.77,0,0,1,1,.56,1.6,1.6,0,0,1,.64,1.37c0,1.84,0,3.68,0,5.52a7.47,7.47,0,0,0,.11,1.16.81.81,0,0,0,.76.76.85.85,0,0,0,1-.61,4.37,4.37,0,0,0,.18-1c0-.6,0-1.2,0-1.8a1.41,1.41,0,0,1,0-.41.24.24,0,0,1,.19-.14.26.26,0,0,1,.19.15.61.61,0,0,1,0,.27c0,.64,0,1.29,0,1.93a2.75,2.75,0,0,1,0,.41,1.44,1.44,0,0,1-1.37,1.48,7.58,7.58,0,0,1-1.78,0,1.73,1.73,0,0,1-1.47-1.19C212.38,25.84,212.34,25.73,212.29,25.62Zm-.11-4c-.37.1-.71.21-1.07.29s-.58.09-.88.13a1.75,1.75,0,0,0-1.51,1.23,4.6,4.6,0,0,0-.07,2.77,1,1,0,0,0,1.19.8,2.54,2.54,0,0,0,2.33-2.31C212.21,23.58,212.18,22.6,212.18,21.66Z" transform="translate(-0.47 -0.96)"/><path d="M166.73,53.18a3.14,3.14,0,0,1-3,1.64,4.49,4.49,0,0,1-1.88-.32,2.29,2.29,0,0,1-.85-3.57,3.87,3.87,0,0,1,2.45-1.39c.68-.12,1.37-.17,2-.29.85-.14,1.11-.44,1.12-1.28q0-.8,0-1.59c0-.78-.24-1.07-1-1.17a3,3,0,0,0-2.81.75s-.07.12-.14.22a1.17,1.17,0,0,1,1.21.72,1,1,0,0,1-.21,1.14,1.34,1.34,0,0,1-1.64.26,1.38,1.38,0,0,1-.62-1.72,2,2,0,0,1,1.35-1.29,7.38,7.38,0,0,1,1.45-.38,6.67,6.67,0,0,1,3.2.22,3.46,3.46,0,0,1,.85.45,1.73,1.73,0,0,1,.75,1.53c0,1.81,0,3.63,0,5.45a7.71,7.71,0,0,0,.11,1.16.83.83,0,0,0,.75.77.87.87,0,0,0,1-.61,4.28,4.28,0,0,0,.18-1c0-.57,0-1.15,0-1.72a2.54,2.54,0,0,1,0-.48.23.23,0,0,1,.18-.15c.07,0,.14.08.21.13a.17.17,0,0,1,0,.07c0,.9,0,1.8,0,2.69a1.36,1.36,0,0,1-1.33,1.34,8.83,8.83,0,0,1-1.78,0,1.73,1.73,0,0,1-1.47-1.19A4,4,0,0,1,166.73,53.18Zm-.1-3.91c-.38.1-.73.21-1.08.29s-.59.08-.88.13a1.77,1.77,0,0,0-1.51,1.24,4.64,4.64,0,0,0-.07,2.71,1,1,0,0,0,1.29.84,2.56,2.56,0,0,0,2.25-2.4C166.65,51.14,166.63,50.2,166.63,49.27Z" transform="translate(-0.47 -0.96)"/><path d="M171.86,40.19a19.85,19.85,0,0,1,4.89-.54c0,.23,0,.48,0,.72V53.06c0,1.07,0,1.08,1.06,1.24.32.05.64,0,1,.06l.69.07a2.22,2.22,0,0,1-.39.24,1.88,1.88,0,0,1-.41,0h-6.14a.83.83,0,0,1-.71-.17,1.9,1.9,0,0,1,.37-.15c.52,0,1.05-.08,1.57-.14s.53-.16.58-.54a3.85,3.85,0,0,0,0-.48V41.61c0-.11,0-.23,0-.34-.05-.61-.16-.75-.76-.85-.34-.05-.68-.06-1-.09S172.11,40.4,171.86,40.19Z" transform="translate(-0.47 -0.96)"/><path d="M220.91,45.9a7.15,7.15,0,0,1-2-.27,3.74,3.74,0,0,1,.45-.22,4.86,4.86,0,0,0,3.54-4.3c0-.18.07-.36.09-.54s0-.28.23-.28.23.17.23.34V45.1h2.88l0,.72h-2.85c0,.15-.05.24-.05.32,0,2.25,0,4.51,0,6.76a3.08,3.08,0,0,0,.07.68,1.05,1.05,0,0,0,.92.9,1.21,1.21,0,0,0,1.28-.61,3.39,3.39,0,0,0,.3-1.12c.07-.87.09-1.74.13-2.61a1.31,1.31,0,0,1,0-.34.19.19,0,0,1,.14-.11.36.36,0,0,1,.23.11.59.59,0,0,1,0,.27c0,1,0,1.93-.11,2.88a1.77,1.77,0,0,1-1.73,1.81,5.84,5.84,0,0,1-1.77,0,2.23,2.23,0,0,1-2-2.46c0-1.31,0-2.62,0-3.93Z" transform="translate(-0.47 -0.96)"/><path d="M109.65,17.5v.72h-2.81a2,2,0,0,0-.07.36c0,2.25,0,4.5,0,6.76a3.17,3.17,0,0,0,.07.61,1.07,1.07,0,0,0,1,.93,1.2,1.2,0,0,0,1.26-.65,3.26,3.26,0,0,0,.28-1.06c.07-.86.09-1.74.13-2.61a1,1,0,0,1,0-.34.27.27,0,0,1,.19-.14c.07,0,.14.09.2.15a.3.3,0,0,1,0,.14,20.87,20.87,0,0,1-.11,3.16,1.84,1.84,0,0,1-1.7,1.63,5.37,5.37,0,0,1-1.65,0,2.3,2.3,0,0,1-2.17-2.61c0-1.82,0-3.63,0-5.45v-.78c-.68-.18-1.38,0-2.07-.26a2.7,2.7,0,0,1,.44-.24,4.87,4.87,0,0,0,3.57-4.34,6,6,0,0,1,.11-.61c0-.07.12-.17.17-.16s.23.09.25.16a2.51,2.51,0,0,1,0,.55v4a5.4,5.4,0,0,0,1.44.07C108.67,17.52,109.12,17.5,109.65,17.5Z" transform="translate(-0.47 -0.96)"/><path d="M257.9,45.87c-.72-.06-1.38,0-2.08-.06.12-.35.36-.37.57-.43a4.59,4.59,0,0,0,2.09-1.28,5.17,5.17,0,0,0,1.34-2.81c0-.25.09-.5.11-.75s.08-.26.25-.25.21.15.21.3,0,.32,0,.48v4h2.85v.74h-2.83c0,.18,0,.29,0,.4,0,2.21,0,4.41,0,6.62a3.82,3.82,0,0,0,.08.75,1,1,0,0,0,.94.87,1.15,1.15,0,0,0,1.23-.58,3.3,3.3,0,0,0,.32-1.11c.08-.86.09-1.74.13-2.61a1.3,1.3,0,0,1,0-.34.25.25,0,0,1,.18-.15c.07,0,.15.08.21.14s0,.08,0,.13a18.34,18.34,0,0,1-.12,3.23,1.81,1.81,0,0,1-1.68,1.57,6.18,6.18,0,0,1-1.77,0,2.25,2.25,0,0,1-2.06-2.49c0-1.75,0-3.5,0-5.25Z" transform="translate(-0.47 -0.96)"/><path d="M239.42,45.1h2.85v.74h-2.83c0,.18,0,.29,0,.4,0,2.21,0,4.41,0,6.62a3.82,3.82,0,0,0,.08.75,1,1,0,0,0,.94.87,1.15,1.15,0,0,0,1.23-.58,3.3,3.3,0,0,0,.32-1.11c.08-.86.09-1.74.13-2.61a1.3,1.3,0,0,1,0-.34.25.25,0,0,1,.18-.15c.07,0,.15.08.21.14s0,.08,0,.13a18.34,18.34,0,0,1-.12,3.23,1.81,1.81,0,0,1-1.68,1.57,6.18,6.18,0,0,1-1.77,0,2.25,2.25,0,0,1-2.06-2.5c0-1.74,0-3.49,0-5.24V45.92c-.67-.17-1.37,0-2.07-.13.12-.33.35-.35.56-.41a4.59,4.59,0,0,0,2.09-1.28,5.17,5.17,0,0,0,1.34-2.81c0-.25.08-.5.11-.75s.08-.26.26-.25.2.15.2.3,0,.32,0,.48v4Z" transform="translate(-0.47 -0.96)"/><path d="M128.12,26.82c-.45.28-5.73.36-7.15.25a2.74,2.74,0,0,1-.45-.15c.27-.09.38-.15.49-.17l1.57-.13c.45-.05.56-.16.57-.62,0-.73,0-1.47,0-2.2V19a3.85,3.85,0,0,0,0-.48c-.06-.4-.2-.56-.61-.62s-.91-.07-1.37-.11a1.3,1.3,0,0,1-.49-.14,6.09,6.09,0,0,1,2.38-.4c.78-.13,1.59-.13,2.46-.19.11.86,0,1.7.07,2.58a4.37,4.37,0,0,1,1.14-1.81,2.33,2.33,0,0,1,3-.15,1.75,1.75,0,0,1,.54,1.86,1.37,1.37,0,0,1-1.49.86,1.14,1.14,0,0,1-1.08-1,1.38,1.38,0,0,1,.82-1.51,1.58,1.58,0,0,1,.29-.08,1.22,1.22,0,0,0-1.58-.06,3.61,3.61,0,0,0-1.3,1.73,6.31,6.31,0,0,0-.39,2.23c0,1.31,0,2.62,0,3.93a2.84,2.84,0,0,0,0,.41c.06.35.17.47.54.51s1,.09,1.5.13Z" transform="translate(-0.47 -0.96)"/><path d="M185.67,17.88a1.16,1.16,0,0,0-1.53-.08,3.68,3.68,0,0,0-1.31,1.73,6.16,6.16,0,0,0-.39,2.16c0,1.35,0,2.71,0,4.06a2.73,2.73,0,0,0,0,.41.51.51,0,0,0,.51.47l1.51.12a.86.86,0,0,1,.52.19c-.09,0-.17.12-.26.13h-6.55c-.21,0-.45.09-.68-.18a1.71,1.71,0,0,1,.35-.13l1.44-.13c.65-.06.71-.14.72-.82,0-.51,0-1,0-1.52V19.05a3.85,3.85,0,0,0,0-.48.59.59,0,0,0-.59-.63c-.45-.06-.91-.07-1.37-.11a1.34,1.34,0,0,1-.5-.14,5.81,5.81,0,0,1,2.36-.4c.8-.13,1.63-.13,2.49-.19v2.69a4.88,4.88,0,0,1,1.19-1.92,2.34,2.34,0,0,1,3-.16,1.77,1.77,0,0,1,.56,1.86,1.38,1.38,0,0,1-1.49.87,1.15,1.15,0,0,1-1.09-1,1.4,1.4,0,0,1,.8-1.52Z" transform="translate(-0.47 -0.96)"/><path d="M273.32,49.85H266.9a6.63,6.63,0,0,0,.44,3.21,2.16,2.16,0,0,0,2.35,1.42,3.69,3.69,0,0,0,3-1.71,3.4,3.4,0,0,0,.52-1.55c0-.13,0-.25.08-.54a1.93,1.93,0,0,1,0,1.16,3.7,3.7,0,0,1-1.91,2.42A5,5,0,0,1,264.56,52a5.15,5.15,0,0,1-.36-2.16,4.83,4.83,0,0,1,1-3.07,4.76,4.76,0,0,1,6-1.4,4,4,0,0,1,1.95,2.78A3.68,3.68,0,0,1,273.32,49.85Zm-2.2-.35a7.75,7.75,0,0,0,0-.84,13.45,13.45,0,0,0-.22-1.55,5.34,5.34,0,0,0-.38-1.17,1.32,1.32,0,0,0-1.4-.78,2,2,0,0,0-1.83,1.33,6.38,6.38,0,0,0-.39,2.07,2.3,2.3,0,0,0,0,.94Z" transform="translate(-0.47 -0.96)"/><path d="M119.7,22.24h-6.42a6.81,6.81,0,0,0,.41,3.16,2.27,2.27,0,0,0,2.72,1.44A3.72,3.72,0,0,0,119,25.22a3.46,3.46,0,0,0,.56-1.61,1,1,0,0,1,.1-.37,1.63,1.63,0,0,1,0,1,3.63,3.63,0,0,1-1.91,2.41,5,5,0,0,1-6.84-2.26,5.14,5.14,0,0,1-.35-2.16,4.9,4.9,0,0,1,7.06-4.47,4,4,0,0,1,2,2.79A3.78,3.78,0,0,1,119.7,22.24Zm-2.21-.36c0-.3,0-.57,0-.84a14.81,14.81,0,0,0-.2-1.49,5.34,5.34,0,0,0-.38-1.17,1.37,1.37,0,0,0-1.58-.81,1.94,1.94,0,0,0-1.67,1.32,7.35,7.35,0,0,0-.39,3Z" transform="translate(-0.47 -0.96)"/><path d="M176.69,22.26h-6.41a6.87,6.87,0,0,0,.41,3.13,2.19,2.19,0,0,0,2.38,1.49,3.76,3.76,0,0,0,3-1.71,3.44,3.44,0,0,0,.52-1.55c0-.13,0-.26.08-.54a1.89,1.89,0,0,1,0,1.15,3.64,3.64,0,0,1-1.9,2.42,5,5,0,0,1-6.85-2.26,5.08,5.08,0,0,1-.36-2.15,4.86,4.86,0,0,1,1-3.08,4.77,4.77,0,0,1,6-1.4,4,4,0,0,1,2,2.78A3.76,3.76,0,0,1,176.69,22.26Zm-6.42-.37h4.23a7.9,7.9,0,0,0,0-.85,14.81,14.81,0,0,0-.2-1.49,5.31,5.31,0,0,0-.37-1.17,1.38,1.38,0,0,0-1.58-.81,2,2,0,0,0-1.68,1.33A7.32,7.32,0,0,0,170.27,21.89Z" transform="translate(-0.47 -0.96)"/><path d="M103.16,49.85H96.72a4.91,4.91,0,0,0,0,1.38,5.34,5.34,0,0,0,.63,2.23,2.12,2.12,0,0,0,1.84,1A3.65,3.65,0,0,0,103,51.06a1.12,1.12,0,0,1,0-.22,1.32,1.32,0,0,1,0,1,3.66,3.66,0,0,1-1.92,2.4A5,5,0,0,1,94.36,52,5.1,5.1,0,0,1,94,49.82a4.87,4.87,0,0,1,1-3,4.78,4.78,0,0,1,6.09-1.42,3.73,3.73,0,0,1,1.74,2.14A5.32,5.32,0,0,1,103.16,49.85Zm-2.25-.36a8.69,8.69,0,0,0-.19-2.35,4.85,4.85,0,0,0-.38-1.17,1.35,1.35,0,0,0-1.52-.8,1.93,1.93,0,0,0-1.69,1.22,6.9,6.9,0,0,0-.42,3.1Z" transform="translate(-0.47 -0.96)"/><path d="M211.8,53.69l-.9,1a17.44,17.44,0,0,1,0-4c.13.37.23.67.35,1A10.88,10.88,0,0,0,211.9,53a2.61,2.61,0,0,0,1.94,1.39,4.68,4.68,0,0,0,2,0,1.26,1.26,0,0,0,1-1.08,1.52,1.52,0,0,0-.57-1.66,5,5,0,0,0-1.18-.52c-.59-.18-1.22-.26-1.81-.44a7.48,7.48,0,0,1-1.58-.64,2.51,2.51,0,0,1-1.35-2.58,2.77,2.77,0,0,1,1.8-2.34,4,4,0,0,1,2.89,0l.06,0a3.25,3.25,0,0,0,1.1.37c.34,0,.67-.33,1-.51a.91.91,0,0,1,.16,0v3.34l-.1,0c-.07-.16-.15-.31-.21-.47A4.17,4.17,0,0,0,215,45.44a3.16,3.16,0,0,0-2.47-.07,1.47,1.47,0,0,0-.94.94,1.24,1.24,0,0,0,.45,1.52,4.94,4.94,0,0,0,1.31.58c.72.22,1.47.37,2.2.56.33.09.66.18,1,.3a2.74,2.74,0,0,1,1.81,3.19,2.43,2.43,0,0,1-1.81,2.12,6.31,6.31,0,0,1-2.86.16,3.3,3.3,0,0,1-1.13-.48A6.32,6.32,0,0,1,211.8,53.69Z" transform="translate(-0.47 -0.96)"/><path d="M203.7,26a3.63,3.63,0,0,1-2.35,1.18,4.94,4.94,0,0,1-5.49-3.57A5.09,5.09,0,0,1,198,18.11a5,5,0,0,1,5.5-.09,2.44,2.44,0,0,1,1,1.79,1.2,1.2,0,0,1-.68,1.25,1.35,1.35,0,0,1-1.49,0,1,1,0,0,1-.48-1,1,1,0,0,1,.64-.9,5.44,5.44,0,0,1,.57-.19,1.8,1.8,0,0,0-1.82-1.4,2.13,2.13,0,0,0-2.47,1.59,7.14,7.14,0,0,0-.28,1.28,11.49,11.49,0,0,0,.22,4.37,4.77,4.77,0,0,0,.49,1.05,2.13,2.13,0,0,0,2.24,1,3.41,3.41,0,0,0,1.93-.82,1.5,1.5,0,0,1,.23-.15Z" transform="translate(-0.47 -0.96)"/><path d="M112.18,53.59a3.62,3.62,0,0,1-2.34,1.19,4.94,4.94,0,0,1-5.49-3.57,5.09,5.09,0,0,1,2.11-5.49,5,5,0,0,1,5.5-.09,2.42,2.42,0,0,1,1,1.78,1.18,1.18,0,0,1-.68,1.25,1.36,1.36,0,0,1-1.5,0,1.11,1.11,0,0,1,.16-1.91l.58-.19a1.81,1.81,0,0,0-1.82-1.39,2.11,2.11,0,0,0-2.47,1.59A7,7,0,0,0,107,48a11.47,11.47,0,0,0,.22,4.37,4.56,4.56,0,0,0,.49,1.05,2.12,2.12,0,0,0,2.24,1,3.28,3.28,0,0,0,1.93-.82,1.28,1.28,0,0,1,.23-.14Z" transform="translate(-0.47 -0.96)"/><path d="M158.15,53.59a3.64,3.64,0,0,1-2.34,1.19,4.93,4.93,0,0,1-5.49-3.57,5.07,5.07,0,0,1,2.1-5.49,5,5,0,0,1,5.5-.09,2.39,2.39,0,0,1,1,1.78,1.18,1.18,0,0,1-.68,1.25,1.35,1.35,0,0,1-1.49,0,1.1,1.1,0,0,1,.16-1.91l.57-.19a1.8,1.8,0,0,0-1.82-1.39,2.12,2.12,0,0,0-2.47,1.59,7,7,0,0,0-.28,1.27,11.47,11.47,0,0,0,.22,4.37,5,5,0,0,0,.49,1.05,2.12,2.12,0,0,0,2.24,1,3.23,3.23,0,0,0,1.93-.82,1.88,1.88,0,0,1,.24-.14Z" transform="translate(-0.47 -0.96)"/><path d="M194.84,27a1.11,1.11,0,0,1-.29.1,60.27,60.27,0,0,1-7.22-.13,1.11,1.11,0,0,1,.37-.18c.54-.06,1.09-.09,1.64-.14s.55-.16.6-.59a3.85,3.85,0,0,0,0-.48c0-2.14,0-4.27,0-6.41,0-1.08-.13-1.22-1.2-1.3-.32,0-.64,0-1,0a3.19,3.19,0,0,1-.51-.11,7,7,0,0,1,2.56-.42c.8-.13,1.63-.13,2.5-.2,0,.3,0,.55,0,.79v7.58c0,.18,0,.37,0,.55,0,.45.12.56.57.61s1,.09,1.43.13c.16,0,.31,0,.46.06Z" transform="translate(-0.47 -0.96)"/><path d="M141.86,45.15c1.61-.24,3.24-.3,4.92-.46,0,.31,0,.56,0,.8,0,2.53,0,5,0,7.58,0,.18,0,.37,0,.55,0,.44.12.56.57.61s1,.08,1.44.13l.45.06c0,.3-.2.26-.35.26h-6.41c-.22,0-.43,0-.65,0l0-.14c.11,0,.2-.14.31-.15.55,0,1.1-.08,1.64-.14s.56-.16.61-.59a3.85,3.85,0,0,0,0-.48V46.74c0-1.07-.14-1.22-1.21-1.29-.32,0-.65,0-1,0-.12,0-.24-.06-.37-.08Z" transform="translate(-0.47 -0.96)"/><path d="M234.45,54.58a1.57,1.57,0,0,1-.28.1,62.12,62.12,0,0,1-7.22-.14c.16-.08.25-.17.36-.18.55,0,1.1-.08,1.64-.14s.56-.15.61-.59a3.81,3.81,0,0,0,0-.48v-6.4c0-1.08-.13-1.23-1.21-1.3-.32,0-.64,0-1,0a4.52,4.52,0,0,1-.52-.11,7.07,7.07,0,0,1,2.56-.42c.81-.13,1.63-.14,2.51-.2,0,.3,0,.54,0,.79v7.58c0,.18,0,.36,0,.55,0,.44.12.56.57.61s1,.08,1.44.13l.45.06Z" transform="translate(-0.47 -0.96)"/><path d="M230.64,42.25a1.33,1.33,0,1,1,0-2.66,1.33,1.33,0,1,1,0,2.66Z" transform="translate(-0.47 -0.96)"/><path d="M191.06,14.65A1.34,1.34,0,1,1,191,12a1.34,1.34,0,1,1,0,2.67Z" transform="translate(-0.47 -0.96)"/><path d="M145.51,42.25a1.33,1.33,0,1,1,0-2.66,1.39,1.39,0,0,1,1.43,1.29A1.37,1.37,0,0,1,145.51,42.25Z" transform="translate(-0.47 -0.96)"/><path d="M158.06,53.51a4.4,4.4,0,0,0,.93-1.87c0-.3.06-.59.1-.89a2.51,2.51,0,0,1,.11-.44,3.65,3.65,0,0,1-1,3.28Z" transform="translate(-0.47 -0.96)"/><path d="M203.6,25.9a4.3,4.3,0,0,0,.94-1.87c.05-.29.06-.59.09-.88a3.87,3.87,0,0,1,.12-.44A3.66,3.66,0,0,1,203.7,26Z" transform="translate(-0.47 -0.96)"/><path d="M112.09,53.51a4.42,4.42,0,0,0,.94-1.87c0-.3.06-.59.09-.89,0-.12.06-.23.11-.44a3.6,3.6,0,0,1-1,3.28Z" transform="translate(-0.47 -0.96)"/><path d="M35.81,2.26A31.64,31.64,0,0,1,66.27,34.74a30.64,30.64,0,0,1-9.81,22.18,30.63,30.63,0,0,1-22.72,8.79,30.71,30.71,0,0,1-22-9.76,30.72,30.72,0,0,1-8.84-22.4A30.74,30.74,0,0,1,12.75,11,30.94,30.94,0,0,1,35.81,2.26ZM34.55,59.9a26,26,0,0,0,18.11-7.36A25.4,25.4,0,0,0,60.48,34,25,25,0,0,0,53,15.77,25.16,25.16,0,0,0,34.63,8.05,25.85,25.85,0,0,0,8.7,33.78a25.2,25.2,0,0,0,7.43,18.36A25.29,25.29,0,0,0,34.55,59.9ZM11.34,19c-.39,0-.49-.22-.6-.44s.31-.74.47-.82c.35-.18.54.1.76.32.16-.29.43-.48.44-.78l-.63-.07L10,16.86c-.17,0-.35-.11-.55.07.07.14.13.28.21.42l1,1.7c.25.44.15.75-.33.9s-.71.13-1.09.2c0-.14,0-.22,0-.3a.59.59,0,0,0-.35-.65.63.63,0,0,0-.72.24,4.45,4.45,0,0,0-.83,1.88c.22-.29.36-.33.56-.23.42.21.85.41,1.29.59a.77.77,0,0,1,.47.6,3.92,3.92,0,0,0,.43-1.08c-.48.24-.76-.08-1.15-.3a3.26,3.26,0,0,1,1.21-.36.65.65,0,0,0,.54-.35ZM42.65,5.07c.21.35.22.35.15.59s-.21.74-.33,1.15L41.54,5.1A.73.73,0,0,0,41,4.69c-.57-.08-1.13-.19-1.7-.29.53.4.1.8.1,1.21l-1.14-.18c0-.41-.18-.86.44-1a1.47,1.47,0,0,0-1.08-.15,1.49,1.49,0,0,1,.12.46c0,.41-.07.82-.11,1.22a2,2,0,0,1-.05.43,2.15,2.15,0,0,1-.33.41l1.12.07c-.39-.38-.22-.73-.2-1.1a1.76,1.76,0,0,1,1.16.17c0,.39,0,.77-.47,1l1.07.18c-.09-.18-.2-.29-.18-.38.1-.66.23-1.31.35-2a2.91,2.91,0,0,1,.31,0c.43,0,.56.23.46.65s-.17.84-.29,1.26a2.79,2.79,0,0,1-.27.55l.72.13c-.07-.18-.18-.32-.15-.43a3.71,3.71,0,0,1,.38-1.3c.47.69.72,1.46,1.22,2.2.11-.29.18-.47.24-.66.13-.41.25-.82.37-1.24a.68.68,0,0,1,.51-.55ZM13,12.62l-.56.59.74,1.86a2.64,2.64,0,0,1-.4,0c-.44-.09-.89-.16-1.32-.28a.42.42,0,0,0-.53.17c-.12.17-.24.35-.35.53.21,0,.35-.19.54,0,.43.35.88.68,1.29,1a1.64,1.64,0,0,1,.27.51l.58-.75c-.23.06-.34.13-.44.11a4.55,4.55,0,0,1-1.16-1c.69.1,1.35.33,2.11.37L13.05,14c.47.34,1.13.5,1.08,1.35l.76-.87c-.19,0-.36,0-.44-.1-.42-.36-.84-.73-1.22-1.12A1.76,1.76,0,0,1,13,12.62ZM4.93,31.29l.11,0L5.22,31a.45.45,0,0,1,.47-.23c.39,0,.78.06,1.16.14a4.93,4.93,0,0,1,.76.32v-1c-.16.32-.32.44-.58.4s-.79-.12-1.23-.18a25.77,25.77,0,0,1,2.23-2c-.69-.15-1.28-.31-1.88-.39-.37-.06-.62-.17-.72-.56l-.17,1.08c.19-.09.34-.24.47-.22A11.34,11.34,0,0,1,7,28.61c-.47.4-.85.77-1.27,1.09S4.91,30.38,5,31A1,1,0,0,1,4.93,31.29Zm49-17.14a6.67,6.67,0,0,1,1.27-1.37,12.5,12.5,0,0,0-.06,1.33c0,.41-.25.81,0,1.28.23-.18.43-.32.61-.48s.57-.53.86-.78.32-.24.74-.2l-.63-.75c-.05.74-.63.91-1.05,1.33a3.64,3.64,0,0,1,0-.43c0-.4,0-.81.11-1.22a1.09,1.09,0,0,0-.57-1.18s-.07,0-.11,0l.17.48c-.35.37-.71.73-1.07,1.1a1.22,1.22,0,0,1-.32.28,2.08,2.08,0,0,1-.49,0Zm-36-2.24c-.62,0-.79-.33-1-.78.26,0,.44,0,.61.09s.47.14.71.19a.59.59,0,0,0,.73-.31l-1.51-.44a2.38,2.38,0,0,0,.18-.36.55.55,0,0,0-.6-.76.83.83,0,0,0-.41.1,5.8,5.8,0,0,0-1.27.94c.19.07.4.09.5.21a5.71,5.71,0,0,1,1.26,1.72ZM63.89,31c.07.57.26,1.16-.3,1.63.5.18.64.12.63-.29s-.06-1-.11-1.53c0-.32-.1-.62-.14-.93a.53.53,0,0,1-.51.49L62,30.5c-.25,0-.36-.11-.46-.3a3.6,3.6,0,0,0,0,.8c0,.43.08.85.1,1.28s.1.59.72.61c-.6-.91-.6-.91-.51-1.74l.85-.13a1.08,1.08,0,0,1-.14,1.3c.3,0,.58.14.84-.09A1.57,1.57,0,0,1,63,31.05c.23-.05.45-.1.67-.13A.63.63,0,0,1,63.89,31ZM25.61,6.22l.1-.07,2.14,1.33A4.16,4.16,0,0,0,27.8,7c-.12-.5-.25-1-.37-1.49a.89.89,0,0,1,0-.36c0-.09.09-.17.19-.34l-.8.22c.46.43.41,1,.58,1.57-.6-.37-1.14-.68-1.64-1a.82.82,0,0,0-1,0c.19.15.44.26.5.43A6.47,6.47,0,0,1,25.74,8l.59-.19C25.83,7.36,25.85,6.74,25.61,6.22ZM7.05,21.73l-.81,2.38A.57.57,0,0,1,7,24c.39.18.81.3,1.21.44a.73.73,0,0,1,.52.5l.72-2.13c-.21-.14-.3-.38-.58-.36.29.82.29.82-.18,1.57l-.84-.31c.11-.41.14-.78.63-.86-.47-.34-.47-.34-.87-.33.37.39.14.72,0,1.09l-.79-.31c.26-.92.26-.92.84-1.28Zm56.06,3.42c-.12.18-.19.4-.32.44a7.18,7.18,0,0,1-1.36.36c-.4.06-.67-.21-.77-.63a.64.64,0,0,1,.41-.85c.33-.15.7-.24,1-.39a.81.81,0,0,1,.78,0l-.39-1.19a.68.68,0,0,1-.55.6,4.43,4.43,0,0,0-.69.26c-.87.36-1,.74-.77,1.64,0,.09.06.19.1.29a.92.92,0,0,0,1.15.56,9.44,9.44,0,0,0,1-.25c.29-.11.48,0,.66.28A1.76,1.76,0,0,0,63.11,25.15Zm-47.8-13.7c-.48-.52-.47-.52-.83-.21l-.74.65-.53.53a.61.61,0,0,1,.63.19c.29.34.64.64.94,1a4.17,4.17,0,0,1,.37.65l1.12-1c.33-.32.3-.5-.18-.91a.93.93,0,0,1-.59,1.2l-.7-.63c.41-.45.41-.45,1-.39l-.63-.76c-.07.64-.07.64-.56.9-.17-.21-.44-.34-.53-.62A1.08,1.08,0,0,1,15.31,11.45ZM48.38,10a1.86,1.86,0,0,0,.86.55c-.19-1,.35-2,.14-3L46.85,9.33l.69.31c0-.41,0-.41.44-.68l.32.15.17.09c.31.19.36.32.17.65C48.6,9.92,48.47,10,48.38,10ZM25.33,8.1a5.47,5.47,0,0,1-.64-.52c-.44-.43-.86-.88-1.29-1.31a1.35,1.35,0,0,0-.32-.18c-.33,1,0,2-.29,3l.7-.32c-.34-.31-.34-.31-.23-.81.26-.08.55-.27.79-.22s.39.37.61.59Zm7.32-2.56a.93.93,0,0,1,1,.23c0-.22,0-.34,0-.45s0-.26-.08-.53a.68.68,0,0,1-.91.4l0-.55c0-.23.09-.33.32-.37a.93.93,0,0,1,.91.39c.14-.51.13-.56-.25-.56-.53,0-1.07,0-1.6,0a.91.91,0,0,0-.31.12c.34.06.41.27.42.55s.06.82.11,1.22a.59.59,0,0,1-.33.67c.62,0,1.13,0,1.64,0s.52-.13.52-.74a1,1,0,0,1-1.28.45Zm26,10.07c-.17-.29-.3-.53-.46-.76a.68.68,0,0,0-.74-.34.71.71,0,0,0-.6.62,3,3,0,0,0,0,.67,6,6,0,0,1,.06.73c0,.23-.19.3-.4.21a.68.68,0,0,1-.35-.92l.13-.3a1.11,1.11,0,0,0-.68.46l.29.42a4,4,0,0,0,.29.39.8.8,0,0,0,.94.23.86.86,0,0,0,.37-.91,4.91,4.91,0,0,1-.14-.84.49.49,0,0,1,.22-.39A.31.31,0,0,1,58,15a.64.64,0,0,1,0,.7c0,.09-.09.19-.17.37C58.27,16,58.41,15.77,58.63,15.61Zm4.19,11.16c.18.09.28.12.36.17a.66.66,0,0,1,.27.64c0,.21-.24.18-.39.21a9.69,9.69,0,0,0-1.32.29c-.28.09-.42,0-.61-.21.13.41,0,.86.25,1.2.12-.14.21-.35.34-.38.6-.15,1.22-.24,1.8-.35a.88.88,0,0,1-.18,1.1c.59.08.64,0,.56-.45s-.1-.81-.17-1.21-.11-.64-.18-1-.19-.31-.41-.2ZM46.88,8.54c-.31.06-.5.12-.69.14a.84.84,0,0,1-.93-.77,1.53,1.53,0,0,1,.58-1.24.75.75,0,0,1,1.24.49,4.94,4.94,0,0,0,.17.5l.28-.91c-.26-.13-.48-.23-.68-.34a1.36,1.36,0,0,0-1.51,0,1.38,1.38,0,0,0-.6,1.5,1.2,1.2,0,0,0,.89.92A1.07,1.07,0,0,0,46.88,8.54ZM6.74,24.81l0-.13-.5-.21a2.25,2.25,0,0,0-.17.36c-.16.65-.33,1.31-.48,2-.1.42,0,.52.54.45-.38-.61-.36-.55,0-1.06.56.15,1.13.29,1.69.46.11,0,.19.19.27.29a2.22,2.22,0,0,1,.16.32L8.42,26c-.89.19-1.58-.29-2.34-.43C6.15,25.15,6.26,24.83,6.74,24.81ZM22.21,8.62,22,9a.84.84,0,0,1-1.43.18,1.59,1.59,0,0,1-.49-1,.72.72,0,0,1,.3-.69.66.66,0,0,1,.8-.09l.45.25a.8.8,0,0,0-.14-.42c-.08-.12-.17-.22-.23-.31-.26.09-.47.15-.67.23a2.3,2.3,0,0,0-.5.24A1.29,1.29,0,0,0,19.63,9a1.45,1.45,0,0,0,1.45.92A1.23,1.23,0,0,0,22.21,8.62ZM36.87,5.09c.11-.58.11-.58,0-1a2.84,2.84,0,0,1-.66-.07,1.16,1.16,0,0,0-.84.06,1.25,1.25,0,0,0-.85,1.22,1.31,1.31,0,0,0,.76,1.29,1.42,1.42,0,0,0,1.48-.25A1.83,1.83,0,0,0,37,6c-.28.17-.43.28-.59.36a.87.87,0,0,1-1.2-.52,1.86,1.86,0,0,1,.06-1.14.79.79,0,0,1,1.39-.13C36.69,4.72,36.74,4.85,36.87,5.09ZM59.3,22l.4,1c.1-.17.14-.34.25-.39a8.81,8.81,0,0,1,1.79-.79c.41.33.13.65,0,1.07l.65-.28a16.49,16.49,0,0,0-1-2.43l-.5.31c.38.16.74.26.66.74-.5.24-1,.5-1.53.73A2.73,2.73,0,0,1,59.3,22Zm-1.46-2.87c.09-.19.13-.4.26-.49.51-.37,1-.7,1.58-1,.25.29.35.56.16.87,0,0,0,.06.08.11l.47-.29a14.09,14.09,0,0,0-1.33-2.1l-.4.26s0,.07,0,.1c.47.12.47.12.74.56l-1.4,1c-.28.19-.28.19-.7.09ZM31.41,4.19l-2,.29c-.41.06-.44.2-.13.59l.12-.22a.41.41,0,0,1,.47-.2c.2.06.17.25.2.41.06.44.15.88.19,1.33a2.57,2.57,0,0,1-.1.6l.92-.15a1.69,1.69,0,0,1-.27-.44c-.1-.58-.16-1.17-.23-1.76,0,0,0-.06.06-.09.32-.15.56,0,.78.33ZM4.92,33a.66.66,0,0,1,.61-.28c.43,0,.86,0,1.29,0a.59.59,0,0,1,.66.4V31.83a.58.58,0,0,1-.59.29c-.41,0-.82,0-1.23,0a.74.74,0,0,1-.74-.48ZM50.84,8.55c.13.38.13.38,0,.63s-.48.72-.71,1.08l-.39.6c.13.09.38.26.64.42l.81.53.48-.42A1.26,1.26,0,0,1,50.32,11,4.31,4.31,0,0,1,51.74,9.1,2.13,2.13,0,0,0,50.84,8.55ZM28.91,61.18A4.23,4.23,0,0,1,28.49,63c.21.09.31.06.34-.14s.09-.54.14-.81a2.76,2.76,0,0,0,.38,1.07l.26-.39.23-.35.07,0-.2.85h.46a3.89,3.89,0,0,1,.3-1.77c-.28-.13-.4,0-.5.22l-.49.92c-.07-.33-.11-.54-.15-.75a3.27,3.27,0,0,0-.13-.54C29.17,61.28,29,61.24,28.91,61.18ZM61.22,19.81l-.61-1.1a.71.71,0,0,1-.44.65c-.42.22-.83.44-1.23.69-.19.13-.34,0-.56,0l.51,1c.14-.47.15-.47.51-.67l1.07-.59C60.8,19.64,60.81,19.64,61.22,19.81ZM44,5.42c0,.25.1.42,0,.55-.26.64-.25,1.41-.81,1.94a3.51,3.51,0,0,0,1,.27c-.23-.36-.25-.38-.16-.64.15-.45.32-.89.48-1.33A.74.74,0,0,1,44.68,6a2,2,0,0,1,.42-.15ZM17.8,8.79c.39.06.4.06.58.34s.55.81.8,1.24a2.38,2.38,0,0,1,.17.55l.81-.51,0-.15c-.4.14-.53-.09-.67-.33s-.34-.52-.49-.78-.28-.53-.44-.84Zm36.32,2-.19,0c.36.4.06.58-.1.79a9.16,9.16,0,0,1-.78.86,7,7,0,0,1-.58.47l.72.6c0-.42,0-.42.2-.67s.55-.65.85-1a5.83,5.83,0,0,1,.58-.43ZM39.75,61.27c-.14.13-.28.23-.27.26.14.28.05.45-.18.67a.82.82,0,0,0,.11,1.06c.2.18.32.15.73-.14Zm-6.86,1.36c0,.39,0,.63,0,.87,0,0,.1.14.15.14s.16-.09.16-.15c0-.21,0-.43,0-.65s-.07-.46-.25-.43c-.36,0-.71-.23-1.1,0,0,.17,0,.35,0,.53s0,.38-.06.57c.27.08.31,0,.34-.24s-.1-.48.21-.67a6.41,6.41,0,0,0,0,.77c0,.09.14.16.21.24a.78.78,0,0,0,.07-.25A.9.9,0,0,1,32.89,62.63Zm4.84.36c0-.38-.21-.68-.47-.67s-.45.34-.42.72.24.61.49.61S37.74,63.37,37.73,63Zm-2.5-1.17v1.87l.33,0-.06-.82.46.08,0-.44-.37.07c-.05-.51-.05-.51.51-.42.07-.17,0-.29-.17-.3Zm-3.57,1.1h0a3.09,3.09,0,0,0,0-.43.28.28,0,0,0-.33-.28c-.18,0-.33.16-.26.34s0,.28-.1.43c-.16.34,0,.47.35.53s.33-.07.34-.28S31.66,63,31.66,62.92Zm9.41,0c-.1-.32-.18-.64-.3-.94a.26.26,0,0,0-.4-.14c-.16.08-.27.24-.12.39s.07.19.06.31c-.08.56,0,.65.59.48A.94.94,0,0,0,41.07,63Zm-4.52-1.27c-.13.1-.28.17-.28.23,0,.5,0,1,.08,1.51,0,.14,0,.26.21.22a.32.32,0,0,0,.16-.2C36.67,62.88,36.61,62.32,36.55,61.69Zm2,.56h-.34c-.4.06-.39.06-.32.44,0,.2,0,.41,0,.61s.05.25.21.23.2-.13.14-.26A.85.85,0,0,1,38.55,62.25Zm-4.73,1.39c0-.34,0-.64,0-.94,0-.13,0-.27-.19-.24s-.15.13-.16.21a5.25,5.25,0,0,0-.06.79C33.46,63.68,33.62,63.7,33.82,63.64Zm-3.4-.73a1.63,1.63,0,0,0-.06.34s.1.12.16.14.14,0,.14-.07c.06-.32.1-.63.13-1,0,0-.1-.17-.12-.16s-.19.08-.21.14S30.44,62.67,30.42,62.91Zm8.63.4c0-.37-.08-.67-.14-1,0-.05-.13-.1-.21-.12s-.11.08-.1.12c0,.32.06.64.12.95,0,.05.15.11.23.11S39,63.31,39.05,63.31Z" transform="translate(-0.47 -0.96)" style="fill:#fff"/><path d="M137.86,15.79l2.24,5.68h-4.48Z" transform="translate(-0.47 -0.96)" style="fill:#fff"/><path d="M212.18,21.66c0,.94,0,1.92,0,2.91a2.54,2.54,0,0,1-2.33,2.31,1,1,0,0,1-1.19-.8,4.6,4.6,0,0,1,.07-2.77,1.75,1.75,0,0,1,1.51-1.23c.3,0,.59-.07.88-.13S211.81,21.76,212.18,21.66Z" transform="translate(-0.47 -0.96)" style="fill:#fff"/><path d="M166.63,49.27c0,.93,0,1.87,0,2.81a2.56,2.56,0,0,1-2.25,2.4,1,1,0,0,1-1.29-.84,4.64,4.64,0,0,1,.07-2.71,1.77,1.77,0,0,1,1.51-1.24c.29,0,.59-.07.88-.13S166.25,49.37,166.63,49.27Z" transform="translate(-0.47 -0.96)" style="fill:#fff"/><path d="M271.12,49.5h-4.19a2.3,2.3,0,0,1,0-.94,6.38,6.38,0,0,1,.39-2.07,2,2,0,0,1,1.83-1.33,1.32,1.32,0,0,1,1.4.78,5.34,5.34,0,0,1,.38,1.17,13.45,13.45,0,0,1,.22,1.55A7.75,7.75,0,0,1,271.12,49.5Z" transform="translate(-0.47 -0.96)" style="fill:#fff"/><path d="M117.49,21.88h-4.22a7.35,7.35,0,0,1,.39-3,1.94,1.94,0,0,1,1.67-1.32,1.37,1.37,0,0,1,1.58.81,5.34,5.34,0,0,1,.38,1.17,14.81,14.81,0,0,1,.2,1.49C117.51,21.31,117.49,21.58,117.49,21.88Z" transform="translate(-0.47 -0.96)" style="fill:#fff"/><path d="M170.27,21.89a7.32,7.32,0,0,1,.39-3,2,2,0,0,1,1.68-1.33,1.38,1.38,0,0,1,1.58.81,5.31,5.31,0,0,1,.37,1.17,14.81,14.81,0,0,1,.2,1.49,7.9,7.9,0,0,1,0,.85Z" transform="translate(-0.47 -0.96)" style="fill:#fff"/><path d="M100.91,49.49h-4.2a6.9,6.9,0,0,1,.42-3.1,1.93,1.93,0,0,1,1.69-1.22,1.35,1.35,0,0,1,1.52.8,4.85,4.85,0,0,1,.38,1.17A8.69,8.69,0,0,1,100.91,49.49Z" transform="translate(-0.47 -0.96)" style="fill:#fff"/><path d="M34.55,59.9a25.29,25.29,0,0,1-18.42-7.76A25.2,25.2,0,0,1,8.7,33.78,25.85,25.85,0,0,1,34.63,8.05,25.16,25.16,0,0,1,53,15.77,25,25,0,0,1,60.48,34a25.4,25.4,0,0,1-7.82,18.53A26,26,0,0,1,34.55,59.9ZM59.78,34.26A25.12,25.12,0,0,0,52.9,16.69,24.41,24.41,0,0,0,34.59,8.76a24.21,24.21,0,0,0-17.28,6.86,24.53,24.53,0,0,0-7.91,18,24.46,24.46,0,0,0,7.37,18.12,24.27,24.27,0,0,0,17.79,7.41,24.37,24.37,0,0,0,17.81-7.39A24.93,24.93,0,0,0,59.78,34.26Z" transform="translate(-0.47 -0.96)"/><path d="M11.34,19l-.65,1.19a.65.65,0,0,1-.54.35,3.26,3.26,0,0,0-1.21.36c.39.22.67.54,1.15.3a3.92,3.92,0,0,1-.43,1.08.77.77,0,0,0-.47-.6c-.44-.18-.87-.38-1.29-.59-.2-.1-.34-.06-.56.23a4.45,4.45,0,0,1,.83-1.88.63.63,0,0,1,.72-.24.59.59,0,0,1,.35.65c0,.08,0,.16,0,.3.38-.07.75-.1,1.09-.2s.58-.46.33-.9l-1-1.7c-.08-.14-.14-.28-.21-.42.2-.18.38-.1.55-.07l1.75.35.63.07c0,.3-.28.49-.44.78-.22-.22-.41-.5-.76-.32-.16.08-.53.71-.47.82S11,19,11.34,19ZM8.75,20.85a1.68,1.68,0,0,0,.17-.51.57.57,0,0,0-.15-.42.56.56,0,0,0-.44-.09.46.46,0,0,0-.34.45c0,.2.11.29.27.35Z" transform="translate(-0.47 -0.96)"/><path d="M42.65,5.07l.91.28a.68.68,0,0,0-.51.55c-.12.42-.24.83-.37,1.24-.06.19-.13.37-.24.66-.5-.74-.75-1.51-1.22-2.2a3.71,3.71,0,0,0-.38,1.3c0,.11.08.25.15.43l-.72-.13a2.79,2.79,0,0,0,.27-.55c.12-.42.2-.84.29-1.26s0-.61-.46-.65a2.91,2.91,0,0,0-.31,0c-.12.66-.25,1.31-.35,2,0,.09.09.2.18.38L38.82,7c.49-.25.47-.63.47-1a1.76,1.76,0,0,0-1.16-.17c0,.37-.19.72.2,1.1l-1.12-.07a2.15,2.15,0,0,0,.33-.41A2,2,0,0,0,37.59,6c0-.4.09-.81.11-1.22a1.49,1.49,0,0,0-.12-.46,1.47,1.47,0,0,1,1.08.15c-.62.15-.41.6-.44,1l1.14.18c0-.41.43-.81-.1-1.21.57.1,1.13.21,1.7.29a.73.73,0,0,1,.58.41l.93,1.71c.12-.41.23-.78.33-1.15S42.86,5.42,42.65,5.07Z" transform="translate(-0.47 -0.96)"/><path d="M13,12.62a1.76,1.76,0,0,0,.23.59c.38.39.8.76,1.22,1.12.08.08.25.06.44.1l-.76.87c0-.85-.61-1-1.08-1.35l.72,1.78c-.76,0-1.42-.27-2.11-.37a4.55,4.55,0,0,0,1.16,1c.1,0,.21-.05.44-.11l-.58.75a1.64,1.64,0,0,0-.27-.51c-.41-.36-.86-.69-1.29-1-.19-.16-.33,0-.54,0,.11-.18.23-.36.35-.53a.42.42,0,0,1,.53-.17c.43.12.88.19,1.32.28a2.64,2.64,0,0,0,.4,0l-.74-1.86Z" transform="translate(-0.47 -0.96)"/><path d="M4.93,31.29A1,1,0,0,0,5,31c-.09-.63.28-1,.73-1.31S6.53,29,7,28.61a11.34,11.34,0,0,0-1.27-.25c-.13,0-.28.13-.47.22l.17-1.08c.1.39.35.5.72.56.6.08,1.19.24,1.88.39a25.77,25.77,0,0,0-2.23,2c.44.06.84.11,1.23.18s.42-.08.58-.4v1a4.93,4.93,0,0,0-.76-.32c-.38-.08-.77-.09-1.16-.14a.45.45,0,0,0-.47.23L5,31.32Z" transform="translate(-0.47 -0.96)"/><path d="M53.89,14.15l-.57-.53a2.08,2.08,0,0,0,.49,0,1.22,1.22,0,0,0,.32-.28c.36-.37.72-.73,1.07-1.1L55,11.72s.09-.05.11,0a1.09,1.09,0,0,1,.57,1.18c-.06.41-.08.82-.11,1.22a3.64,3.64,0,0,0,0,.43c.42-.42,1-.59,1.05-1.33l.63.75c-.42,0-.43,0-.74.2s-.57.52-.86.78-.38.3-.61.48c-.24-.47,0-.87,0-1.28a12.5,12.5,0,0,1,.06-1.33A6.67,6.67,0,0,0,53.89,14.15Z" transform="translate(-0.47 -0.96)"/><path d="M17.88,11.91l-.81.6a5.71,5.71,0,0,0-1.26-1.72c-.1-.12-.31-.14-.5-.21a5.8,5.8,0,0,1,1.27-.94.83.83,0,0,1,.41-.1.55.55,0,0,1,.6.76,2.38,2.38,0,0,1-.18.36l1.51.44a.59.59,0,0,1-.73.31c-.24-.05-.47-.14-.71-.19s-.35-.05-.61-.09C17.09,11.58,17.26,11.93,17.88,11.91ZM16.68,11c.23-.19.51-.33.42-.68a.56.56,0,0,0-.3-.34c-.28-.1-.49.06-.66.31Z" transform="translate(-0.47 -0.96)"/><path d="M63.89,31a.63.63,0,0,0-.2,0c-.22,0-.44.08-.67.13a1.57,1.57,0,0,0,.35,1.18c-.26.23-.54.08-.84.09a1.08,1.08,0,0,0,.14-1.3l-.85.13c-.09.83-.09.83.51,1.74-.62,0-.69-.09-.72-.61s-.08-.85-.1-1.28a3.6,3.6,0,0,1,0-.8c.1.19.21.34.46.3l1.46-.17a.53.53,0,0,0,.51-.49c0,.31.11.61.14.93,0,.5.09,1,.11,1.53s-.13.47-.63.29C64.15,32.12,64,31.53,63.89,31Z" transform="translate(-0.47 -0.96)"/><path d="M25.61,6.22c.24.52.22,1.14.72,1.58L25.74,8a6.47,6.47,0,0,0-.53-1.94c-.06-.17-.31-.28-.5-.43a.82.82,0,0,1,1,0c.5.34,1,.65,1.64,1C27.19,6,27.24,5.45,26.78,5l.8-.22c-.1.17-.18.25-.19.34a.89.89,0,0,0,0,.36c.12.5.25,1,.37,1.49a4.16,4.16,0,0,1,.05.49L25.71,6.15Z" transform="translate(-0.47 -0.96)"/><path d="M7.05,21.73l.57.25c-.58.36-.58.36-.84,1.28l.79.31c.18-.37.41-.7,0-1.09.4,0,.4,0,.87.33-.49.08-.52.45-.63.86l.84.31c.47-.75.47-.75.18-1.57.28,0,.37.22.58.36L8.73,24.9a.73.73,0,0,0-.52-.5c-.4-.14-.82-.26-1.21-.44a.57.57,0,0,0-.76.15Z" transform="translate(-0.47 -0.96)"/><path d="M63.11,25.15a1.76,1.76,0,0,1,.23,1.16c-.18-.32-.37-.39-.66-.28a9.44,9.44,0,0,1-1,.25.92.92,0,0,1-1.15-.56c0-.1-.07-.2-.1-.29-.28-.9-.1-1.28.77-1.64a4.43,4.43,0,0,1,.69-.26.68.68,0,0,0,.55-.6l.39,1.19a.81.81,0,0,0-.78,0c-.33.15-.7.24-1,.39a.64.64,0,0,0-.41.85c.1.42.37.69.77.63a7.18,7.18,0,0,0,1.36-.36C62.92,25.55,63,25.33,63.11,25.15Z" transform="translate(-0.47 -0.96)"/><path d="M15.31,11.45A1.08,1.08,0,0,0,14,12c.09.28.36.41.53.62.49-.26.49-.26.56-.9l.63.76c-.55-.06-.55-.06-1,.39l.7.63a.93.93,0,0,0,.59-1.2c.48.41.51.59.18.91l-1.12,1a4.17,4.17,0,0,0-.37-.65c-.3-.33-.65-.63-.94-1a.61.61,0,0,0-.63-.19l.53-.53.74-.65C14.84,10.93,14.83,10.93,15.31,11.45Z" transform="translate(-0.47 -0.96)"/><path d="M48.38,10c.09-.05.22-.08.26-.15.19-.33.14-.46-.17-.65l-.17-.09L48,9c-.44.27-.44.27-.44.68l-.69-.31,2.53-1.78c.21,1-.33,2-.14,3A1.86,1.86,0,0,1,48.38,10Z" transform="translate(-0.47 -0.96)"/><path d="M25.33,8.1l-.67.24c-.22-.22-.38-.53-.61-.59s-.53.14-.79.22c-.11.5-.11.5.23.81l-.7.32c.24-1,0-2,.29-3a1.35,1.35,0,0,1,.32.18c.43.43.85.88,1.29,1.31A5.47,5.47,0,0,0,25.33,8.1Z" transform="translate(-0.47 -0.96)"/><path d="M32.65,5.54l.15.87A1,1,0,0,0,34.08,6c0,.61-.08.73-.52.74s-1,0-1.64,0A.59.59,0,0,0,32.25,6c0-.4-.09-.81-.11-1.22s-.08-.49-.42-.55A.91.91,0,0,1,32,4.14c.53,0,1.07,0,1.6,0,.38,0,.39.05.25.56A.93.93,0,0,0,33,4.27c-.23,0-.34.14-.32.37l0,.55a.68.68,0,0,0,.91-.4c0,.27.07.4.08.53s0,.23,0,.45A.93.93,0,0,0,32.65,5.54Z" transform="translate(-0.47 -0.96)"/><path d="M58.63,15.61c-.22.16-.36.4-.73.49.08-.18.12-.28.17-.37a.64.64,0,0,0,0-.7.31.31,0,0,0-.42-.15.49.49,0,0,0-.22.39,4.91,4.91,0,0,0,.14.84.86.86,0,0,1-.37.91.8.8,0,0,1-.94-.23,4,4,0,0,1-.29-.39L55.63,16a1.11,1.11,0,0,1,.68-.46l-.13.3a.68.68,0,0,0,.35.92c.21.09.39,0,.4-.21a6,6,0,0,0-.06-.73,3,3,0,0,1,0-.67.71.71,0,0,1,.6-.62.68.68,0,0,1,.74.34C58.33,15.08,58.46,15.32,58.63,15.61Z" transform="translate(-0.47 -0.96)"/><path d="M62.82,26.77l.32-.15c.22-.11.36,0,.41.2s.13.64.18,1,.11.81.17,1.21,0,.53-.56.45a.88.88,0,0,0,.18-1.1c-.58.11-1.2.2-1.8.35-.13,0-.22.24-.34.38-.23-.34-.12-.79-.25-1.2.19.17.33.3.61.21a9.69,9.69,0,0,1,1.32-.29c.15,0,.37,0,.39-.21a.66.66,0,0,0-.27-.64C63.1,26.89,63,26.86,62.82,26.77Z" transform="translate(-0.47 -0.96)"/><path d="M46.88,8.54a1.07,1.07,0,0,1-1.25.31,1.2,1.2,0,0,1-.89-.92,1.38,1.38,0,0,1,.6-1.5,1.36,1.36,0,0,1,1.51,0c.2.11.42.21.68.34l-.28.91a4.94,4.94,0,0,1-.17-.5.75.75,0,0,0-1.24-.49,1.53,1.53,0,0,0-.58,1.24.84.84,0,0,0,.93.77C46.38,8.66,46.57,8.6,46.88,8.54Z" transform="translate(-0.47 -0.96)"/><path d="M6.74,24.81c-.48,0-.59.34-.66.76.76.14,1.45.62,2.34.43l-.26,1.25A2.22,2.22,0,0,0,8,26.93c-.08-.1-.16-.26-.27-.29-.56-.17-1.13-.31-1.69-.46-.31.51-.33.45,0,1.06-.5.07-.64,0-.54-.45.15-.65.32-1.31.48-2a2.25,2.25,0,0,1,.17-.36l.5.21Z" transform="translate(-0.47 -0.96)"/><path d="M22.21,8.62a1.23,1.23,0,0,1-1.13,1.29A1.45,1.45,0,0,1,19.63,9,1.29,1.29,0,0,1,20,7.44a2.3,2.3,0,0,1,.5-.24c.2-.08.41-.14.67-.23.06.09.15.19.23.31a.8.8,0,0,1,.14.42l-.45-.25a.66.66,0,0,0-.8.09.72.72,0,0,0-.3.69,1.59,1.59,0,0,0,.49,1A.84.84,0,0,0,22,9Z" transform="translate(-0.47 -0.96)"/><path d="M36.87,5.09c-.13-.24-.18-.37-.25-.49a.79.79,0,0,0-1.39.13,1.86,1.86,0,0,0-.06,1.14.87.87,0,0,0,1.2.52c.16-.08.31-.19.59-.36a1.83,1.83,0,0,1-.22.36,1.42,1.42,0,0,1-1.48.25,1.31,1.31,0,0,1-.76-1.29,1.25,1.25,0,0,1,.85-1.22,1.16,1.16,0,0,1,.84-.06,2.84,2.84,0,0,0,.66.07C37,4.51,37,4.51,36.87,5.09Z" transform="translate(-0.47 -0.96)"/><path d="M59.3,22A2.73,2.73,0,0,0,60,21.9c.52-.23,1-.49,1.53-.73.08-.48-.28-.58-.66-.74l.5-.31a16.49,16.49,0,0,1,1,2.43l-.65.28c.15-.42.43-.74,0-1.07a8.81,8.81,0,0,0-1.79.79c-.11.05-.15.22-.25.39Z" transform="translate(-0.47 -0.96)"/><path d="M57.84,19.11l-.58-1c.42.1.42.1.7-.09l1.4-1c-.27-.44-.27-.44-.74-.56,0,0,0-.08,0-.1l.4-.26a14.09,14.09,0,0,1,1.33,2.1l-.47.29s-.09-.1-.08-.11c.19-.31.09-.58-.16-.87-.53.34-1.07.67-1.58,1C58,18.71,57.93,18.92,57.84,19.11Z" transform="translate(-0.47 -0.96)"/><path d="M31.41,4.19v.69c-.22-.32-.46-.48-.78-.33,0,0-.06.06-.06.09.07.59.13,1.18.23,1.76a1.69,1.69,0,0,0,.27.44L30.15,7a2.57,2.57,0,0,0,.1-.6c0-.45-.13-.89-.19-1.33,0-.16,0-.35-.2-.41a.41.41,0,0,0-.47.2l-.12.22c-.31-.39-.28-.53.13-.59Z" transform="translate(-0.47 -0.96)"/><path d="M4.92,33V31.6a.74.74,0,0,0,.74.48c.41,0,.82,0,1.23,0a.58.58,0,0,0,.59-.29v1.31a.59.59,0,0,0-.66-.4c-.43,0-.86,0-1.29,0A.66.66,0,0,0,4.92,33Z" transform="translate(-0.47 -0.96)"/><path d="M50.84,8.55a2.13,2.13,0,0,1,.9.55A4.31,4.31,0,0,0,50.32,11a1.26,1.26,0,0,0,1.32.44l-.48.42-.81-.53c-.26-.16-.51-.33-.64-.42l.39-.6c.23-.36.47-.72.71-1.08S51,8.93,50.84,8.55Z" transform="translate(-0.47 -0.96)"/><path d="M28.91,61.18c.12.06.26.1.29.17a3.27,3.27,0,0,1,.13.54c0,.21.08.42.15.75l.49-.92c.1-.19.22-.35.5-.22a3.89,3.89,0,0,0-.3,1.77h-.46l.2-.85-.07,0-.23.35-.26.39A2.76,2.76,0,0,1,29,62.05c0,.27-.1.54-.14.81s-.13.23-.34.14A4.23,4.23,0,0,0,28.91,61.18Z" transform="translate(-0.47 -0.96)"/><path d="M61.22,19.81c-.41-.17-.42-.17-.75,0l-1.07.59c-.36.2-.37.2-.51.67l-.51-1c.22,0,.37.12.56,0,.4-.25.81-.47,1.23-.69a.71.71,0,0,0,.44-.65Z" transform="translate(-0.47 -0.96)"/><path d="M44,5.42l1.15.39a2,2,0,0,0-.42.15.74.74,0,0,0-.17.25c-.16.44-.33.88-.48,1.33-.09.26-.07.28.16.64a3.51,3.51,0,0,1-1-.27c.56-.53.55-1.3.81-1.94C44.05,5.84,44,5.67,44,5.42Z" transform="translate(-0.47 -0.96)"/><path d="M17.8,8.79l.79-.48c.16.31.29.58.44.84s.34.51.49.78.27.47.67.33l0,.15-.81.51a2.38,2.38,0,0,0-.17-.55c-.25-.43-.53-.83-.8-1.24S18.19,8.85,17.8,8.79Z" transform="translate(-0.47 -0.96)"/><path d="M54.12,10.77l.7.64a5.83,5.83,0,0,0-.58.43c-.3.31-.57.64-.85,1s-.22.25-.2.67l-.72-.6a7,7,0,0,0,.58-.47,9.16,9.16,0,0,0,.78-.86c.16-.21.46-.39.1-.79Z" transform="translate(-0.47 -0.96)"/><path d="M39.75,61.27l.39,1.85c-.41.29-.53.32-.73.14a.82.82,0,0,1-.11-1.06c.23-.22.32-.39.18-.67C39.47,61.5,39.61,61.4,39.75,61.27Z" transform="translate(-0.47 -0.96)"/><path d="M32.89,62.63a.9.9,0,0,0-.21.74.78.78,0,0,1-.07.25c-.07-.08-.2-.15-.21-.24a6.41,6.41,0,0,1,0-.77c-.31.19-.19.46-.21.67s-.07.32-.34.24c0-.19.05-.38.06-.57s0-.36,0-.53c.39-.24.74,0,1.1,0,.18,0,.26.23.25.43s0,.44,0,.65c0,.06-.1.14-.16.15s-.15-.09-.15-.14C32.88,63.26,32.89,63,32.89,62.63Z" transform="translate(-0.47 -0.96)"/><path d="M37.73,63c0,.38-.17.66-.4.66s-.46-.26-.49-.61.16-.7.42-.72S37.73,62.61,37.73,63Z" transform="translate(-0.47 -0.96)"/><path d="M35.23,61.82h.67c.18,0,.24.13.17.3-.56-.09-.56-.09-.51.42l.37-.07,0,.44-.46-.08.06.82-.33,0V61.82Z" transform="translate(-0.47 -0.96)"/><path d="M31.66,62.92c0,.1,0,.21,0,.31s-.08.32-.34.28-.51-.19-.35-.53c.06-.15.16-.24.1-.43s.08-.32.26-.34a.28.28,0,0,1,.33.28,3.09,3.09,0,0,1,0,.43Z" transform="translate(-0.47 -0.96)"/><path d="M41.07,63a.94.94,0,0,1-.17.1c-.56.17-.67.08-.59-.48,0-.12,0-.2-.06-.31s0-.31.12-.39a.26.26,0,0,1,.4.14C40.89,62.32,41,62.64,41.07,63Z" transform="translate(-0.47 -0.96)"/><path d="M36.55,61.69c.06.63.12,1.19.17,1.76a.32.32,0,0,1-.16.2c-.16,0-.2-.08-.21-.22,0-.5-.07-1-.08-1.51C36.27,61.86,36.42,61.79,36.55,61.69Z" transform="translate(-0.47 -0.96)"/><path d="M38.55,62.25a.85.85,0,0,0-.26,1c.06.13,0,.25-.14.26s-.2-.09-.21-.23,0-.41,0-.61c-.07-.38-.08-.38.32-.44Z" transform="translate(-0.47 -0.96)"/><path d="M33.82,63.64c-.2.06-.36,0-.36-.18a5.25,5.25,0,0,1,.06-.79c0-.08.09-.2.16-.21s.19.11.19.24C33.86,63,33.84,63.3,33.82,63.64Z" transform="translate(-0.47 -0.96)"/><path d="M30.42,62.91c0-.24,0-.4,0-.56s.13-.12.21-.14.13.11.12.16c0,.32-.07.63-.13,1,0,0-.1.09-.14.07s-.16-.09-.16-.14A1.63,1.63,0,0,1,30.42,62.91Z" transform="translate(-0.47 -0.96)"/><path d="M39.05,63.31s-.06.09-.1.09-.22-.06-.23-.11c-.06-.31-.09-.63-.12-.95,0,0,.08-.13.1-.12s.2.07.21.12C39,62.64,39,62.94,39.05,63.31Z" transform="translate(-0.47 -0.96)"/><path d="M59.78,34.26a24.93,24.93,0,0,1-7.41,17.53,24.37,24.37,0,0,1-17.81,7.39,24.27,24.27,0,0,1-17.79-7.41A24.46,24.46,0,0,1,9.4,33.65a24.53,24.53,0,0,1,7.91-18A24.21,24.21,0,0,1,34.59,8.76,24.41,24.41,0,0,1,52.9,16.69,25.12,25.12,0,0,1,59.78,34.26ZM34.56,9.15A24.76,24.76,0,0,0,9.8,34,24.25,24.25,0,0,0,17,51.48a24,24,0,0,0,17.56,7.34A24,24,0,0,0,52,51.6a24.06,24.06,0,0,0,7.35-17.69A24.75,24.75,0,0,0,34.56,9.15Z" transform="translate(-0.47 -0.96)" style="fill:#fff"/><path d="M8.75,20.85l-.49-.22c-.16-.06-.29-.15-.27-.35a.46.46,0,0,1,.34-.45.56.56,0,0,1,.44.09.57.57,0,0,1,.15.42A1.68,1.68,0,0,1,8.75,20.85Z" transform="translate(-0.47 -0.96)" style="fill:#fff"/><path d="M16.68,11l-.54-.71c.17-.25.38-.41.66-.31a.56.56,0,0,1,.3.34C17.19,10.67,16.91,10.81,16.68,11Z" transform="translate(-0.47 -0.96)" style="fill:#fff"/><path d="M34.56,9.15A24.75,24.75,0,0,1,59.39,33.91,24.06,24.06,0,0,1,52,51.6a24,24,0,0,1-17.49,7.22A24,24,0,0,1,17,51.48,24.25,24.25,0,0,1,9.8,34,24.76,24.76,0,0,1,34.56,9.15ZM59,34A24.41,24.41,0,0,0,34.57,9.53a23.81,23.81,0,0,0-17.22,7.11A24.45,24.45,0,1,0,59,34Z" transform="translate(-0.47 -0.96)"/><path d="M59,34A24.46,24.46,0,1,1,17.35,16.64,23.81,23.81,0,0,1,34.57,9.53,24.41,24.41,0,0,1,59,34ZM32.2,20.05l-1.75.66a1.41,1.41,0,0,0,.18.23c.27-.14.73.14.86-.36,0,0,.11,0,.16-.07l.61-.4c.38-.11.77-.2,1.14-.34a.61.61,0,0,0,.41-.46,2.14,2.14,0,0,0-.38.12C33,19.66,32.54,19.7,32.2,20.05ZM21.43,26.92l-.07.11,5,2.55,5,2.57a.59.59,0,0,1-.42,0l-8.82-3.6a1.63,1.63,0,0,0-.86-.2l1.19.61,1.15.59,1.11.55,1.15.58,1.1.56,1.14.61,1.1.55c.38.2.78.37,1.15.6s.71.28.95.62l-9.92-4-.05.11L31.72,35c-3.46-1.33-6.89-2.74-10.33-4.11l-.05.12,9.9,5.08a.26.26,0,0,1-.26,0l-2.57-1-6.08-2.51a1.14,1.14,0,0,0-.84-.16L31.6,37.59a9.84,9.84,0,0,1-2.05-.74c-.67-.26-1.33-.54-2-.81l-2.05-.83c-.66-.27-1.32-.56-2-.81a8,8,0,0,0-2.05-.68l10.16,5.21a7.23,7.23,0,0,1-1.45-.47l-1.42-.59-1.42-.59L26,36.72l-1.42-.58c-.48-.19-.95-.4-1.43-.57a3.25,3.25,0,0,0-1.4-.38l9.67,5-.05.12-4.87-2a50.46,50.46,0,0,0-5-1.88l10,5.14A11.08,11.08,0,0,1,29.79,41l-1.64-.68-1.6-.65L24.9,39c-.55-.22-1.1-.47-1.65-.67a8.58,8.58,0,0,0-1.63-.59,5.28,5.28,0,0,0,.83.53l5.81,3,6,3a.64.64,0,0,0,.68,0q2-1.06,4-2.09l8.39-4.29c.17-.08.32-.18.49-.28-1.21.38-2.35.87-3.5,1.34l-3.43,1.37c-1.14.45-2.25.95-3.43,1.3l10.24-5.23,0-.12c-1.08.34-2.11.83-3.16,1.25s-2.15.9-3.24,1.33A22.32,22.32,0,0,1,38,40l9.76-5C44.3,36.23,41,37.68,37.55,39a1.3,1.3,0,0,1,.39-.27l4.65-2.39L47.25,34a4.34,4.34,0,0,0,.46-.3l-.16,0-9.33,3.83-.17.06h-.12l0,0,.15-.11,5.36-2.77c1.31-.68,2.64-1.34,4-2,.15-.07.29-.17.43-.25l-.07-.12c-1.66.69-3.31,1.38-5,2.06s-3.34,1.4-5.08,1.95q5-2.56,10-5.14a8.81,8.81,0,0,0-2.07.68c-.69.25-1.37.55-2,.83l-2.05.84-2,.84a9.93,9.93,0,0,1-2,.72l10.23-5.24-.07-.15c-3.25,1.36-6.51,2.68-9.83,3.9l10-5.13,0-.11c-3.37,1.29-6.67,2.77-10.08,4l9.93-5.08a5.14,5.14,0,0,0-1.68.52c-.55.2-1.1.45-1.65.67L42.57,29l-1.65.68c-.55.23-1.1.47-1.65.68a9.29,9.29,0,0,1-1.63.58c1.09-.62,2.21-1.18,3.32-1.75l3.28-1.69c1.1-.57,2.22-1.09,3.28-1.75a.62.62,0,0,0-.36,0l-1,.4L35,30.8a.94.94,0,0,1-.82,0c-1.52-.65-3.06-1.27-4.6-1.9l-7.85-3.22a1.55,1.55,0,0,0-.23-.05c3.42,1.89,6.87,3.68,10.33,5.47-1.74-.64-3.45-1.37-5.16-2.07Zm20-3.36s0-.08,0-.08a10.82,10.82,0,0,0-1.2-.44c-.39-.1-.65-.61-1.16-.34-.06,0-.18-.06-.28-.08-.7-.18-1.35-.51-2.06-.65a12.76,12.76,0,0,1-1.7-.51,1.27,1.27,0,0,0-.84,0c-.66.21-1.33.39-2,.59s-1.12.37-1.7.51c-.22.06-.49-.08-.7,0s-.41.33-.64.43-.67.16-1,.28a3.28,3.28,0,0,0-.62.37.22.22,0,0,0,0,.21.42.42,0,0,0,.25.05c.14,0,.19-.24.41-.15s.72.17,1.07.28.74.09,1,.41c.38-.15.71.09,1.06.15a1.69,1.69,0,0,1,.31.13,9.5,9.5,0,0,1-.2,1.19c-.15.47.24.75.31,1.14,0,0,.17.08.27.1s.21,0,.22,0c.18.38.48.27.78.23.07,0,.15.06.23.07l1,.16c.32.05.66-.11.95.13a.11.11,0,0,0,.11,0,3.84,3.84,0,0,1,1.53-.57,1.34,1.34,0,0,0,.88-.67.54.54,0,0,0,.06-.54,6.44,6.44,0,0,1-.2-1.23c.45-.31,1-.24,1.4-.42.22-.09.64.24.74.46a4.44,4.44,0,0,1,.17,1.81c0,.11,0,.26,0,.33a.88.88,0,0,0,.54.41,6.2,6.2,0,0,0,.18-.78,5.07,5.07,0,0,0,0-1.35c-.09-.45.18-.88-.09-1.32ZM15,39.32a1.13,1.13,0,0,1,.06-1,1.22,1.22,0,0,0,.11-1.1c-.29.15-.24.44-.35.65l-.18-.5H14.6v1.06l-.81-1.22a1.65,1.65,0,0,0,.49,1.29,1.33,1.33,0,0,1,.44,1l-1.08-1.24a1.78,1.78,0,0,0,.06.37,2.33,2.33,0,0,0,.86,1.1.63.63,0,0,1,.31.64c-.44-.29-.66-.79-1.3-1A3.93,3.93,0,0,0,14,40a9.63,9.63,0,0,0,.83.73c.18.14.36.25.28.54a5.69,5.69,0,0,0-1.22-1c.12.58.57.83.9,1.25-.36,0-.52-.38-.94-.29a5.83,5.83,0,0,0,.66.66c.32.22.67.39,1,.58.16.08.32.16.26.4a4.55,4.55,0,0,0-1.54-.77,3.9,3.9,0,0,0,1.17,1l-.83-.15a.84.84,0,0,0,.31.39,3.94,3.94,0,0,0,1.47.6.5.5,0,0,1,.44.37A4.34,4.34,0,0,0,15,44.08a.24.24,0,0,0,.13.13,3.07,3.07,0,0,0,1.57.48c.26,0,.48,0,.58.37a4,4,0,0,0-1.83-.19c.16.09.23.17.32.18.5.1,1,.21,1.51.27a.74.74,0,0,1,.65.3l-1.86-.09a.59.59,0,0,0,.4.28l1.53.12c.22,0,.45,0,.62.21a9.71,9.71,0,0,0-1.92.12c.1.08.14.13.19.14a4.11,4.11,0,0,0,1.64,0,.8.8,0,0,1,.74.13c.13.08.29.26.52.06l-.53-.44A4,4,0,0,0,19,43.8c-.07.15-.14.22-.14.29,0,.63.09,1.25.14,1.91-.2-.09-.34-.2-.32-.44l.06-.62a3.7,3.7,0,0,0-.22-1.59c-.4.74-.06,1.45-.11,2.16-.34-.19-.34-.19-.29-.43A3.37,3.37,0,0,0,18,43a4.51,4.51,0,0,0,0,2.16c-.39-.18-.34-.45-.31-.75.05-.53.07-1.06.07-1.59a1.6,1.6,0,0,0-.17-.45,7.1,7.1,0,0,0-.22,2.18.53.53,0,0,1-.27-.7,3.55,3.55,0,0,0,.09-2,4.71,4.71,0,0,0-.33,2.11c-.32-.35-.31-.35-.24-.64A9.44,9.44,0,0,0,16.85,42c0-.25.11-.54-.15-.75l-.2.34V40.32a8.34,8.34,0,0,0-.64,2,.5.5,0,0,1-.12-.59,9.65,9.65,0,0,0,.37-1.3.61.61,0,0,0-.15-.62l-.49,1.57a.93.93,0,0,1,0-.74,10.74,10.74,0,0,0,.28-1.25c0-.09,0-.28,0-.28-.31,0-.17-.24-.14-.4a.57.57,0,0,0-.07-.56c-.28.1-.26.35-.33.52S15.07,39.11,15,39.32Zm38.05.46a4,4,0,0,0,.31,1.83.67.67,0,0,1-.1.82c0-.22-.08-.41-.13-.6-.08-.38-.17-.76-.26-1.14a3.3,3.3,0,0,0-.26-.4v1.08h-.27a2.13,2.13,0,0,0-.05.66c.07.42.18.84.29,1.25,0,.21.07.39-.17.51-.05-.34-.1-.66-.14-1s0-.68-.34-1a4.63,4.63,0,0,0,.13,2c.11.39.1.39-.29.65a7.53,7.53,0,0,0-.1-2.16c-.35.37-.24.79-.34,1.25L51.23,43c-.25.09-.22.3-.22.48,0,.51,0,1,0,1.54a.49.49,0,0,1-.34.57c0-.38.08-.74.1-1.11s0-.72,0-1.16c-.12.1-.19.13-.21.17a3.87,3.87,0,0,0-.12,1.88c.07.39.07.39-.38.64,0-.38.07-.74.13-1.1a1.41,1.41,0,0,0-.06-1.1,3.69,3.69,0,0,0-.26,2.34l-.55.42a.55.55,0,0,0,.48,0,.88.88,0,0,1,.91-.13,1.5,1.5,0,0,0,.73.08,2.07,2.07,0,0,0,1-.22c-.68-.21-1.28-.05-1.86-.22.81-.2,1.71.05,2.46-.52l-1.86.08c.31-.27.31-.28.53-.29a2.68,2.68,0,0,0,.49,0,2.89,2.89,0,0,0,1.42-.45,4.22,4.22,0,0,0-1.81.2.53.53,0,0,1,.6-.37,2.94,2.94,0,0,0,1.41-.37c.11,0,.19-.16.28-.24L54.05,44l-1.65.44c.05-.24.19-.29.38-.34a3.93,3.93,0,0,0,1.93-.94,1.34,1.34,0,0,0-.92.18,8.93,8.93,0,0,0-.84.37c.22-.41.66-.4,1-.6a2.38,2.38,0,0,0,.88-.82,4.72,4.72,0,0,0-1.53.78.52.52,0,0,1,.42-.49,3.39,3.39,0,0,0,1.35-.95,1.43,1.43,0,0,0,.15-.27l-.09-.09-1.49,1c.19-.41.19-.42.41-.54a4.17,4.17,0,0,0,1.19-1.06,1,1,0,0,0,.1-.27l-.46.06a2.55,2.55,0,0,0,.67-1.13,4.38,4.38,0,0,0-1.26,1.1.8.8,0,0,1,.45-.81,2.44,2.44,0,0,0,.85-1.25c-.53.21-.68.7-1,1a.67.67,0,0,1,.17-.66,9.85,9.85,0,0,0,.7-1.07,1.5,1.5,0,0,0,0-.46c-.21.28-.33.44-.44.61s-.2.35-.3.53l-.08,0V36.88h-.1v1.2h-.07l-.38-1a1.58,1.58,0,0,0,.11,1.3.84.84,0,0,1,0,1l-.45-1.31-.13,0a5.81,5.81,0,0,0,0,.59,5.27,5.27,0,0,0,.11.68L53.41,39a2.86,2.86,0,0,0,.28,1.66c.16.41.17.4,0,.85C53.42,41,53.53,40.29,53.06,39.78ZM34.9,55.06a14.46,14.46,0,0,0,3.19-.29A21.12,21.12,0,0,0,43.68,53c.63-.3,1.23-.65,1.84-1a.62.62,0,0,0,.34-.91c-.28-.74-.53-1.5-.8-2.26a1.07,1.07,0,0,0-.1-.22.35.35,0,0,0-.52-.16,4.81,4.81,0,0,0-.41.27,17.71,17.71,0,0,1-2.64,1.43,17.08,17.08,0,0,1-5.52,1.32,17.65,17.65,0,0,1-4.23-.21A15.43,15.43,0,0,1,27.43,50c-.9-.44-1.75-1-2.63-1.46-.34-.2-.46-.17-.62.17-.07.15-.12.3-.18.46L23.31,51c-.19.49-.16.64.28.91s1.18.67,1.79,1A20.89,20.89,0,0,0,34.9,55.06Zm14.76-4.65c0-.11-.07-.25-.12-.39-.3-.86-.61-1.73-.92-2.6-.13-.38-.28-.76-.42-1.15-.05-.16-.08-.33-.29-.34s-.19.17-.25.29a1.13,1.13,0,0,1-.79.64,3.74,3.74,0,0,1-1.63.08,1.08,1.08,0,0,0-.31,0c-.36,0-.68.17-.65.34s.32.36.56.39a.5.5,0,0,1,.45.35c.06.18.13.35.19.52l1,2.76c.19.51.38.56.82.28a1.76,1.76,0,0,1,.55-.22c.42-.09.84-.13,1.26-.23A.76.76,0,0,0,49.66,50.41ZM24.89,47.26c-.06-.08-.11-.19-.19-.21a1.51,1.51,0,0,0-.65-.11,5,5,0,0,1-1.34,0,1.32,1.32,0,0,1-1.25-.82c0-.08-.14-.18-.21-.18a.31.31,0,0,0-.21.18c-.16.4-.3.81-.45,1.21-.33.92-.68,1.84-1,2.76-.2.56,0,.89.56,1.06.19,0,.4,0,.6.1a2.86,2.86,0,0,1,1.16.33c.41.3.59.22.77-.26.34-.94.68-1.89,1-2.83.15-.43.25-.88.84-.89.09,0,.18-.09.26-.15A1.18,1.18,0,0,0,24.89,47.26Zm10.9-17.92a5.65,5.65,0,0,0,2.2-.88A2.75,2.75,0,0,0,35.79,29.34Zm-12.3-5.6-1,.39-.82.4.5.25a5.42,5.42,0,0,0,.66-.57C23,24,23.47,24.23,23.49,23.74ZM37.27,20.1c-.47-.2-.85-.37-1.23-.51-.07,0-.18,0-.31,0a6.39,6.39,0,0,1,.63.48C36.61,20.34,36.86,20.32,37.27,20.1ZM23.51,25.24a3,3,0,0,0,1.64.63C24.72,25.27,24.08,25.35,23.51,25.24Zm3.37,1.55.11-.11c-.11-.11-.2-.28-.33-.31-.39-.11-.76-.39-1.3-.24Z" transform="translate(-0.47 -0.96)" style="fill:#fff"/><path d="M21.43,26.92,26.67,29c1.71.7,3.42,1.43,5.16,2.07-3.46-1.79-6.91-3.58-10.33-5.47a1.55,1.55,0,0,1,.23.05l7.85,3.22c1.54.63,3.08,1.25,4.6,1.9a.94.94,0,0,0,.82,0l11.2-4.61,1-.4a.62.62,0,0,1,.36,0c-1.06.66-2.18,1.18-3.28,1.75L41,29.2c-1.11.57-2.23,1.13-3.32,1.75a9.29,9.29,0,0,0,1.63-.58c.55-.21,1.1-.45,1.65-.68L42.57,29l1.65-.66c.55-.22,1.1-.47,1.65-.67a5.14,5.14,0,0,1,1.68-.52l-9.93,5.08c3.41-1.2,6.71-2.68,10.08-4l0,.11-10,5.13c3.32-1.22,6.58-2.54,9.83-3.9l.07.15L37.43,35a9.93,9.93,0,0,0,2-.72l2-.84,2.05-.84c.68-.28,1.36-.58,2-.83a8.81,8.81,0,0,1,2.07-.68q-5,2.58-10,5.14c1.74-.55,3.4-1.27,5.08-1.95s3.32-1.37,5-2.06l.07.12c-.14.08-.28.18-.43.25-1.31.67-2.64,1.33-4,2L38,37.37l-.15.11,0,0h.12l.17-.06,9.33-3.83.16,0a4.34,4.34,0,0,1-.46.3l-4.66,2.39-4.65,2.39a1.3,1.3,0,0,0-.39.27c3.4-1.32,6.75-2.77,10.21-4L38,40a22.32,22.32,0,0,0,3.21-1.16c1.09-.43,2.16-.89,3.24-1.33s2.08-.91,3.16-1.25l0,.12L37.42,41.65c1.18-.35,2.29-.85,3.43-1.3L44.28,39c1.15-.47,2.29-1,3.5-1.34-.17.1-.32.2-.49.28L38.9,42.21q-2,1-4,2.09a.64.64,0,0,1-.68,0l-6-3-5.81-3a5.28,5.28,0,0,1-.83-.53,8.58,8.58,0,0,1,1.63.59c.55.2,1.1.45,1.65.67l1.65.67,1.6.65,1.64.68a11.08,11.08,0,0,0,1.68.57l-10-5.14a50.46,50.46,0,0,1,5,1.88l4.87,2,.05-.12-9.67-5a3.25,3.25,0,0,1,1.4.38c.48.17.95.38,1.43.57l1.42.58,1.36.56,1.42.59,1.42.59a7.23,7.23,0,0,0,1.45.47L21.46,33.72a8,8,0,0,1,2.05.68c.67.25,1.33.54,2,.81l2.05.83c.67.27,1.33.55,2,.81a9.84,9.84,0,0,0,2.05.74L21.49,32.42a1.14,1.14,0,0,1,.84.16l6.08,2.51,2.57,1a.26.26,0,0,0,.26,0L21.34,31l.05-.12c3.44,1.37,6.87,2.78,10.33,4.11L21.34,29.66l.05-.11,9.92,4c-.24-.34-.63-.43-.95-.62s-.77-.4-1.15-.6l-1.1-.55L27,31.21l-1.1-.56-1.15-.58-1.11-.55-1.15-.59-1.19-.61a1.63,1.63,0,0,1,.86.2L31,32.12a.59.59,0,0,0,.42,0l-5-2.57-5-2.55Z" transform="translate(-0.47 -0.96)"/><path d="M41.47,23.56l-.91.28a3.6,3.6,0,0,1,.11,1.54,6.46,6.46,0,0,1-.18,1.91c-1.52-.32.36-3.61-2.19-2.85-.74.23-.73.31-.6,1.09,0,.36.2.58,0,.94-.3.72-1.23.68-1.83.93a3.3,3.3,0,0,1-2,.13,5.18,5.18,0,0,1-1.69-.41c-.42-.21-.65-.13-.78-.78-.08-.43.16-.8.12-1.23-.06-.63-.14-.51-.77-.69s-1.24-.34-1.9-.51c-.25-.07-1.34-.05-1.39-.19-.1-.3,1.62-.8,1.87-.9.75-.29,1.56-.39,2.4-.65a10.72,10.72,0,0,1,2.84-.78,11.37,11.37,0,0,1,2.95.82c.41.13.81.32,1.23.41s.51,0,.8.05A7,7,0,0,1,41.47,23.56Z" transform="translate(-0.47 -0.96)"/><path d="M15,39.32c.06-.21.1-.43.18-.64s.05-.42.33-.52a.57.57,0,0,1,.07.56c0,.16-.17.35.14.4,0,0,.06.19,0,.28a10.74,10.74,0,0,1-.28,1.25.93.93,0,0,0,0,.74L16,39.82a.61.61,0,0,1,.15.62,9.65,9.65,0,0,1-.37,1.3.5.5,0,0,0,.12.59,8.34,8.34,0,0,1,.64-2v1.29l.2-.34c.26.21.18.5.15.75a9.44,9.44,0,0,1-.27,1.26c-.07.29-.08.29.24.64a4.71,4.71,0,0,1,.33-2.11,3.55,3.55,0,0,1-.09,2,.53.53,0,0,0,.27.7,7.1,7.1,0,0,1,.22-2.18,1.6,1.6,0,0,1,.17.45c0,.53,0,1.06-.07,1.59,0,.3-.08.57.31.75A4.51,4.51,0,0,1,18,43a3.37,3.37,0,0,1,.18,2.1c-.05.24-.05.24.29.43.05-.71-.29-1.42.11-2.16a3.7,3.7,0,0,1,.22,1.59l-.06.62c0,.24.12.35.32.44-.05-.66-.1-1.28-.14-1.91,0-.07.07-.14.14-.29a4,4,0,0,1,.25,2.34l.53.44c-.23.2-.39,0-.52-.06a.8.8,0,0,0-.74-.13,4.11,4.11,0,0,1-1.64,0c-.05,0-.09-.06-.19-.14a9.71,9.71,0,0,1,1.92-.12c-.17-.23-.4-.2-.62-.21l-1.53-.12a.59.59,0,0,1-.4-.28l1.86.09a.74.74,0,0,0-.65-.3c-.51-.06-1-.17-1.51-.27-.09,0-.16-.09-.32-.18a4,4,0,0,1,1.83.19c-.1-.33-.32-.36-.58-.37a3.07,3.07,0,0,1-1.57-.48.24.24,0,0,1-.13-.13,4.34,4.34,0,0,1,1.77.35.5.5,0,0,0-.44-.37,3.94,3.94,0,0,1-1.47-.6.84.84,0,0,1-.31-.39l.83.15a3.9,3.9,0,0,1-1.17-1,4.55,4.55,0,0,1,1.54.77c.06-.24-.1-.32-.26-.4-.34-.19-.69-.36-1-.58a5.83,5.83,0,0,1-.66-.66c.42-.09.58.25.94.29-.33-.42-.78-.67-.9-1.25a5.69,5.69,0,0,1,1.22,1c.08-.29-.1-.4-.28-.54A9.63,9.63,0,0,1,14,40a3.93,3.93,0,0,1-.43-.67c.64.19.86.69,1.3,1a.63.63,0,0,0-.31-.64,2.33,2.33,0,0,1-.86-1.1,1.78,1.78,0,0,1-.06-.37l1.08,1.24a1.33,1.33,0,0,0-.44-1,1.65,1.65,0,0,1-.49-1.29l.81,1.22V37.35h.05l.18.5c.11-.21.06-.5.35-.65a1.22,1.22,0,0,1-.11,1.1A1.13,1.13,0,0,0,15,39.32Z" transform="translate(-0.47 -0.96)"/><path d="M53.06,39.78c.47.51.36,1.18.59,1.73.21-.45.2-.44,0-.85A2.86,2.86,0,0,1,53.41,39l.31.38a5.27,5.27,0,0,1-.11-.68,5.81,5.81,0,0,1,0-.59l.13,0,.45,1.31a.84.84,0,0,0,0-1,1.58,1.58,0,0,1-.11-1.3l.38,1h.07v-1.2h.1v1.41l.08,0c.1-.18.19-.36.3-.53s.23-.33.44-.61a1.5,1.5,0,0,1,0,.46,9.85,9.85,0,0,1-.7,1.07.67.67,0,0,0-.17.66c.36-.29.51-.78,1-1a2.44,2.44,0,0,1-.85,1.25.8.8,0,0,0-.45.81,4.38,4.38,0,0,1,1.26-1.1,2.55,2.55,0,0,1-.67,1.13l.46-.06a1,1,0,0,1-.1.27A4.17,4.17,0,0,1,54,41.73c-.22.12-.22.13-.41.54l1.49-1,.09.09a1.43,1.43,0,0,1-.15.27,3.39,3.39,0,0,1-1.35.95.52.52,0,0,0-.42.49,4.72,4.72,0,0,1,1.53-.78,2.38,2.38,0,0,1-.88.82c-.32.2-.76.19-1,.6a8.93,8.93,0,0,1,.84-.37,1.34,1.34,0,0,1,.92-.18,3.93,3.93,0,0,1-1.93.94c-.19,0-.33.1-.38.34L54.05,44l.06.12c-.09.08-.17.2-.28.24a2.94,2.94,0,0,1-1.41.37.53.53,0,0,0-.6.37,4.22,4.22,0,0,1,1.81-.2,2.89,2.89,0,0,1-1.42.45,2.68,2.68,0,0,1-.49,0c-.22,0-.22,0-.53.29l1.86-.08c-.75.57-1.65.32-2.46.52.58.17,1.18,0,1.86.22a2.07,2.07,0,0,1-1,.22,1.5,1.5,0,0,1-.73-.08.88.88,0,0,0-.91.13.55.55,0,0,1-.48,0l.55-.42a3.69,3.69,0,0,1,.26-2.34,1.41,1.41,0,0,1,.06,1.1c-.06.36-.08.72-.13,1.1.45-.25.45-.25.38-.64a3.87,3.87,0,0,1,.12-1.88s.09-.07.21-.17c0,.44,0,.8,0,1.16s-.06.73-.1,1.11A.49.49,0,0,0,51,45c0-.52,0-1,0-1.54,0-.18,0-.39.22-.48l.11.57c.1-.46,0-.88.34-1.25a7.53,7.53,0,0,1,.1,2.16c.39-.26.4-.26.29-.65a4.63,4.63,0,0,1-.13-2c.34.29.3.64.34,1s.09.64.14,1c.24-.12.22-.3.17-.51-.11-.41-.22-.83-.29-1.25a2.13,2.13,0,0,1,.05-.66h.27V40.29a3.3,3.3,0,0,1,.26.4c.09.38.18.76.26,1.14,0,.19.09.38.13.6a.67.67,0,0,0,.1-.82A4,4,0,0,1,53.06,39.78Z" transform="translate(-0.47 -0.96)"/><path d="M34.9,55.06a20.89,20.89,0,0,1-9.52-2.16c-.61-.29-1.2-.61-1.79-1s-.47-.42-.28-.91l.69-1.9c.06-.16.11-.31.18-.46.16-.34.28-.37.62-.17.88.49,1.73,1,2.63,1.46a15.43,15.43,0,0,0,4.21,1.28,17.65,17.65,0,0,0,4.23.21,17.08,17.08,0,0,0,5.52-1.32A17.71,17.71,0,0,0,44,48.7a4.81,4.81,0,0,1,.41-.27.35.35,0,0,1,.52.16,1.07,1.07,0,0,1,.1.22c.27.76.52,1.52.8,2.26a.62.62,0,0,1-.34.91c-.61.34-1.21.69-1.84,1a21.12,21.12,0,0,1-5.59,1.8A14.46,14.46,0,0,1,34.9,55.06ZM24.5,48.63a.76.76,0,0,0-.12.1l-.93,2.53c-.08.22,0,.35.2.46.48.27.94.58,1.44.82a20.16,20.16,0,0,0,9.45,2.28,18.48,18.48,0,0,0,3.07-.19c1-.19,2-.43,3-.7A20.08,20.08,0,0,0,45.4,51.8c.35-.2.38-.33.24-.71s-.28-.82-.44-1.22-.32-.82-.5-1.27Q34.55,54.89,24.5,48.63Z" transform="translate(-0.47 -0.96)"/><path d="M49.66,50.41a.76.76,0,0,1-.54.7c-.42.1-.84.14-1.26.23a1.76,1.76,0,0,0-.55.22c-.44.28-.63.23-.82-.28l-1-2.76c-.06-.17-.13-.34-.19-.52a.5.5,0,0,0-.45-.35c-.24,0-.51-.09-.56-.39s.29-.33.65-.34a1.08,1.08,0,0,1,.31,0,3.74,3.74,0,0,0,1.63-.08,1.13,1.13,0,0,0,.79-.64c.06-.12.05-.31.25-.29s.24.18.29.34c.14.39.29.77.42,1.15.31.87.62,1.74.92,2.6C49.59,50.16,49.63,50.3,49.66,50.41Zm-5.23-3.24c.17.13.23.21.3.21.53,0,.72.36.87.8.24.72.5,1.43.76,2.14.14.39.3.78.47,1.21a4.48,4.48,0,0,1,.69-.38,5.16,5.16,0,0,1,.79-.08l.6-.11c.44-.11.58-.33.47-.76a1.42,1.42,0,0,0-.1-.29c-.34-.92-.67-1.84-1-2.76a2.06,2.06,0,0,0-.36-.84,1.66,1.66,0,0,1-1.5.85h-2Z" transform="translate(-0.47 -0.96)"/><path d="M24.89,47.26a1.18,1.18,0,0,1-.11.18c-.08.06-.17.15-.26.15-.59,0-.69.46-.84.89-.33.94-.67,1.89-1,2.83-.18.48-.36.56-.77.26a2.86,2.86,0,0,0-1.16-.33c-.2-.05-.41-.05-.6-.1-.58-.17-.76-.5-.56-1.06.33-.92.68-1.84,1-2.76.15-.4.29-.81.45-1.21a.31.31,0,0,1,.21-.18c.07,0,.17.1.21.18a1.32,1.32,0,0,0,1.25.82,5,5,0,0,0,1.34,0,1.51,1.51,0,0,1,.65.11C24.78,47.07,24.83,47.18,24.89,47.26Zm-3.66-1.12c-.5,1.42-1,2.75-1.45,4.07a.52.52,0,0,0,.42.74,7,7,0,0,0,1,.14,1.34,1.34,0,0,1,.75.24,3.37,3.37,0,0,0,.36.2c.09-.23.17-.41.23-.6.36-1,.72-2,1.07-2.93a.75.75,0,0,1,.7-.59.88.88,0,0,0,.28-.13,1.52,1.52,0,0,0-.68-.11c-.37,0-.74,0-1.11,0A1.65,1.65,0,0,1,21.23,46.14Z" transform="translate(-0.47 -0.96)"/><path d="M24.5,48.63q10,6.25,20.2,0c.18.45.35.86.5,1.27s.3.81.44,1.22.11.51-.24.71a20.08,20.08,0,0,1-4.75,2.13c-1,.27-2,.51-3,.7a18.48,18.48,0,0,1-3.07.19,20.16,20.16,0,0,1-9.45-2.28c-.5-.24-1-.55-1.44-.82-.18-.11-.28-.24-.2-.46l.93-2.53A.76.76,0,0,1,24.5,48.63Zm8,5.06c.08.2.21.29.49.17,0-.31,0-.65,0-1,0-.06-.12-.11-.19-.17s-.11.15-.11.22a1,1,0,0,1-.19.78.62.62,0,0,1-.14-.85c.13-.25,0-.39,0-.63-.47.47-.3,1-.34,1.49,0,.13.16.23.33.12Zm6.95-.14c.15-.76,0-1.41.13-2-.19,0-.29,0-.26.19s.06.7.09,1.05l-.13,0L38.8,51.6l-.31.13c.31.74.31.74.23,1.19-.15-.36-.28-.66-.39-1s-.08-.25-.45-.08a15.84,15.84,0,0,0,1,1.76c0-.21.07-.32.09-.43s0-.2,0-.35Zm-10.81-.49c.17-.55.35-1.06.5-1.59,0-.06-.06-.17-.12-.22s-.19,0-.19.08c0,.32-.2.35-.45.44a.85.85,0,0,0-.47.86c0,.39.34.34.56.44A.55.55,0,0,0,28.67,53.06Zm-2-.7.71.29c.28.11.33-.09.48-.35-.3.07-.56.19-.69,0s0-.37.19-.53l.36.22.16-.4-.49-.13c.09-.17.19-.39.23-.38a2.55,2.55,0,0,1,.47.23c.1-.13.17-.28-.06-.37s-.47-.18-.67-.25Zm7.49,1c0-.38-.17-.62-.41-.66s-.38.1-.5.45a.88.88,0,0,0-.07.23.66.66,0,0,0,.46.65c.21,0,.43-.2.5-.48C34.13,53.47,34.13,53.39,34.14,53.36Zm1,.57c0-.26,0-.5,0-.73a1.45,1.45,0,0,0-.05-.3c-.09-.22-.29-.21-.47-.17s-.31.11-.32.19a8.43,8.43,0,0,0,0,1Zm4.6-1.43a2.08,2.08,0,0,0,.08.39.46.46,0,0,0,.89-.26,1.53,1.53,0,0,0-.3-.58c-.21-.26-.49-.19-.61.12A1.39,1.39,0,0,0,39.77,52.5Zm2.31-1.3-.32.5a6,6,0,0,0-.31-.71.27.27,0,0,0-.25-.08c-.1,0-.11.12-.06.24.2.47.36,1,.54,1.43a.51.51,0,0,0,.09.12l.34-.17c-.06-.12-.1-.18-.13-.25l.05,0c.34.21.34.21.57,0C42,51.79,42,51.79,42.08,51.2Zm-10.5,1.55-.32.21c-.3.22-.44.45-.3.59a1.91,1.91,0,0,0,.58.24s.05,0,.06,0,.12-.07.13-.12c0-.3.05-.6.05-.89a.28.28,0,0,0-.32-.3c-.19,0-.28.12-.29.32Zm-2.3-.84c-.08.28-.14.47-.19.66-.19.64-.12.73.57.76,0,0,.07,0,.15-.07-.09-.35.39-.74-.06-1.15-.15.32-.08.68-.37,1C29.26,52.69,29.65,52.33,29.28,51.91ZM36.23,53a5,5,0,0,0-.26.68c0,.07.17.25.18.24.2-.1.46.13.61-.13a.14.14,0,0,0,0-.11c-.06-.26-.11-.52-.17-.77s-.26-.35-.45-.23S36,52.87,36,53Zm-5.74-.51.29.28c.22-.19.11-.34,0-.43a.42.42,0,0,0-.33,0,.75.75,0,0,0-.38.88.36.36,0,0,0,.35.36c.27,0,.41-.13.41-.42-.42.13-.55,0-.48-.33A1.42,1.42,0,0,1,30.49,52.5Zm6.43-.29a1.89,1.89,0,0,0-.1.56,3.66,3.66,0,0,0,.23,1c.06.15.28.09.41-.09C37,53.31,37.43,52.67,36.92,52.21Zm4.49.62c-.21-.42-.42-.77-.11-1.2a.62.62,0,0,0-.63.22L41,53Z" transform="translate(-0.47 -0.96)" style="fill:#fff"/><path d="M44.43,47.17h2a1.66,1.66,0,0,0,1.5-.85,2.06,2.06,0,0,1,.36.84c.36.92.69,1.84,1,2.76a1.42,1.42,0,0,1,.1.29c.11.43,0,.65-.47.76l-.6.11a5.16,5.16,0,0,0-.79.08,4.48,4.48,0,0,0-.69.38c-.17-.43-.33-.82-.47-1.21-.26-.71-.52-1.42-.76-2.14-.15-.44-.34-.79-.87-.8C44.66,47.38,44.6,47.3,44.43,47.17Z" transform="translate(-0.47 -0.96)" style="fill:#fff"/><path d="M21.23,46.14a1.65,1.65,0,0,0,1.59,1c.37,0,.74,0,1.11,0a1.52,1.52,0,0,1,.68.11.88.88,0,0,1-.28.13.75.75,0,0,0-.7.59c-.35,1-.71,2-1.07,2.93-.06.19-.14.37-.23.6a3.37,3.37,0,0,1-.36-.2,1.34,1.34,0,0,0-.75-.24,7,7,0,0,1-1-.14.52.52,0,0,1-.42-.74C20.25,48.89,20.73,47.56,21.23,46.14Z" transform="translate(-0.47 -0.96)" style="fill:#fff"/><path d="M39.48,53.55l-.5-.69c0,.15,0,.25,0,.35s-.05.22-.09.43a15.84,15.84,0,0,1-1-1.76c.37-.17.36-.17.45.08s.24.6.39,1c.08-.45.08-.45-.23-1.19l.31-.13.51,1.17.13,0c0-.35,0-.7-.09-1.05s.07-.24.26-.19C39.5,52.14,39.63,52.79,39.48,53.55Z" transform="translate(-0.47 -0.96)"/><path d="M28.67,53.06a.55.55,0,0,1-.17,0c-.22-.1-.56,0-.56-.44a.85.85,0,0,1,.47-.86c.25-.09.45-.12.45-.44,0,0,.17-.1.19-.08s.14.16.12.22C29,52,28.84,52.51,28.67,53.06Z" transform="translate(-0.47 -0.96)"/><path d="M26.65,52.36l.69-1.72c.2.07.44.15.67.25s.16.24.06.37A2.55,2.55,0,0,0,27.6,51s-.14.21-.23.38l.49.13-.16.4-.36-.22c-.15.16-.3.33-.19.53s.39.12.69,0c-.15.26-.2.46-.48.35Z" transform="translate(-0.47 -0.96)"/><path d="M34.14,53.36s0,.11,0,.19c-.07.28-.29.5-.5.48a.66.66,0,0,1-.46-.65.88.88,0,0,1,.07-.23c.12-.35.27-.49.5-.45S34.13,53,34.14,53.36Z" transform="translate(-0.47 -0.96)"/><path d="M35.17,53.93h-.9a8.43,8.43,0,0,1,0-1c0-.08.2-.17.32-.19s.38,0,.47.17a1.45,1.45,0,0,1,.05.3C35.14,53.43,35.15,53.67,35.17,53.93Z" transform="translate(-0.47 -0.96)"/><path d="M39.77,52.5a1.39,1.39,0,0,1,.06-.33c.12-.31.4-.38.61-.12a1.53,1.53,0,0,1,.3.58.46.46,0,0,1-.89.26A2.08,2.08,0,0,1,39.77,52.5Z" transform="translate(-0.47 -0.96)"/><path d="M42.08,51.2c0,.59,0,.59.52,1.06-.23.2-.23.2-.57,0l-.05,0c0,.07.07.13.13.25l-.34.17a.51.51,0,0,1-.09-.12c-.18-.48-.34-1-.54-1.43,0-.12,0-.21.06-.24a.27.27,0,0,1,.25.08,6,6,0,0,1,.31.71Z" transform="translate(-0.47 -0.96)"/><path d="M31.58,52.75l-.41,0c0-.2.1-.31.29-.32a.28.28,0,0,1,.32.3c0,.29,0,.59-.05.89,0,.05-.08.09-.13.12s0,0-.06,0a1.91,1.91,0,0,1-.58-.24c-.14-.14,0-.37.3-.59Z" transform="translate(-0.47 -0.96)"/><path d="M29.28,51.91c.37.42,0,.78.1,1.15.29-.27.22-.63.37-1,.45.41,0,.8.06,1.15-.08,0-.12.08-.15.07-.69,0-.76-.12-.57-.76C29.14,52.38,29.2,52.19,29.28,51.91Z" transform="translate(-0.47 -0.96)"/><path d="M36.23,53,36,53c.05-.1.08-.23.17-.28s.39,0,.45.23.11.51.17.77a.14.14,0,0,1,0,.11c-.15.26-.41,0-.61.13,0,0-.2-.17-.18-.24A5,5,0,0,1,36.23,53Z" transform="translate(-0.47 -0.96)"/><path d="M30.49,52.5a1.42,1.42,0,0,0-.16.33c-.07.37.06.46.48.33,0,.29-.14.42-.41.42a.36.36,0,0,1-.35-.36.75.75,0,0,1,.38-.88.42.42,0,0,1,.33,0c.13.09.24.24,0,.43Z" transform="translate(-0.47 -0.96)"/><path d="M36.92,52.21c.51.46,0,1.1.54,1.46-.13.18-.35.24-.41.09a3.66,3.66,0,0,1-.23-1A1.89,1.89,0,0,1,36.92,52.21Z" transform="translate(-0.47 -0.96)"/><path d="M41.41,52.83,41,53l-.35-1.1a.62.62,0,0,1,.63-.22C41,52.06,41.2,52.41,41.41,52.83Z" transform="translate(-0.47 -0.96)"/><path d="M32.53,53.69l-.19.14c-.17.11-.34,0-.33-.12,0-.49-.13-1,.34-1.49,0,.24.16.38,0,.63a.62.62,0,0,0,.14.85Z" transform="translate(-0.47 -0.96)"/><path d="M32.52,53.7a1,1,0,0,0,.19-.78c0-.07.07-.15.11-.22s.19.11.19.17c0,.34,0,.68,0,1-.28.12-.41,0-.49-.17Z" transform="translate(-0.47 -0.96)"/><rect width="283" height="67" style="fill:none"/></svg>