<svg xmlns="http://www.w3.org/2000/svg" viewBox="0 0 283 67"><title>Asset 3</title><path d="M66.86,30.87c0,20.16-14.59,35.06-33,34.93A32.79,32.79,0,0,1,34.39.23,31.69,31.69,0,0,1,57.31,9.88C63.67,16.27,66.76,24.09,66.86,30.87ZM35.34,1.3A30.94,30.94,0,0,0,12.29,10,30.71,30.71,0,0,0,2.41,32.59,30.79,30.79,0,0,0,11.25,55a30.73,30.73,0,0,0,22,9.76A30.62,30.62,0,0,0,56,56a30.59,30.59,0,0,0,9.8-22.18A31.64,31.64,0,0,0,35.34,1.3Z" style="fill:#fff"/><path d="M138,25.87l.61-.08c.67,0,1.33-.07,2-.12a2,2,0,0,0,.6-.16.38.38,0,0,0,.22-.51l-1.61-4.1H135c-.32.93-.66,1.85-.95,2.79a1.4,1.4,0,0,0,1.13,1.92c.38.09.77.12,1.16.18.12,0,.23.07.36.1-.09.31-.3.22-.47.23h-5.65c-.16,0-.31-.05-.59-.09.19-.13.26-.22.35-.23a3.47,3.47,0,0,0,3.18-2.35c.68-1.65,1.38-3.3,2.05-5q1.36-3.42,2.71-6.84c.06-.13.12-.25.17-.38s.19-.28.36-.23a.57.57,0,0,1,.35.27c.21.43.37.88.56,1.33L144.35,24c.18.42.39.83.6,1.24a.77.77,0,0,0,.6.41,12.4,12.4,0,0,0,3.7,0c.44-.07.47-.1.55-.56a5.05,5.05,0,0,0,.07-.68c0-2,0-4,0-5.93,0-.32-.05-.64-.08-1a.57.57,0,0,0-.53-.55l-.95-.11-.75-.05c.2-.15.27-.26.35-.27.86-.1,1.73-.18,2.6-.27l1.75-.15v2.65a13.32,13.32,0,0,1,.51-1.27,2.08,2.08,0,0,1,1.87-1.21,11.43,11.43,0,0,1,1.85.12,2.59,2.59,0,0,1,2,2.32c.12-.33.21-.59.32-.84a2.44,2.44,0,0,1,2.34-1.62,3.84,3.84,0,0,1,2.61.66,2.38,2.38,0,0,1,1,2c0,1.9,0,3.81,0,5.72,0,1,.08,1,.93,1.08a3,3,0,0,1,.87.24c-.1.05-.2.14-.3.14-.55,0-1.11,0-1.66,0h-3.52c-.19,0-.41.08-.6-.21a2,2,0,0,1,.42-.11c1.41-.08,1.45-.22,1.46-1.56s0-2.76,0-4.14c0-.66-.06-1.33-.11-2a2.59,2.59,0,0,0-.09-.4,1.33,1.33,0,0,0-2.29-.72,2.47,2.47,0,0,0-.79,1.11,7.65,7.65,0,0,0-.56,2.88c0,1.22,0,2.44,0,3.66v.41c0,.52,0,.55.53.62l1,.13a1.84,1.84,0,0,1,.34.15c-.18.08-.27.16-.36.16q-2.76,0-5.52,0a2,2,0,0,1-.43-.14,2.07,2.07,0,0,1,.4-.17c.34-.05.69-.08,1-.14s.46-.17.5-.54v-.27c0-2.05,0-4.1,0-6.14a4,4,0,0,0-.29-1.4,1.17,1.17,0,0,0-1.42-.68,1.88,1.88,0,0,0-1.19.87,6.2,6.2,0,0,0-.76,2.2,9.07,9.07,0,0,0-.13,1.57c0,1.22,0,2.44,0,3.65,0,.61.05.66.64.76.38.07.76.12,1.27.2-.19.13-.26.21-.35.23a2.77,2.77,0,0,1-.41,0h-14.7A.72.72,0,0,1,138,25.87Zm-.6-11c-.78,2-1.5,3.81-2.24,5.68h4.48Z" style="fill:#fff"/><path d="M77.87,38.79H93a3.06,3.06,0,0,1,.07.4v5.73c0,.18.1.46-.2.5s-.33-.24-.37-.46a14.18,14.18,0,0,0-1.11-3.75,3.8,3.8,0,0,0-4.23-2c0,.21,0,.44,0,.66V52.18c0,.92.08,1,1,1.08s1.56.09,2.33.14l.66.06c-.17.14-.24.23-.32.25a2.55,2.55,0,0,1-.48,0H80.58a.82.82,0,0,1-.71-.17,1.9,1.9,0,0,1,.37-.15l2.27-.12a1.94,1.94,0,0,0,.34,0c1-.1,1.06-.4,1.06-1.1q0-6.13,0-12.28a1.93,1.93,0,0,0,0-.34c0-.35-.12-.43-.47-.44a4.52,4.52,0,0,0-2,.32A3.3,3.3,0,0,0,79.72,41a12.91,12.91,0,0,0-1.14,3.3c0,.25-.1.5-.14.74s0,.38-.3.38-.26-.2-.27-.38V38.79Z" style="fill:#fff"/><path d="M118.58,38.64v7.64l.08,0c.15-.29.29-.59.45-.88a2.59,2.59,0,0,1,2.48-1.53A10.4,10.4,0,0,1,123,44a2.58,2.58,0,0,1,2.36,2.88c0,1.45,0,2.9,0,4.35,0,.48,0,1,0,1.44s0,.55.53.62l1.23.12a3.22,3.22,0,0,1,.45.13,2.32,2.32,0,0,1-.44.19h-5.66a.76.76,0,0,1-.69-.18,2.73,2.73,0,0,1,.39-.14l1.23-.14a.47.47,0,0,0,.46-.5c0-.14,0-.28,0-.41,0-2,0-4,0-5.94a4.9,4.9,0,0,0-.12-1.08,1.35,1.35,0,0,0-1.82-1.07,2,2,0,0,0-1.15.82,6,6,0,0,0-1.12,3.34c0,1.31,0,2.62,0,3.93a2.52,2.52,0,0,0,0,.48.47.47,0,0,0,.45.44l1.09.13a3.22,3.22,0,0,1,.45.13,2.32,2.32,0,0,1-.44.19h-5.8c-.22,0-.46.08-.71-.15a1.19,1.19,0,0,1,.32-.16c.55-.06,1.1-.09,1.64-.15s.51-.17.55-.57c0-.13,0-.27,0-.41V40.35c0-.61-.14-.78-.73-.87-.41-.07-.82-.07-1.23-.11a1.33,1.33,0,0,1-.5-.13c.73-.46,1.57-.27,2.35-.41S117.72,38.7,118.58,38.64Z" style="fill:#fff"/><path d="M250.53,53.72V51.31a6,6,0,0,1-1.05,1.61,2.57,2.57,0,0,1-1.85.79,6.19,6.19,0,0,1-1.43-.13,2.53,2.53,0,0,1-2-2.53c0-1.89,0-3.77,0-5.66,0-.89,0-1.08-1-1.06a2.89,2.89,0,0,1-1.22-.09c.11-.1.18-.21.26-.22l1.64-.13,2.2-.13h.62c0,.27,0,.52,0,.76,0,2.21,0,4.41,0,6.62a11.35,11.35,0,0,0,0,1.17,1.14,1.14,0,0,0,1.53,1,2.39,2.39,0,0,0,1.53-1.19,4.73,4.73,0,0,0,.77-2.47V45.27c0-.69-.22-.89-.91-.92-.42,0-.83,0-1.25,0-.15,0-.3,0-.57-.08.17-.13.24-.23.32-.24l1.71-.13,2.55-.13H253c0,.29,0,.53,0,.78,0,2.41,0,4.83,0,7.24,0,.93,0,1.13,1.18,1.21a1.82,1.82,0,0,1,1.07.16,6,6,0,0,1-2.3.38C252.2,53.66,251.41,53.65,250.53,53.72Z" style="fill:#fff"/><path d="M196.29,44.33c1.47-.3,3-.36,4.47-.6a3.32,3.32,0,0,1,.11,1.32c0,.41,0,.82,0,1.22.31-.51.6-1.05.94-1.55a1.88,1.88,0,0,1,1.51-.82,4.55,4.55,0,0,1,2.74.46,2.37,2.37,0,0,1,1.31,2.18c0,1.86,0,3.73,0,5.59a5,5,0,0,0,0,.55c0,.44.15.55.59.6l1.23.12a2.46,2.46,0,0,1,.42.15c-.21.09-.3.17-.39.17h-6a2.45,2.45,0,0,1-.42-.12c.19-.11.27-.18.36-.19.4-.06.82-.09,1.23-.14s.53-.17.55-.63c0-.25,0-.51,0-.76,0-1.7,0-3.4,0-5.1a8.06,8.06,0,0,0-.12-1.3c-.24-1.5-1.5-1.52-2.37-.9a2.78,2.78,0,0,0-.92,1.19,7.33,7.33,0,0,0-.67,3.06c0,1.13,0,2.25,0,3.38a3.85,3.85,0,0,0,0,.48c.05.41.15.52.55.58s.73.09,1.09.13a3,3,0,0,1,.35.14,1.77,1.77,0,0,1-.42.18h-5.52a1,1,0,0,1-.72-.14,1.13,1.13,0,0,1,.36-.17c.43-.06.86-.09,1.29-.14s.55-.17.6-.61c0-.11,0-.23,0-.34V45.76a2.84,2.84,0,0,0,0-.41.62.62,0,0,0-.59-.63c-.36-.06-.73-.07-1.1-.11-.16,0-.32,0-.49-.07Z" style="fill:#fff"/><path d="M141.14,53.49c-.16.14-.21.21-.25.21h-6.28c-.05,0-.09-.07-.21-.17a2.59,2.59,0,0,1,.4-.13l1.23-.14a.48.48,0,0,0,.46-.51c0-.13,0-.27,0-.41,0-1.91,0-3.82,0-5.73a7,7,0,0,0-.15-1.29,1.27,1.27,0,0,0-1.82-1,2.37,2.37,0,0,0-1.39,1.35,6.88,6.88,0,0,0-.72,3.06c0,1.17,0,2.34,0,3.51a3.51,3.51,0,0,0,0,.56.5.5,0,0,0,.48.49c.34,0,.68.07,1,.12a3.82,3.82,0,0,1,.38.11c-.14.3-.38.21-.56.21h-5.59a.51.51,0,0,1-.37-.2,2.19,2.19,0,0,1,.33-.12l1.3-.13c.4-.05.51-.17.56-.56a3,3,0,0,0,0-.42V45.74c0-.11,0-.23,0-.34a.67.67,0,0,0-.63-.69c-.29-.05-.59-.06-.88-.09s-.46.07-.7-.15c.08-.07.15-.17.23-.18.45-.08.91-.14,1.36-.2l3-.35c.07.88,0,1.72,0,2.52.29-.49.57-1,.9-1.5a2,2,0,0,1,1.64-.87,4.54,4.54,0,0,1,2.54.42,2.38,2.38,0,0,1,1.41,2.26c0,1.88,0,3.77,0,5.65a3.33,3.33,0,0,0,0,.55c0,.36.16.46.54.51l1.23.12A4.25,4.25,0,0,1,141.14,53.49Z" style="fill:#fff"/><path d="M95.13,25.89a3.57,3.57,0,0,1,.35-.1l1.16-.13c.38-.06.47-.17.51-.53a2.53,2.53,0,0,0,0-.28c0-2,0-4,0-6.07a4.19,4.19,0,0,0-.27-1.4,1.17,1.17,0,0,0-1.51-.73,2.36,2.36,0,0,0-1.58,1.43,7,7,0,0,0-.71,3.05c0,1.15,0,2.3,0,3.45a3.33,3.33,0,0,0,0,.55c0,.36.16.48.52.54s.68.08,1,.12l.32.08c0,.31-.25.25-.41.25H90.68c-.6,0-1.2,0-1.8,0a.56.56,0,0,1-.41-.21,1.46,1.46,0,0,1,.34-.1c.43-.06.87-.08,1.3-.14s.48-.16.54-.51a3.85,3.85,0,0,0,0-.48c0-2.16,0-4.33,0-6.49a2.55,2.55,0,0,0,0-.48c-.07-.3-.19-.57-.57-.59s-.68-.07-1-.1L88.42,17c.38-.36.56-.39,2.26-.54.77-.07,1.54-.18,2.37-.28,0,.89,0,1.71,0,2.54.29-.5.56-1,.87-1.48a2,2,0,0,1,1.69-.9,4.49,4.49,0,0,1,2.55.42A2.41,2.41,0,0,1,99.57,19c0,1.84,0,3.68,0,5.52,0,.16,0,.33,0,.49,0,.52.14.63.65.69s.78.07,1.16.12a2.26,2.26,0,0,1,.43.12c-.18.1-.27.19-.35.19H95.32c-.06,0-.12-.06-.18-.09Z" style="fill:#fff"/><path d="M223.55,25.9c-.14.12-.19.2-.23.2h-6.21c-.06,0-.12-.06-.3-.15a2.8,2.8,0,0,1,.51-.15c.43-.06.86-.08,1.29-.14s.49-.16.54-.51a2.57,2.57,0,0,0,0-.48V18.18a1.91,1.91,0,0,0,0-.48c-.07-.3-.19-.57-.57-.59s-.68-.07-1-.1l-.64-.06c.38-.36.56-.39,2.26-.54.77-.07,1.54-.18,2.38-.28,0,.89,0,1.71,0,2.54.3-.5.57-1,.88-1.48a2,2,0,0,1,1.68-.9,4.49,4.49,0,0,1,2.55.42A2.43,2.43,0,0,1,228.08,19c0,1.84,0,3.68,0,5.52,0,.16,0,.32,0,.48,0,.53.14.64.65.7s.78.07,1.17.12a3.5,3.5,0,0,1,.45.12c-.24.1-.34.19-.45.19H224.3c-.22,0-.46.07-.71-.15a1.3,1.3,0,0,1,.33-.17c.38-.06.77-.08,1.16-.13s.57-.17.58-.68c0-1,0-2,0-3s0-1.88,0-2.83a11,11,0,0,0-.12-1.29,1.39,1.39,0,0,0-2.41-.89,3.25,3.25,0,0,0-.84,1.07,7,7,0,0,0-.72,3.05c0,1.18,0,2.35,0,3.52a3.81,3.81,0,0,0,0,.48c0,.36.16.48.52.54l1.09.13A3.09,3.09,0,0,1,223.55,25.9Z" style="fill:#fff"/><path d="M185.66,38.88c.5-.15,9.37-.16,10,0-.16.09-.25.19-.35.19-.6.06-1.19.09-1.79.13-1.28.08-1.35.15-1.36,1.49,0,3.36,0,6.71,0,10.07,0,.39,0,.78,0,1.17s.07.5.08.75a.44.44,0,0,0,.42.46q1,.14,2,.24a3.61,3.61,0,0,1,1,.1c-.16.12-.24.21-.32.22a2.57,2.57,0,0,1-.48,0h-8.55a.94.94,0,0,1-.78-.17,1.9,1.9,0,0,1,.37-.15l2-.13.28,0c.6-.1.72-.21.82-.82a4.22,4.22,0,0,0,0-.62V40.64a3.85,3.85,0,0,0,0-.48c-.09-.71-.21-.85-.94-.93s-1.32-.09-2-.14c-.17,0-.33-.05-.5-.07Z" style="fill:#fff"/><path d="M77.88,25.91a1.86,1.86,0,0,1,.42-.11l2-.14a1.94,1.94,0,0,0,.34,0c.55-.11.63-.19.73-.75a4.21,4.21,0,0,0,0-.62V13a3.85,3.85,0,0,0,0-.48c-.09-.71-.22-.85-.94-.92s-1.33-.09-2-.14a.8.8,0,0,1-.5-.21,1,1,0,0,1,.27-.11h9l.73,0c0,.33-.19.29-.34.3l-2,.13h-.2c-.66.1-.76.2-.86.86a4.15,4.15,0,0,0,0,.61c0,3.68,0,7.36,0,11,0,1.38.07,1.46,1.38,1.55.55,0,1.1.06,1.65.11a2.37,2.37,0,0,1,.5.1c-.18.11-.25.19-.34.21a3.85,3.85,0,0,1-.48,0H78.69A.92.92,0,0,1,77.88,25.91Z" style="fill:#fff"/><path d="M211.83,24.67a8,8,0,0,1-.64.78,2.84,2.84,0,0,1-1.54.73,5.09,5.09,0,0,1-2.7-.24,2.29,2.29,0,0,1-.83-3.57,3.89,3.89,0,0,1,2.45-1.4c.68-.11,1.37-.17,2-.28.85-.14,1.1-.45,1.12-1.29,0-.53,0-1.06,0-1.59,0-.77-.25-1.07-1-1.17a3.05,3.05,0,0,0-2.75.72,1.7,1.7,0,0,0-.2.26,1.17,1.17,0,0,1,1.23.73,1,1,0,0,1-.22,1.14,1.34,1.34,0,0,1-1.64.24,1.37,1.37,0,0,1-.62-1.72,2,2,0,0,1,1.23-1.23,6.94,6.94,0,0,1,4.71-.22,3.36,3.36,0,0,1,1,.55,1.57,1.57,0,0,1,.64,1.38c0,1.83,0,3.67,0,5.51a7.47,7.47,0,0,0,.11,1.16.83.83,0,0,0,.76.77.86.86,0,0,0,1-.62,3.46,3.46,0,0,0,.18-1c0-.6,0-1.2,0-1.79a1.85,1.85,0,0,1,0-.41.26.26,0,0,1,.19-.15.33.33,0,0,1,.2.15.8.8,0,0,1,0,.27c0,.65,0,1.29,0,1.93,0,.14,0,.28,0,.42a1.45,1.45,0,0,1-1.37,1.47,7.58,7.58,0,0,1-1.78,0A1.71,1.71,0,0,1,212,25C211.91,24.88,211.87,24.77,211.83,24.67Zm-.12-4c-.36.1-.71.21-1.06.29a8.89,8.89,0,0,1-.88.13,1.78,1.78,0,0,0-1.52,1.23,4.55,4.55,0,0,0-.06,2.78,1,1,0,0,0,1.19.8,2.55,2.55,0,0,0,2.33-2.32C211.75,22.63,211.71,21.64,211.71,20.7Z" style="fill:#fff"/><path d="M166.26,52.23a3.13,3.13,0,0,1-3,1.63,4.65,4.65,0,0,1-1.88-.31,2.3,2.3,0,0,1-.85-3.57,3.91,3.91,0,0,1,2.46-1.4c.67-.12,1.36-.17,2-.28.85-.14,1.1-.45,1.12-1.29,0-.53,0-1.06,0-1.58,0-.78-.24-1.08-1-1.18a3,3,0,0,0-2.8.76.76.76,0,0,0-.14.22,1.16,1.16,0,0,1,1.2.72,1,1,0,0,1-.21,1.14,1.34,1.34,0,0,1-1.64.25,1.38,1.38,0,0,1-.62-1.72,2.05,2.05,0,0,1,1.35-1.28,6.7,6.7,0,0,1,1.46-.39,6.77,6.77,0,0,1,3.19.22,3.84,3.84,0,0,1,.85.45,1.74,1.74,0,0,1,.75,1.53c0,1.82,0,3.63,0,5.45a8.93,8.93,0,0,0,.11,1.16.83.83,0,0,0,.76.77.85.85,0,0,0,1-.61,3.83,3.83,0,0,0,.18-1c0-.57,0-1.15,0-1.72a2.54,2.54,0,0,1,0-.48.25.25,0,0,1,.19-.15c.07,0,.14.09.2.14s0,0,0,.06c0,.9,0,1.8,0,2.69a1.39,1.39,0,0,1-1.33,1.35,8.83,8.83,0,0,1-1.78,0,1.72,1.72,0,0,1-1.48-1.18C166.37,52.49,166.33,52.39,166.26,52.23Zm-.09-3.92c-.39.1-.74.21-1.09.29s-.59.09-.88.13A1.76,1.76,0,0,0,162.69,50a4.6,4.6,0,0,0-.07,2.7,1,1,0,0,0,1.29.85,2.55,2.55,0,0,0,2.25-2.4C166.18,50.19,166.17,49.25,166.17,48.31Z" style="fill:#fff"/><path d="M171.4,39.23a20.26,20.26,0,0,1,4.88-.54c0,.24,0,.48,0,.73V52.1c0,1.07,0,1.08,1.06,1.24.32,0,.65,0,1,.06l.68.08c-.22.14-.3.22-.39.23a1.86,1.86,0,0,1-.41,0h-6.14a.83.83,0,0,1-.7-.16,1.74,1.74,0,0,1,.36-.16l1.58-.13c.4,0,.52-.16.57-.55a2.57,2.57,0,0,0,0-.48V40.66c0-.12,0-.23,0-.35,0-.6-.16-.75-.76-.84-.33-.06-.68-.07-1-.1S171.65,39.44,171.4,39.23Z" style="fill:#fff"/><path d="M220.45,44.94a7.23,7.23,0,0,1-2.06-.26,2.73,2.73,0,0,1,.45-.23,4.85,4.85,0,0,0,3.54-4.29c0-.19.07-.36.09-.55s.05-.27.23-.28.23.18.24.34v4.47h2.87l0,.73H223a1.88,1.88,0,0,0-.06.32q0,3.38,0,6.75a3.82,3.82,0,0,0,.07.68,1.06,1.06,0,0,0,.92.9,1.21,1.21,0,0,0,1.28-.61,3.33,3.33,0,0,0,.3-1.11c.08-.87.09-1.74.13-2.61a2,2,0,0,1,0-.35.18.18,0,0,1,.15-.1.27.27,0,0,1,.22.11.55.55,0,0,1,0,.26c0,1,0,1.93-.11,2.89a1.77,1.77,0,0,1-1.73,1.81,6.24,6.24,0,0,1-1.78-.06,2.24,2.24,0,0,1-2-2.45c0-1.31,0-2.62,0-3.93Z" style="fill:#fff"/><path d="M109.18,16.55v.72h-2.81a3.22,3.22,0,0,0-.06.35c0,2.25,0,4.51,0,6.76a2.53,2.53,0,0,0,.06.61,1.08,1.08,0,0,0,1,.93,1.17,1.17,0,0,0,1.26-.65,3.27,3.27,0,0,0,.28-1.05c.07-.87.09-1.74.13-2.61a1.25,1.25,0,0,1,0-.34.24.24,0,0,1,.2-.14c.07,0,.14.08.19.15s0,.08,0,.13a18.56,18.56,0,0,1-.11,3.16,1.83,1.83,0,0,1-1.7,1.63,5.31,5.31,0,0,1-1.64,0,2.32,2.32,0,0,1-2.18-2.62c0-1.81,0-3.63,0-5.45v-.77c-.68-.19-1.37,0-2.06-.27a2.61,2.61,0,0,1,.43-.24,4.85,4.85,0,0,0,3.57-4.34c0-.2.06-.41.11-.61s.13-.17.18-.16.22.09.24.16a2.53,2.53,0,0,1,0,.55c0,1.33,0,2.67,0,4a5.3,5.3,0,0,0,1.43.06C108.2,16.56,108.66,16.55,109.18,16.55Z" style="fill:#fff"/><path d="M257.44,44.92c-.72-.07-1.38,0-2.09-.06.13-.36.37-.37.58-.44A4.48,4.48,0,0,0,258,43.14a5.22,5.22,0,0,0,1.35-2.81c0-.25.08-.49.11-.74s.07-.27.25-.25.21.14.21.29v4.51h2.86v.75H260c0,.17,0,.28,0,.39q0,3.31,0,6.62a3.14,3.14,0,0,0,.09.75,1,1,0,0,0,.93.87,1.13,1.13,0,0,0,1.23-.58,2.85,2.85,0,0,0,.32-1.1c.08-.87.09-1.74.13-2.61a1.34,1.34,0,0,1,0-.35.27.27,0,0,1,.18-.15c.07,0,.15.08.21.14a.27.27,0,0,1,0,.13,18.34,18.34,0,0,1-.12,3.23,1.82,1.82,0,0,1-1.68,1.57,6.25,6.25,0,0,1-1.78,0,2.25,2.25,0,0,1-2.05-2.5c0-1.75,0-3.49,0-5.24Z" style="fill:#fff"/><path d="M239,44.14h2.86v.75H239c0,.17,0,.28,0,.39q0,3.31,0,6.62a3.14,3.14,0,0,0,.09.75,1,1,0,0,0,.93.87,1.13,1.13,0,0,0,1.23-.58,2.85,2.85,0,0,0,.32-1.1c.08-.87.09-1.74.13-2.61a1.34,1.34,0,0,1,0-.35.27.27,0,0,1,.18-.15c.07,0,.15.08.21.14a.27.27,0,0,1,0,.13,18.34,18.34,0,0,1-.12,3.23,1.82,1.82,0,0,1-1.68,1.57,6.25,6.25,0,0,1-1.78,0,2.25,2.25,0,0,1-2.05-2.5c0-1.75,0-3.5,0-5.24V45c-.68-.17-1.37,0-2.08-.13.12-.33.36-.34.57-.41A4.56,4.56,0,0,0,237,43.14a5.25,5.25,0,0,0,1.35-2.81c0-.25.08-.49.11-.74s.07-.27.25-.25.21.15.21.29v4.51Z" style="fill:#fff"/><path d="M127.65,25.87c-.45.27-5.72.35-7.15.24a2,2,0,0,1-.44-.15,2.82,2.82,0,0,1,.48-.16c.53-.05,1-.08,1.58-.14s.55-.16.56-.61c0-.74,0-1.48,0-2.21V18.08a3.85,3.85,0,0,0,0-.48c-.05-.4-.19-.56-.61-.61s-.91-.08-1.36-.12a1.1,1.1,0,0,1-.49-.14,6.26,6.26,0,0,1,2.37-.4c.79-.13,1.59-.13,2.46-.19.11.86,0,1.71.07,2.58a4.46,4.46,0,0,1,1.15-1.81,2.32,2.32,0,0,1,3-.15,1.77,1.77,0,0,1,.54,1.86,1.38,1.38,0,0,1-1.49.87,1.15,1.15,0,0,1-1.08-1,1.38,1.38,0,0,1,.81-1.51c.07,0,.15,0,.29-.08a1.19,1.19,0,0,0-1.57-.05,3.59,3.59,0,0,0-1.31,1.73,6.25,6.25,0,0,0-.38,2.22c0,1.31,0,2.62,0,3.93a2.75,2.75,0,0,0,0,.41c.06.36.17.48.53.52s1,.08,1.51.12Z" style="fill:#fff"/><path d="M185.2,16.92a1.15,1.15,0,0,0-1.53-.07,3.74,3.74,0,0,0-1.31,1.72,6.15,6.15,0,0,0-.38,2.16c0,1.35,0,2.71,0,4.07a1.93,1.93,0,0,0,0,.41.5.5,0,0,0,.5.46c.51,0,1,.08,1.51.12a1,1,0,0,1,.52.19c-.08.05-.17.13-.25.13-.37,0-.74,0-1.11,0h-5.44c-.21,0-.46.09-.68-.18a1.22,1.22,0,0,1,.35-.14l1.43-.13c.66-.06.72-.13.73-.82V18.1a3.81,3.81,0,0,0,0-.48c-.05-.41-.2-.58-.6-.63s-.91-.08-1.36-.12a1.13,1.13,0,0,1-.5-.13,5.74,5.74,0,0,1,2.35-.4,24.81,24.81,0,0,1,2.5-.2v2.69a4.71,4.71,0,0,1,1.18-1.91,2.34,2.34,0,0,1,3-.17,1.77,1.77,0,0,1,.56,1.86,1.39,1.39,0,0,1-1.48.88,1.14,1.14,0,0,1-1.09-1,1.38,1.38,0,0,1,.8-1.52C185,17,185.1,17,185.2,16.92Z" style="fill:#fff"/><path d="M272.85,48.89h-6.42a6.81,6.81,0,0,0,.44,3.22,2.18,2.18,0,0,0,2.35,1.42,3.76,3.76,0,0,0,3-1.72,3.28,3.28,0,0,0,.51-1.54c0-.13,0-.26.09-.55a2,2,0,0,1,0,1.17,3.65,3.65,0,0,1-1.9,2.41A5,5,0,0,1,264.09,51a5.27,5.27,0,0,1-.36-2.15,4.91,4.91,0,0,1,7.06-4.48,4,4,0,0,1,2,2.78A3.69,3.69,0,0,1,272.85,48.89Zm-2.2-.35c0-.3,0-.57,0-.83-.06-.53-.12-1.05-.22-1.56A6,6,0,0,0,270,45a1.3,1.3,0,0,0-1.4-.77,2,2,0,0,0-1.82,1.32,6.45,6.45,0,0,0-.4,2.08,2.26,2.26,0,0,0,0,.93Z" style="fill:#fff"/><path d="M119.23,21.28h-6.42a7,7,0,0,0,.41,3.17A2.28,2.28,0,0,0,116,25.88a3.73,3.73,0,0,0,2.61-1.62,3.56,3.56,0,0,0,.55-1.6,1,1,0,0,1,.1-.38,1.56,1.56,0,0,1,0,1,3.69,3.69,0,0,1-1.91,2.42,5,5,0,0,1-6.85-2.27,5.26,5.26,0,0,1-.35-2.15,4.9,4.9,0,0,1,7.07-4.47,4,4,0,0,1,1.95,2.78A3.79,3.79,0,0,1,119.23,21.28Zm-2.2-.35a7.72,7.72,0,0,0,0-.84,14.81,14.81,0,0,0-.2-1.49,5.31,5.31,0,0,0-.37-1.17,1.37,1.37,0,0,0-1.58-.82,2,2,0,0,0-1.68,1.33,7.32,7.32,0,0,0-.39,3Z" style="fill:#fff"/><path d="M176.23,21.3h-6.42a6.89,6.89,0,0,0,.41,3.14,2.19,2.19,0,0,0,2.38,1.48,3.75,3.75,0,0,0,3-1.71,3.28,3.28,0,0,0,.51-1.55c0-.13,0-.26.09-.54a1.92,1.92,0,0,1,0,1.16,3.62,3.62,0,0,1-1.9,2.41,5,5,0,0,1-6.85-2.25,5.3,5.3,0,0,1-.35-2.16,4.9,4.9,0,0,1,7-4.48,4,4,0,0,1,2,2.78A3.76,3.76,0,0,1,176.23,21.3Zm-6.42-.37H174c0-.31,0-.58,0-.85a14.81,14.81,0,0,0-.2-1.49,5.93,5.93,0,0,0-.38-1.17,1.37,1.37,0,0,0-1.58-.81,2,2,0,0,0-1.68,1.33A7.32,7.32,0,0,0,169.81,20.93Z" style="fill:#fff"/><path d="M102.69,48.89H96.26a4.92,4.92,0,0,0,0,1.38,5.34,5.34,0,0,0,.63,2.23,2.1,2.1,0,0,0,1.84,1,3.64,3.64,0,0,0,3.83-3.43,1.15,1.15,0,0,1,.06-.21,1.38,1.38,0,0,1,0,1,3.67,3.67,0,0,1-1.93,2.4A5,5,0,0,1,93.89,51a5.3,5.3,0,0,1-.34-2.16,4.9,4.9,0,0,1,7.08-4.44,3.78,3.78,0,0,1,1.75,2.14A5.35,5.35,0,0,1,102.69,48.89Zm-2.24-.35a8.24,8.24,0,0,0-.2-2.35A4.83,4.83,0,0,0,99.88,45a1.36,1.36,0,0,0-1.52-.81,1.93,1.93,0,0,0-1.69,1.22,7,7,0,0,0-.43,3.11Z" style="fill:#fff"/><path d="M211.33,52.74l-.89.95a17,17,0,0,1,0-4c.13.37.22.67.34,1a11.66,11.66,0,0,0,.64,1.44,2.61,2.61,0,0,0,1.95,1.39,4.68,4.68,0,0,0,2,0,1.31,1.31,0,0,0,1-1.09,1.52,1.52,0,0,0-.58-1.65,4.64,4.64,0,0,0-1.18-.53c-.59-.18-1.21-.25-1.8-.43a8,8,0,0,1-1.58-.64A2.51,2.51,0,0,1,210,46.48a2.73,2.73,0,0,1,1.79-2.33,4,4,0,0,1,2.89,0l.07,0a2.82,2.82,0,0,0,1.09.37c.35,0,.67-.33,1-.51a1.08,1.08,0,0,1,.17,0V47.3l-.11,0-.21-.46a4.12,4.12,0,0,0-2.07-2.38,3.1,3.1,0,0,0-2.48-.07,1.41,1.41,0,0,0-.93.94,1.22,1.22,0,0,0,.45,1.52,5.5,5.5,0,0,0,1.31.58c.72.22,1.46.37,2.19.55a10.37,10.37,0,0,1,1,.31,2.74,2.74,0,0,1,1.81,3.18,2.44,2.44,0,0,1-1.82,2.12,6.16,6.16,0,0,1-2.86.17,3.6,3.6,0,0,1-1.13-.48A7.57,7.57,0,0,1,211.33,52.74Z" style="fill:#fff"/><path d="M203.23,25a3.58,3.58,0,0,1-2.34,1.18,4.93,4.93,0,0,1-5.49-3.56,5.07,5.07,0,0,1,2.11-5.49,5,5,0,0,1,5.5-.09,2.37,2.37,0,0,1,1,1.78,1.2,1.2,0,0,1-.67,1.25,1.36,1.36,0,0,1-1.5,0,1,1,0,0,1-.48-1,1,1,0,0,1,.64-.91c.19-.08.38-.13.57-.19a1.79,1.79,0,0,0-1.81-1.39,2.12,2.12,0,0,0-2.48,1.59,6.83,6.83,0,0,0-.27,1.27,11.49,11.49,0,0,0,.21,4.37,5,5,0,0,0,.49,1.05,2.13,2.13,0,0,0,2.24,1,3.41,3.41,0,0,0,1.94-.82.88.88,0,0,1,.23-.14Z" style="fill:#fff"/><path d="M111.72,52.64a3.63,3.63,0,0,1-2.34,1.18,4.93,4.93,0,0,1-5.49-3.57,5.07,5.07,0,0,1,2.1-5.49,5,5,0,0,1,5.5-.09,2.37,2.37,0,0,1,1,1.79,1.2,1.2,0,0,1-.68,1.25,1.36,1.36,0,0,1-1.49,0,1,1,0,0,1-.48-1,1,1,0,0,1,.64-.9,5.44,5.44,0,0,1,.57-.19,1.8,1.8,0,0,0-1.82-1.4,2.12,2.12,0,0,0-2.47,1.59,6.4,6.4,0,0,0-.27,1.27,11.28,11.28,0,0,0,.21,4.37,5.1,5.1,0,0,0,.49,1.06,2.13,2.13,0,0,0,2.24,1,3.31,3.31,0,0,0,1.93-.83,1.88,1.88,0,0,1,.24-.14Z" style="fill:#fff"/><path d="M157.68,52.64a3.63,3.63,0,0,1-2.34,1.18,4.93,4.93,0,0,1-5.49-3.57A5.07,5.07,0,0,1,152,44.76a5,5,0,0,1,5.5-.09,2.39,2.39,0,0,1,1,1.79,1.19,1.19,0,0,1-.67,1.25,1.38,1.38,0,0,1-1.5,0,1.05,1.05,0,0,1-.48-1,1,1,0,0,1,.64-.9,5.62,5.62,0,0,1,.58-.19,1.81,1.81,0,0,0-1.82-1.4,2.12,2.12,0,0,0-2.48,1.59,8.22,8.22,0,0,0-.27,1.27,11.28,11.28,0,0,0,.22,4.37,5.07,5.07,0,0,0,.48,1.06,2.14,2.14,0,0,0,2.24,1,3.36,3.36,0,0,0,1.94-.83,1.28,1.28,0,0,1,.23-.14Z" style="fill:#fff"/><path d="M194.37,26a1,1,0,0,1-.28.09,60.22,60.22,0,0,1-7.22-.13,1.48,1.48,0,0,1,.36-.18c.55-.06,1.1-.08,1.64-.14s.56-.16.61-.59a3.85,3.85,0,0,0,0-.48V18.18c0-1.08-.13-1.22-1.21-1.3-.32,0-.64,0-1,0a5.27,5.27,0,0,1-.52-.12,7.05,7.05,0,0,1,2.56-.41c.81-.13,1.63-.14,2.51-.21,0,.31,0,.55,0,.8V24.5c0,.19,0,.37,0,.56,0,.44.12.56.57.61l1.44.12.45.07Z" style="fill:#fff"/><path d="M141.4,44.2c1.61-.24,3.24-.3,4.92-.47,0,.31,0,.56,0,.81v7.57c0,.19,0,.37,0,.55,0,.45.13.56.58.61s.95.09,1.43.13l.45.06c0,.3-.2.26-.35.26h-6.4l-.66,0,0-.14a1,1,0,0,1,.3-.14c.55-.06,1.1-.09,1.65-.14s.55-.16.6-.6a3.81,3.81,0,0,0,0-.48v-6.4c0-1.08-.13-1.22-1.21-1.3-.32,0-.64,0-1,0a1.53,1.53,0,0,1-.37-.08Z" style="fill:#fff"/><path d="M234,53.62a1.11,1.11,0,0,1-.29.1,60.27,60.27,0,0,1-7.22-.13,1.18,1.18,0,0,1,.36-.18c.55-.06,1.1-.09,1.65-.14s.55-.16.6-.59a3.85,3.85,0,0,0,0-.48V45.79c0-1.08-.13-1.22-1.2-1.3-.32,0-.65,0-1,0a3,3,0,0,1-.51-.11,7,7,0,0,1,2.55-.42c.81-.13,1.64-.13,2.51-.2,0,.3,0,.55,0,.79v7.58c0,.18,0,.37,0,.55,0,.45.12.56.57.61s.95.09,1.43.13l.46.06Z" style="fill:#fff"/><path d="M230.18,41.3a1.34,1.34,0,1,1,0-2.67,1.34,1.34,0,1,1,0,2.67Z" style="fill:#fff"/><path d="M190.59,13.69a1.33,1.33,0,1,1,0-2.66,1.33,1.33,0,1,1,0,2.66Z" style="fill:#fff"/><path d="M145,41.3a1.34,1.34,0,1,1,0-2.67,1.34,1.34,0,1,1,0,2.67Z" style="fill:#fff"/><path d="M157.59,52.55a4.42,4.42,0,0,0,.94-1.87c0-.29.05-.59.09-.88,0-.12.06-.24.11-.44a3.61,3.61,0,0,1-1,3.28Z" style="fill:#fff"/><path d="M203.14,25a4.45,4.45,0,0,0,.94-1.88c0-.29,0-.58.09-.88a3.94,3.94,0,0,1,.11-.44A3.61,3.61,0,0,1,203.23,25Z" style="fill:#fff"/><path d="M111.63,52.55a4.29,4.29,0,0,0,.93-1.87c0-.29.06-.59.1-.88a3.46,3.46,0,0,1,.11-.44,3.64,3.64,0,0,1-1,3.28Z" style="fill:#fff"/><path d="M35.34,1.3A31.64,31.64,0,0,1,65.8,33.78,30.59,30.59,0,0,1,56,56a30.62,30.62,0,0,1-22.72,8.79,30.73,30.73,0,0,1-22-9.76,30.79,30.79,0,0,1-8.84-22.4A30.71,30.71,0,0,1,12.29,10,30.94,30.94,0,0,1,35.34,1.3ZM34.09,59a26,26,0,0,0,18.1-7.37A25.38,25.38,0,0,0,60,33.05a25.06,25.06,0,0,0-7.47-18.24A25.18,25.18,0,0,0,34.17,7.1,25.83,25.83,0,0,0,8.24,32.82a25.18,25.18,0,0,0,7.43,18.37A25.37,25.37,0,0,0,34.09,59ZM10.88,18c-.39.05-.49-.21-.61-.43a1.57,1.57,0,0,1,.47-.83c.35-.18.54.11.76.33.17-.3.43-.49.45-.79-.25,0-.45,0-.64-.07l-1.74-.34c-.18,0-.36-.12-.55.06a3.23,3.23,0,0,0,.2.42l1,1.7c.26.44.16.75-.33.9a8.61,8.61,0,0,1-1.08.21,1.36,1.36,0,0,1,0-.31.59.59,0,0,0-.36-.65.61.61,0,0,0-.71.24,4.27,4.27,0,0,0-.83,1.88c.21-.28.35-.33.56-.23.42.21.85.41,1.28.59a.78.78,0,0,1,.48.6,4.06,4.06,0,0,0,.43-1.07c-.49.23-.76-.09-1.15-.31a3.16,3.16,0,0,1,1.21-.36.68.68,0,0,0,.54-.35ZM42.19,4.12c.2.34.21.35.14.59s-.21.74-.33,1.15l-.93-1.72a.69.69,0,0,0-.57-.4l-1.71-.3c.53.4.11.8.1,1.21l-1.14-.18c0-.41-.17-.85.45-1a1.5,1.5,0,0,0-1.09-.15,1.85,1.85,0,0,1,.13.47c0,.4-.08.81-.12,1.22a1.93,1.93,0,0,1,0,.42,1.85,1.85,0,0,1-.32.41l1.11.07c-.39-.38-.21-.73-.19-1.1A1.79,1.79,0,0,1,38.83,5c0,.38,0,.76-.48,1l1.07.18c-.09-.18-.2-.28-.18-.37.11-.66.24-1.32.36-2a1.37,1.37,0,0,1,.3,0c.43,0,.56.22.47.65s-.18.84-.29,1.25a3.49,3.49,0,0,1-.27.55l.71.13c-.06-.17-.17-.32-.14-.43a3.55,3.55,0,0,1,.37-1.3c.48.69.72,1.46,1.23,2.21.1-.3.17-.48.23-.67.13-.41.25-.82.37-1.23a.67.67,0,0,1,.51-.55ZM12.53,11.67l-.56.58.74,1.87a2.46,2.46,0,0,1-.4,0c-.44-.08-.89-.16-1.32-.28a.42.42,0,0,0-.53.17c-.12.17-.23.35-.35.53.22,0,.35-.19.55,0,.42.36.87.68,1.29,1.05a2,2,0,0,1,.27.51l.57-.76c-.23.07-.34.13-.43.11a4.42,4.42,0,0,1-1.17-1c.7.1,1.35.34,2.12.38L12.59,13c.46.34,1.12.51,1.07,1.35l.76-.87a1.12,1.12,0,0,1-.44-.09c-.42-.36-.83-.73-1.22-1.13A2.23,2.23,0,0,1,12.53,11.67ZM4.46,30.33l.11,0c.06-.1.12-.21.19-.31a.43.43,0,0,1,.46-.22c.39.05.78.05,1.16.13a4.6,4.6,0,0,1,.76.33v-1c-.16.32-.32.44-.57.39-.4-.07-.8-.11-1.23-.17a24.28,24.28,0,0,1,2.23-2c-.69-.15-1.28-.3-1.88-.39-.37-.05-.63-.17-.72-.56l-.18,1.08c.19-.09.34-.23.48-.22.4.05.8.16,1.26.25-.46.4-.85.77-1.27,1.09s-.82.68-.73,1.31A.58.58,0,0,1,4.46,30.33Zm49-17.13a6.44,6.44,0,0,1,1.27-1.37,12.1,12.1,0,0,0,0,1.32c0,.41-.26.82,0,1.28.23-.18.43-.32.61-.48s.57-.53.87-.78.31-.24.74-.19l-.63-.76c-.06.74-.64.91-1.06,1.33a3.57,3.57,0,0,1,0-.42c0-.41,0-.82.11-1.22a1.07,1.07,0,0,0-.57-1.18s-.07,0-.11,0l.18.49-1.07,1.09a1.19,1.19,0,0,1-.32.28,1.73,1.73,0,0,1-.5,0ZM17.41,11c-.61,0-.79-.33-1-.78.25,0,.43.05.61.09s.47.14.71.19a.57.57,0,0,0,.72-.31L16.94,9.7a3.28,3.28,0,0,0,.19-.36.56.56,0,0,0-.6-.76.83.83,0,0,0-.41.1,5.63,5.63,0,0,0-1.28.94c.19.08.41.09.51.21a5.88,5.88,0,0,1,1.26,1.72ZM63.43,30c.06.58.25,1.16-.3,1.64.5.17.63.11.62-.3s-.06-1-.11-1.53c0-.31-.09-.62-.14-.93a.51.51,0,0,1-.5.49c-.49.06-1,.11-1.47.18-.24,0-.35-.11-.46-.31a5.45,5.45,0,0,0,0,.8c0,.43.08.86.1,1.29s.1.58.72.61c-.6-.92-.6-.92-.5-1.74l.84-.14a1.08,1.08,0,0,1-.14,1.3c.3,0,.58.14.84-.09a1.6,1.6,0,0,1-.35-1.17l.67-.14A.63.63,0,0,1,63.43,30ZM25.14,5.27l.1-.07,2.15,1.33a2.61,2.61,0,0,0-.06-.5c-.11-.49-.24-1-.37-1.49a1.42,1.42,0,0,1,0-.36c0-.08.09-.16.2-.34l-.81.22c.46.43.42,1,.59,1.57-.61-.37-1.14-.67-1.65-1a.82.82,0,0,0-1,0c.18.15.43.26.49.43A6.55,6.55,0,0,1,25.27,7l.59-.18C25.36,6.4,25.38,5.78,25.14,5.27ZM6.59,20.78l-.82,2.38A.58.58,0,0,1,6.54,23a12.45,12.45,0,0,0,1.21.44.73.73,0,0,1,.51.5L9,21.82c-.21-.15-.29-.39-.58-.37.3.82.3.83-.17,1.58l-.85-.32c.11-.4.14-.78.63-.85-.47-.35-.47-.35-.87-.33.37.38.15.71,0,1.08l-.79-.31c.26-.92.26-.92.84-1.28Zm56.05,3.41c-.12.18-.19.4-.31.45A8,8,0,0,1,61,25c-.4.06-.68-.2-.77-.63a.63.63,0,0,1,.4-.85c.34-.15.7-.23,1-.38a.78.78,0,0,1,.78,0L62,22a.69.69,0,0,1-.56.6,4.37,4.37,0,0,0-.68.27c-.88.35-1.06.73-.77,1.63a1.42,1.42,0,0,0,.1.29.91.91,0,0,0,1.15.56,6.21,6.21,0,0,0,.94-.25c.29-.11.48,0,.66.29A1.73,1.73,0,0,0,62.64,24.19ZM14.85,10.49c-.48-.51-.48-.51-.84-.2l-.73.65c-.19.17-.36.35-.54.53a.6.6,0,0,1,.63.18c.3.35.64.64.94,1a4.51,4.51,0,0,1,.38.64l1.11-1c.33-.32.31-.49-.18-.91A.94.94,0,0,1,15,12.53l-.7-.64c.4-.44.4-.44,1-.39l-.64-.76c-.06.64-.06.64-.56.9-.17-.2-.44-.34-.52-.62A1.08,1.08,0,0,1,14.85,10.49ZM47.91,9.05a1.86,1.86,0,0,0,.87.54c-.2-1,.35-1.95.13-3L46.38,8.37l.7.31c0-.41,0-.41.43-.68l.33.16.16.08c.32.19.36.32.18.65C48.13,9,48,9,47.91,9.05Zm-23-1.9c-.25-.21-.46-.35-.64-.52-.44-.44-.86-.89-1.29-1.32a1.17,1.17,0,0,0-.32-.18c-.32,1-.05,2-.28,3L23,7.82c-.34-.3-.34-.3-.23-.81.26-.08.56-.27.79-.21s.4.36.62.59Zm7.33-2.57a.91.91,0,0,1,1,.23c0-.22,0-.33,0-.45s0-.26-.08-.53a.67.67,0,0,1-.9.4c0-.19,0-.37,0-.55s.1-.32.32-.36a.9.9,0,0,1,.91.38c.15-.51.13-.55-.25-.55s-1.06,0-1.6,0a1,1,0,0,0-.31.13c.34.06.41.26.43.55s.06.81.11,1.22a.62.62,0,0,1-.34.67c.62,0,1.14,0,1.65,0s.51-.13.51-.74a1,1,0,0,1-1.27.45Zm26,10.08c-.18-.29-.31-.54-.46-.77a.73.73,0,0,0-1.34.28,2.51,2.51,0,0,0,0,.67,6.15,6.15,0,0,1,.06.73c0,.23-.19.31-.4.21a.67.67,0,0,1-.34-.92l.12-.29a1.06,1.06,0,0,0-.68.46l.3.41a3.6,3.6,0,0,0,.28.4.81.81,0,0,0,.95.22.84.84,0,0,0,.36-.9,6.54,6.54,0,0,1-.14-.85.52.52,0,0,1,.22-.38.31.31,0,0,1,.42.15.6.6,0,0,1,.06.69,2.57,2.57,0,0,0-.18.37C57.8,15.05,58,14.81,58.17,14.66Zm4.18,11.15.37.18a.62.62,0,0,1,.26.64c0,.21-.24.18-.39.21a11.91,11.91,0,0,0-1.32.28c-.28.09-.41,0-.6-.21.13.42,0,.86.24,1.21.13-.15.21-.36.34-.39.61-.14,1.22-.24,1.8-.35a.86.86,0,0,1-.18,1.1c.6.08.65,0,.57-.44s-.11-.81-.17-1.22-.12-.64-.19-1a.26.26,0,0,0-.41-.2ZM46.42,7.58a5,5,0,0,1-.7.14A.84.84,0,0,1,44.79,7a1.52,1.52,0,0,1,.58-1.23.75.75,0,0,1,1.25.49,5.08,5.08,0,0,0,.16.49l.28-.9-.68-.35a1.38,1.38,0,0,0-1.51,0A1.42,1.42,0,0,0,44.27,7a1.18,1.18,0,0,0,.89.91A1.07,1.07,0,0,0,46.42,7.58ZM6.27,23.85l0-.13-.5-.21a3.38,3.38,0,0,0-.16.36c-.17.66-.33,1.31-.48,2-.1.42,0,.52.54.44-.39-.61-.37-.54-.06-1.05.56.15,1.13.28,1.7.45.11,0,.18.19.26.3a2.2,2.2,0,0,1,.17.31L8,25c-.89.19-1.58-.29-2.33-.43C5.68,24.19,5.79,23.87,6.27,23.85ZM21.74,7.67l-.26.39a.84.84,0,0,1-1.43.19,1.61,1.61,0,0,1-.48-1,.7.7,0,0,1,.29-.7.68.68,0,0,1,.8-.09l.45.25A.75.75,0,0,0,21,6.32c-.07-.11-.16-.22-.23-.31-.25.09-.46.15-.67.24a1.72,1.72,0,0,0-.49.24A1.26,1.26,0,0,0,19.17,8,1.45,1.45,0,0,0,20.62,9,1.25,1.25,0,0,0,21.74,7.67ZM36.4,4.13c.12-.58.12-.58,0-.94a2.51,2.51,0,0,1-.67-.08,1.24,1.24,0,0,0-.83.06A1.26,1.26,0,0,0,34,4.39a1.3,1.3,0,0,0,.76,1.29,1.4,1.4,0,0,0,1.48-.24,1.83,1.83,0,0,0,.22-.37,6.77,6.77,0,0,1-.59.36.87.87,0,0,1-1.2-.51,1.9,1.9,0,0,1,.07-1.15.78.78,0,0,1,1.38-.12C36.22,3.76,36.28,3.89,36.4,4.13ZM58.83,21l.41,1c.1-.16.14-.33.24-.39a10.16,10.16,0,0,1,1.8-.79c.41.33.12.65,0,1.08l.65-.29a16,16,0,0,0-1.06-2.42l-.49.3c.38.16.74.26.66.74-.51.25-1,.51-1.54.73A2.66,2.66,0,0,1,58.83,21Zm-1.45-2.87c.09-.19.12-.4.25-.49.51-.37,1.06-.69,1.59-1a.67.67,0,0,1,.15.87s0,.05.08.11l.47-.29a13.28,13.28,0,0,0-1.32-2.1l-.41.25s0,.07,0,.11c.47.11.47.11.75.55l-1.4,1c-.28.19-.29.18-.7.08ZM30.94,3.23l-2,.29c-.4.07-.43.21-.12.59,0-.07.07-.15.11-.21a.42.42,0,0,1,.48-.21c.19.06.17.25.19.41.07.44.15.89.2,1.33a2.73,2.73,0,0,1-.11.61l.92-.15a1.84,1.84,0,0,1-.27-.45c-.09-.58-.16-1.17-.23-1.75,0,0,0-.07.06-.1.33-.15.56,0,.78.33ZM4.46,32a.64.64,0,0,1,.6-.28,11.11,11.11,0,0,0,1.29,0,.6.6,0,0,1,.66.4V30.87a.55.55,0,0,1-.58.29c-.41,0-.82,0-1.23,0a.74.74,0,0,1-.74-.49ZM50.38,7.59c.12.38.12.38,0,.63s-.47.72-.71,1.08l-.39.6.64.43.82.52.48-.42A1.26,1.26,0,0,1,49.85,10a4.52,4.52,0,0,1,1.42-1.85A2.1,2.1,0,0,0,50.38,7.59ZM28.44,60.22A4.34,4.34,0,0,1,28,62c.2.09.31.07.34-.13s.09-.54.13-.81a2.76,2.76,0,0,0,.38,1.07c.11-.17.19-.28.26-.4l.24-.35.06,0-.19.85h.46a3.79,3.79,0,0,1,.3-1.77c-.28-.12-.41,0-.51.23l-.49.92c-.06-.33-.11-.55-.15-.76a2.93,2.93,0,0,0-.12-.53C28.7,60.32,28.56,60.29,28.44,60.22ZM60.75,18.85l-.6-1.09a.69.69,0,0,1-.45.64,13.3,13.3,0,0,0-1.22.7c-.2.12-.35,0-.56,0l.51,1c.14-.47.14-.47.5-.66L60,18.86C60.34,18.68,60.34,18.69,60.75,18.85ZM43.49,4.46c0,.25.1.43,0,.55-.26.65-.25,1.41-.81,1.94a3.07,3.07,0,0,0,1,.27c-.22-.35-.24-.37-.15-.64.15-.44.31-.89.48-1.33A.51.51,0,0,1,44.22,5a1.5,1.5,0,0,1,.42-.16ZM17.33,7.83c.4.07.4.06.59.34s.54.82.79,1.24a2.47,2.47,0,0,1,.17.56l.82-.52,0-.15c-.4.14-.53-.09-.67-.33s-.34-.51-.49-.78-.28-.53-.44-.84Zm36.32,2h-.18c.36.4.05.58-.11.78a10.75,10.75,0,0,1-.78.87c-.17.17-.38.3-.58.47l.72.59c0-.42,0-.42.2-.66s.56-.66.85-1a4.6,4.6,0,0,1,.58-.43ZM39.28,60.32c-.14.13-.27.22-.26.25.14.29,0,.46-.19.67A.82.82,0,0,0,39,62.3c.19.18.32.16.73-.14Zm-6.86,1.35c0,.39,0,.63,0,.87,0,.06.11.15.15.14a.22.22,0,0,0,.17-.14,4.86,4.86,0,0,0,0-.66c0-.2-.07-.45-.25-.43-.35,0-.7-.23-1.09,0,0,.16,0,.34,0,.52s-.05.39-.07.57c.28.09.32,0,.34-.23s-.09-.48.21-.68a6.61,6.61,0,0,0,0,.78c0,.08.14.15.21.23a.75.75,0,0,0,.08-.24A.87.87,0,0,1,32.42,61.67Zm4.85.37c0-.39-.22-.69-.48-.67s-.45.33-.41.71.24.62.48.61S37.27,62.41,37.27,62Zm-2.51-1.18v1.87l.33,0L35,61.88l.45.08,0-.45-.38.07c-.05-.51-.05-.51.51-.42.08-.17,0-.28-.16-.3ZM31.2,62h0a2.94,2.94,0,0,0,0-.42.28.28,0,0,0-.33-.28c-.18,0-.33.15-.27.33s0,.29-.1.43c-.16.34,0,.48.35.54s.33-.07.35-.29Zm9.4,0c-.1-.32-.17-.64-.29-.93a.27.27,0,0,0-.41-.15c-.16.09-.27.24-.12.39s.08.19.06.32c-.08.55,0,.64.59.48A.7.7,0,0,0,40.6,62Zm-4.52-1.27c-.13.1-.28.17-.27.23,0,.5,0,1,.08,1.51,0,.14,0,.26.2.22a.27.27,0,0,0,.16-.2C36.21,61.93,36.15,61.37,36.08,60.73Zm2,.56h-.34c-.4.06-.4.06-.33.44a4.2,4.2,0,0,1,.06.61c0,.14.05.25.21.24s.19-.14.14-.27A.83.83,0,0,1,38.09,61.29Zm-4.74,1.39c0-.34,0-.64,0-.94,0-.13,0-.27-.19-.24a.31.31,0,0,0-.16.22,4.09,4.09,0,0,0,0,.78C33,62.73,33.15,62.74,33.35,62.68ZM30,62a1.4,1.4,0,0,0-.07.33c0,.05.1.12.17.15a.17.17,0,0,0,.14-.08c.05-.31.1-.63.13-1,0,0-.1-.17-.13-.16s-.19.08-.2.15A2.86,2.86,0,0,0,30,62Zm8.62.39c0-.37-.07-.67-.13-1,0-.06-.14-.1-.22-.13s-.1.08-.1.12c0,.32.07.64.13.95,0,.05.14.11.22.11S38.58,62.35,38.58,62.35Z" style="fill:#fff"/><path d="M137.39,14.83l2.24,5.68h-4.48C135.89,18.64,136.61,16.82,137.39,14.83Z" style="fill:#fff"/><path d="M211.71,20.7c0,.94,0,1.93,0,2.91a2.55,2.55,0,0,1-2.33,2.32,1,1,0,0,1-1.19-.8,4.55,4.55,0,0,1,.06-2.78,1.78,1.78,0,0,1,1.52-1.23,8.89,8.89,0,0,0,.88-.13C211,20.91,211.35,20.8,211.71,20.7Z" style="fill:#fff"/><path d="M166.17,48.31c0,.94,0,1.88,0,2.82a2.55,2.55,0,0,1-2.25,2.4,1,1,0,0,1-1.29-.85,4.6,4.6,0,0,1,.07-2.7,1.76,1.76,0,0,1,1.51-1.25c.29,0,.59-.07.88-.13S165.78,48.41,166.17,48.31Z" style="fill:#fff"/><path d="M270.65,48.54h-4.19a2.26,2.26,0,0,1,0-.93,6.45,6.45,0,0,1,.4-2.08,2,2,0,0,1,1.82-1.32A1.3,1.3,0,0,1,270,45a6,6,0,0,1,.39,1.17c.1.51.16,1,.22,1.56C270.67,48,270.65,48.24,270.65,48.54Z" style="fill:#fff"/><path d="M117,20.93H112.8a7.32,7.32,0,0,1,.39-3,2,2,0,0,1,1.68-1.33,1.37,1.37,0,0,1,1.58.82,5.31,5.31,0,0,1,.37,1.17,14.81,14.81,0,0,1,.2,1.49A7.72,7.72,0,0,1,117,20.93Z" style="fill:#fff"/><path d="M169.81,20.93a7.32,7.32,0,0,1,.38-3,2,2,0,0,1,1.68-1.33,1.37,1.37,0,0,1,1.58.81,5.93,5.93,0,0,1,.38,1.17,14.81,14.81,0,0,1,.2,1.49c0,.27,0,.54,0,.85Z" style="fill:#fff"/><path d="M100.45,48.54H96.24a7,7,0,0,1,.43-3.11,1.93,1.93,0,0,1,1.69-1.22,1.36,1.36,0,0,1,1.52.81,4.83,4.83,0,0,1,.37,1.17A8.24,8.24,0,0,1,100.45,48.54Z" style="fill:#fff"/><path d="M34.09,59a25.37,25.37,0,0,1-18.42-7.76A25.18,25.18,0,0,1,8.24,32.82,25.83,25.83,0,0,1,34.17,7.1a25.18,25.18,0,0,1,18.37,7.71A25.06,25.06,0,0,1,60,33.05a25.38,25.38,0,0,1-7.82,18.53A26,26,0,0,1,34.09,59ZM59.31,33.3a25.15,25.15,0,0,0-6.87-17.57A24.43,24.43,0,0,0,34.12,7.8a24.28,24.28,0,0,0-17.28,6.87,24.51,24.51,0,0,0-7.9,18A24.43,24.43,0,0,0,16.3,50.81a24.26,24.26,0,0,0,17.8,7.41,24.36,24.36,0,0,0,17.8-7.39A24.87,24.87,0,0,0,59.31,33.3Z" style="fill:#fff"/><path d="M10.88,18l-.65,1.19a.68.68,0,0,1-.54.35,3.16,3.16,0,0,0-1.21.36c.39.22.66.54,1.15.31a4.06,4.06,0,0,1-.43,1.07.78.78,0,0,0-.48-.6c-.43-.18-.86-.38-1.28-.59-.21-.1-.35-.05-.56.23a4.27,4.27,0,0,1,.83-1.88.61.61,0,0,1,.71-.24.59.59,0,0,1,.36.65,1.36,1.36,0,0,0,0,.31A8.61,8.61,0,0,0,9.89,19c.49-.15.59-.46.33-.9l-1-1.7A3.23,3.23,0,0,1,9,16c.19-.18.37-.1.55-.06l1.74.34c.19,0,.39,0,.64.07,0,.3-.28.49-.45.79-.22-.22-.41-.51-.76-.33a1.57,1.57,0,0,0-.47.83C10.39,17.83,10.49,18.09,10.88,18ZM8.28,19.9a1.79,1.79,0,0,0,.18-.52A.62.62,0,0,0,8.31,19a.62.62,0,0,0-.44-.09.48.48,0,0,0-.35.46c0,.2.12.28.28.34Z" style="fill:#fff"/><path d="M42.19,4.12l.9.28a.67.67,0,0,0-.51.55c-.12.41-.24.82-.37,1.23-.06.19-.13.37-.23.67-.51-.75-.75-1.52-1.23-2.21a3.55,3.55,0,0,0-.37,1.3c0,.11.08.26.14.43l-.71-.13a3.49,3.49,0,0,0,.27-.55c.11-.41.19-.84.29-1.25s0-.61-.47-.65a1.37,1.37,0,0,0-.3,0c-.12.65-.25,1.31-.36,2,0,.09.09.19.18.37L38.35,6c.49-.25.47-.63.48-1a1.79,1.79,0,0,0-1.16-.18c0,.37-.2.72.19,1.1l-1.11-.07a1.85,1.85,0,0,0,.32-.41,1.93,1.93,0,0,0,0-.42c0-.41.1-.82.12-1.22a1.85,1.85,0,0,0-.13-.47,1.5,1.5,0,0,1,1.09.15c-.62.16-.42.6-.45,1l1.14.18c0-.41.43-.81-.1-1.21l1.71.3a.69.69,0,0,1,.57.4L42,5.86c.12-.41.23-.78.33-1.15S42.39,4.46,42.19,4.12Z" style="fill:#fff"/><path d="M12.53,11.67a2.23,2.23,0,0,0,.23.58c.39.4.8.77,1.22,1.13a1.12,1.12,0,0,0,.44.09l-.76.87c.05-.84-.61-1-1.07-1.35l.72,1.79c-.77,0-1.42-.28-2.12-.38a4.42,4.42,0,0,0,1.17,1c.09,0,.2,0,.43-.11l-.57.76a2,2,0,0,0-.27-.51c-.42-.37-.87-.69-1.29-1.05-.2-.16-.33,0-.55,0,.12-.18.23-.36.35-.53a.42.42,0,0,1,.53-.17c.43.12.88.2,1.32.28a2.46,2.46,0,0,0,.4,0L12,12.25Z" style="fill:#fff"/><path d="M4.46,30.33a.58.58,0,0,0,.07-.28c-.09-.63.28-1,.73-1.31s.81-.69,1.27-1.09c-.46-.09-.86-.2-1.26-.25-.14,0-.29.13-.48.22L5,26.54c.09.39.35.51.72.56.6.09,1.19.24,1.88.39a24.28,24.28,0,0,0-2.23,2c.43.06.83.1,1.23.17.25.05.41-.07.57-.39v1A4.6,4.6,0,0,0,6.38,30c-.38-.08-.77-.08-1.16-.13a.43.43,0,0,0-.46.22c-.07.1-.13.21-.19.31Z" style="fill:#fff"/><path d="M53.42,13.2l-.57-.54a1.73,1.73,0,0,0,.5,0,1.19,1.19,0,0,0,.32-.28l1.07-1.09-.18-.49s.09,0,.11,0a1.07,1.07,0,0,1,.57,1.18c-.06.4-.08.81-.11,1.22a3.57,3.57,0,0,0,0,.42c.42-.42,1-.59,1.06-1.33l.63.76c-.43-.05-.44-.06-.74.19s-.57.53-.87.78-.38.3-.61.48c-.24-.46,0-.87,0-1.28a12.1,12.1,0,0,1,0-1.32A6.44,6.44,0,0,0,53.42,13.2Z" style="fill:#fff"/><path d="M17.41,11l-.8.6a5.88,5.88,0,0,0-1.26-1.72c-.1-.12-.32-.13-.51-.21a5.63,5.63,0,0,1,1.28-.94.83.83,0,0,1,.41-.1.56.56,0,0,1,.6.76,3.28,3.28,0,0,1-.19.36l1.51.44a.57.57,0,0,1-.72.31c-.24,0-.47-.14-.71-.19s-.36,0-.61-.09C16.62,10.62,16.8,11,17.41,11Zm-1.2-.9c.23-.2.52-.34.42-.68a.55.55,0,0,0-.3-.35c-.28-.1-.49.06-.66.31Z" style="fill:#fff"/><path d="M63.43,30a.63.63,0,0,0-.21,0l-.67.14a1.6,1.6,0,0,0,.35,1.17c-.26.23-.54.08-.84.09a1.08,1.08,0,0,0,.14-1.3l-.84.14c-.1.82-.1.82.5,1.74-.62,0-.69-.09-.72-.61s-.07-.86-.1-1.29a5.45,5.45,0,0,1,0-.8c.11.2.22.34.46.31.49-.07,1-.12,1.47-.18a.51.51,0,0,0,.5-.49c0,.31.11.62.14.93,0,.51.1,1,.11,1.53s-.12.47-.62.3C63.68,31.16,63.49,30.58,63.43,30Z" style="fill:#fff"/><path d="M25.14,5.27c.24.51.22,1.13.72,1.58L25.27,7a6.55,6.55,0,0,0-.53-1.94c-.06-.17-.31-.28-.49-.43a.82.82,0,0,1,1,0c.51.35,1,.65,1.65,1-.17-.57-.13-1.14-.59-1.57l.81-.22c-.11.18-.19.26-.2.34a1.42,1.42,0,0,0,0,.36c.13.5.26,1,.37,1.49a2.61,2.61,0,0,1,.06.5L25.24,5.2Z" style="fill:#fff"/><path d="M6.59,20.78l.57.24c-.58.36-.58.36-.84,1.28l.79.31c.18-.37.4-.7,0-1.08.4,0,.4,0,.87.33-.49.07-.52.45-.63.85l.85.32c.47-.75.47-.76.17-1.58.29,0,.37.22.58.37l-.72,2.12a.73.73,0,0,0-.51-.5A12.45,12.45,0,0,1,6.54,23a.58.58,0,0,0-.77.16Z" style="fill:#fff"/><path d="M62.64,24.19a1.73,1.73,0,0,1,.23,1.17c-.18-.32-.37-.4-.66-.29a6.21,6.21,0,0,1-.94.25.91.91,0,0,1-1.15-.56,1.42,1.42,0,0,1-.1-.29c-.29-.9-.11-1.28.77-1.63a4.37,4.37,0,0,1,.68-.27A.69.69,0,0,0,62,22l.39,1.19a.78.78,0,0,0-.78,0c-.34.15-.7.23-1,.38a.63.63,0,0,0-.4.85c.09.43.37.69.77.63a8,8,0,0,0,1.36-.35C62.45,24.59,62.52,24.37,62.64,24.19Z" style="fill:#fff"/><path d="M14.85,10.49a1.08,1.08,0,0,0-1.27.53c.08.28.35.42.52.62.5-.26.5-.26.56-.9l.64.76c-.56-.05-.56-.05-1,.39l.7.64a.94.94,0,0,0,.58-1.21c.49.42.51.59.18.91l-1.11,1a4.51,4.51,0,0,0-.38-.64c-.3-.34-.64-.63-.94-1a.6.6,0,0,0-.63-.18c.18-.18.35-.36.54-.53l.73-.65C14.37,10,14.37,10,14.85,10.49Z" style="fill:#fff"/><path d="M47.91,9.05c.1-.06.22-.08.27-.16.18-.33.14-.46-.18-.65l-.16-.08L47.51,8c-.44.27-.44.27-.43.68l-.7-.31L48.91,6.6c.22,1-.33,2-.13,3A1.86,1.86,0,0,1,47.91,9.05Z" style="fill:#fff"/><path d="M24.86,7.15l-.66.24c-.22-.23-.39-.54-.62-.59s-.53.13-.79.21c-.11.51-.11.51.23.81l-.69.32c.23-1,0-2,.28-3a1.17,1.17,0,0,1,.32.18c.43.43.85.88,1.29,1.32C24.4,6.8,24.61,6.94,24.86,7.15Z" style="fill:#fff"/><path d="M32.19,4.58l.15.87A1,1,0,0,0,33.61,5c0,.61-.07.73-.51.74s-1,0-1.65,0a.62.62,0,0,0,.34-.67c-.05-.41-.1-.82-.11-1.22s-.09-.49-.43-.55a1,1,0,0,1,.31-.13c.54,0,1.07,0,1.6,0s.4,0,.25.55a.9.9,0,0,0-.91-.38c-.22,0-.33.13-.32.36s0,.36,0,.55a.67.67,0,0,0,.9-.4c0,.27.07.4.08.53s0,.23,0,.45A.91.91,0,0,0,32.19,4.58Z" style="fill:#fff"/><path d="M58.17,14.66c-.22.15-.37.39-.74.48a2.57,2.57,0,0,1,.18-.37.6.6,0,0,0-.06-.69.31.31,0,0,0-.42-.15.52.52,0,0,0-.22.38,6.54,6.54,0,0,0,.14.85.84.84,0,0,1-.36.9.81.81,0,0,1-.95-.22,3.6,3.6,0,0,1-.28-.4l-.3-.41a1.06,1.06,0,0,1,.68-.46l-.12.29a.67.67,0,0,0,.34.92c.21.1.39,0,.4-.21a6.15,6.15,0,0,0-.06-.73,2.51,2.51,0,0,1,0-.67.73.73,0,0,1,1.34-.28C57.86,14.12,58,14.37,58.17,14.66Z" style="fill:#fff"/><path d="M62.35,25.81l.32-.15a.26.26,0,0,1,.41.2c.07.32.14.64.19,1s.11.81.17,1.22,0,.52-.57.44a.86.86,0,0,0,.18-1.1c-.58.11-1.19.21-1.8.35-.13,0-.21.24-.34.39-.23-.35-.11-.79-.24-1.21.19.18.32.3.6.21a11.91,11.91,0,0,1,1.32-.28c.15,0,.38,0,.39-.21a.62.62,0,0,0-.26-.64Z" style="fill:#fff"/><path d="M46.42,7.58a1.07,1.07,0,0,1-1.26.31A1.18,1.18,0,0,1,44.27,7a1.42,1.42,0,0,1,.6-1.51,1.38,1.38,0,0,1,1.51,0l.68.35-.28.9a5.08,5.08,0,0,1-.16-.49.75.75,0,0,0-1.25-.49A1.52,1.52,0,0,0,44.79,7a.84.84,0,0,0,.93.77A5,5,0,0,0,46.42,7.58Z" style="fill:#fff"/><path d="M6.27,23.85c-.48,0-.59.34-.65.76.75.14,1.44.62,2.33.43L7.7,26.29A2.2,2.2,0,0,0,7.53,26c-.08-.11-.15-.26-.26-.3-.57-.17-1.14-.3-1.7-.45-.31.51-.33.44.06,1.05-.51.08-.64,0-.54-.44.15-.66.31-1.31.48-2a3.38,3.38,0,0,1,.16-.36l.5.21Z" style="fill:#fff"/><path d="M21.74,7.67A1.25,1.25,0,0,1,20.62,9,1.45,1.45,0,0,1,19.17,8a1.26,1.26,0,0,1,.41-1.54,1.72,1.72,0,0,1,.49-.24c.21-.09.42-.15.67-.24.07.09.16.2.23.31a.75.75,0,0,1,.14.42l-.45-.25a.68.68,0,0,0-.8.09.7.7,0,0,0-.29.7,1.61,1.61,0,0,0,.48,1,.84.84,0,0,0,1.43-.19Z" style="fill:#fff"/><path d="M36.4,4.13c-.12-.24-.18-.37-.25-.48a.78.78,0,0,0-1.38.12,1.9,1.9,0,0,0-.07,1.15.87.87,0,0,0,1.2.51,6.77,6.77,0,0,0,.59-.36,1.83,1.83,0,0,1-.22.37,1.4,1.4,0,0,1-1.48.24A1.3,1.3,0,0,1,34,4.39a1.26,1.26,0,0,1,.86-1.22,1.24,1.24,0,0,1,.83-.06,2.51,2.51,0,0,0,.67.08C36.52,3.55,36.52,3.55,36.4,4.13Z" style="fill:#fff"/><path d="M58.83,21a2.66,2.66,0,0,0,.65-.08c.53-.22,1-.48,1.54-.73.08-.48-.28-.58-.66-.74l.49-.3a16,16,0,0,1,1.06,2.42l-.65.29c.14-.43.43-.75,0-1.08a10.16,10.16,0,0,0-1.8.79c-.1.06-.14.23-.24.39Z" style="fill:#fff"/><path d="M57.38,18.15l-.58-1c.41.1.42.11.7-.08l1.4-1c-.28-.44-.28-.44-.75-.55,0,0,0-.09,0-.11l.41-.25a13.28,13.28,0,0,1,1.32,2.1l-.47.29c0-.06-.08-.1-.08-.11a.67.67,0,0,0-.15-.87c-.53.34-1.08.66-1.59,1C57.5,17.75,57.47,18,57.38,18.15Z" style="fill:#fff"/><path d="M30.94,3.23v.69c-.22-.32-.45-.48-.78-.33,0,0-.06.07-.06.1.07.58.14,1.17.23,1.75a1.84,1.84,0,0,0,.27.45L29.68,6a2.73,2.73,0,0,0,.11-.61c-.05-.44-.13-.89-.2-1.33,0-.16,0-.35-.19-.41a.42.42,0,0,0-.48.21c0,.06-.07.14-.11.21-.31-.38-.28-.52.12-.59Z" style="fill:#fff"/><path d="M4.46,32v-1.4a.74.74,0,0,0,.74.49c.41,0,.82,0,1.23,0A.55.55,0,0,0,7,30.87v1.31a.6.6,0,0,0-.66-.4,11.11,11.11,0,0,1-1.29,0A.64.64,0,0,0,4.46,32Z" style="fill:#fff"/><path d="M50.38,7.59a2.1,2.1,0,0,1,.89.55A4.52,4.52,0,0,0,49.85,10a1.26,1.26,0,0,0,1.33.44l-.48.42-.82-.52-.64-.43.39-.6c.24-.36.48-.71.71-1.08S50.5,8,50.38,7.59Z" style="fill:#fff"/><path d="M28.44,60.22c.12.07.26.1.3.18a2.93,2.93,0,0,1,.12.53c0,.21.09.43.15.76l.49-.92c.1-.2.23-.35.51-.23a3.79,3.79,0,0,0-.3,1.77h-.46l.19-.85-.06,0-.24.35c-.07.12-.15.23-.26.4a2.76,2.76,0,0,1-.38-1.07c0,.27-.09.54-.13.81s-.14.22-.34.13A4.34,4.34,0,0,0,28.44,60.22Z" style="fill:#fff"/><path d="M60.75,18.85c-.41-.16-.41-.17-.75,0l-1.07.59c-.36.19-.36.19-.5.66l-.51-1c.21,0,.36.12.56,0a13.3,13.3,0,0,1,1.22-.7.69.69,0,0,0,.45-.64Z" style="fill:#fff"/><path d="M43.49,4.46l1.15.39a1.5,1.5,0,0,0-.42.16.51.51,0,0,0-.17.24c-.17.44-.33.89-.48,1.33-.09.27-.07.29.15.64a3.07,3.07,0,0,1-1-.27c.56-.53.55-1.29.81-1.94C43.59,4.89,43.52,4.71,43.49,4.46Z" style="fill:#fff"/><path d="M17.33,7.83l.79-.48c.16.31.29.58.44.84s.34.51.49.78.27.47.67.33l0,.15-.82.52a2.47,2.47,0,0,0-.17-.56c-.25-.42-.52-.83-.79-1.24S17.73,7.9,17.33,7.83Z" style="fill:#fff"/><path d="M53.65,9.81l.7.65a4.6,4.6,0,0,0-.58.43c-.29.3-.57.63-.85,1s-.22.24-.2.66L52,11.92c.2-.17.41-.3.58-.47a10.75,10.75,0,0,0,.78-.87c.16-.2.47-.38.11-.78Z" style="fill:#fff"/><path d="M39.28,60.32l.4,1.84c-.41.3-.54.32-.73.14a.82.82,0,0,1-.12-1.06c.23-.21.33-.38.19-.67C39,60.54,39.14,60.45,39.28,60.32Z" style="fill:#fff"/><path d="M32.42,61.67a.87.87,0,0,0-.2.75.75.75,0,0,1-.08.24c-.07-.08-.2-.15-.21-.23a6.61,6.61,0,0,1,0-.78c-.3.2-.19.46-.21.68s-.06.32-.34.23c0-.18.05-.37.07-.57s0-.36,0-.52c.39-.25.74,0,1.09,0,.18,0,.26.23.25.43a4.86,4.86,0,0,1,0,.66.22.22,0,0,1-.17.14s-.15-.08-.15-.14C32.41,62.3,32.42,62.06,32.42,61.67Z" style="fill:#fff"/><path d="M37.27,62c0,.37-.18.65-.41.65s-.45-.26-.48-.61.15-.7.41-.71S37.26,61.65,37.27,62Z" style="fill:#fff"/><path d="M34.76,60.86h.68c.18,0,.24.13.16.3-.56-.09-.56-.09-.51.42l.38-.07,0,.45L35,61.88l.05.81-.33,0V60.86Z" style="fill:#fff"/><path d="M31.2,62v.31c0,.22-.08.33-.35.29s-.51-.2-.35-.54c.07-.14.17-.24.1-.43s.09-.31.27-.33a.28.28,0,0,1,.33.28,2.94,2.94,0,0,1,0,.42Z" style="fill:#fff"/><path d="M40.6,62a.7.7,0,0,1-.17.11c-.55.16-.67.07-.59-.48,0-.13,0-.2-.06-.32s0-.3.12-.39a.27.27,0,0,1,.41.15C40.43,61.36,40.5,61.68,40.6,62Z" style="fill:#fff"/><path d="M36.08,60.73c.07.64.13,1.2.17,1.76a.27.27,0,0,1-.16.2c-.16,0-.2-.08-.2-.22,0-.5-.07-1-.08-1.51C35.8,60.9,36,60.83,36.08,60.73Z" style="fill:#fff"/><path d="M38.09,61.29a.83.83,0,0,0-.26,1c.05.13,0,.25-.14.27s-.2-.1-.21-.24a4.2,4.2,0,0,0-.06-.61c-.07-.38-.07-.38.33-.44Z" style="fill:#fff"/><path d="M33.35,62.68c-.2.06-.35,0-.35-.18a4.09,4.09,0,0,1,0-.78.31.31,0,0,1,.16-.22c.16,0,.2.11.19.24C33.39,62,33.37,62.34,33.35,62.68Z" style="fill:#fff"/><path d="M30,62a2.86,2.86,0,0,1,0-.56c0-.07.12-.13.2-.15s.13.11.13.16c0,.32-.08.64-.13,1a.17.17,0,0,1-.14.08c-.07,0-.17-.1-.17-.15A1.4,1.4,0,0,1,30,62Z" style="fill:#fff"/><path d="M38.58,62.35s0,.1-.1.09-.21-.06-.22-.11c-.06-.31-.1-.63-.13-.95,0,0,.08-.13.1-.12s.21.07.22.13C38.51,61.68,38.53,62,38.58,62.35Z" style="fill:#fff"/><path d="M59.31,33.3A24.87,24.87,0,0,1,51.9,50.83a24.36,24.36,0,0,1-17.8,7.39,24.26,24.26,0,0,1-17.8-7.41A24.43,24.43,0,0,1,8.94,32.69a24.51,24.51,0,0,1,7.9-18A24.28,24.28,0,0,1,34.12,7.8a24.43,24.43,0,0,1,18.32,7.93A25.15,25.15,0,0,1,59.31,33.3ZM34.09,8.19A24.77,24.77,0,0,0,9.33,33a24.26,24.26,0,0,0,7.2,17.5,23.93,23.93,0,0,0,17.56,7.34,24,24,0,0,0,17.49-7.22A24.11,24.11,0,0,0,58.93,33,24.77,24.77,0,0,0,34.09,8.19Z" style="fill:#fff"/><path d="M8.28,19.9l-.48-.23c-.16-.06-.29-.14-.28-.34a.48.48,0,0,1,.35-.46.62.62,0,0,1,.44.09.62.62,0,0,1,.15.42A1.79,1.79,0,0,1,8.28,19.9Z" style="fill:#fff"/><path d="M16.21,10.05l-.54-.72c.17-.25.38-.41.66-.31a.55.55,0,0,1,.3.35C16.73,9.71,16.44,9.85,16.21,10.05Z" style="fill:#fff"/><path d="M34.09,8.19A24.77,24.77,0,0,1,58.93,33a24.11,24.11,0,0,1-7.35,17.68,24,24,0,0,1-17.49,7.22,23.93,23.93,0,0,1-17.56-7.34A24.26,24.26,0,0,1,9.33,33,24.77,24.77,0,0,1,34.09,8.19ZM58.56,33A24.4,24.4,0,0,0,34.1,8.58a23.73,23.73,0,0,0-17.21,7.11A24.45,24.45,0,1,0,58.56,33Z" style="fill:#fff"/><path d="M58.56,33A24.46,24.46,0,1,1,16.89,15.69,23.73,23.73,0,0,1,34.1,8.58,24.4,24.4,0,0,1,58.56,33ZM31.74,19.09,30,19.75c.09.12.17.24.18.24.28-.15.73.14.86-.36,0,0,.11-.05.16-.08l.62-.4c.38-.11.76-.2,1.13-.33a.62.62,0,0,0,.41-.47,2.09,2.09,0,0,0-.38.13C32.56,18.71,32.07,18.74,31.74,19.09ZM21,26l-.07.1,5,2.56,5,2.56a.6.6,0,0,1-.42,0l-8.82-3.6a1.72,1.72,0,0,0-.85-.2L22,28c.38.2.76.4,1.15.59l1.1.55c.39.19.77.39,1.15.59l1.1.56,1.14.6,1.1.56c.39.19.78.37,1.15.59s.72.28.95.63l-9.92-4.05-.05.11,10.38,5.35c-3.46-1.33-6.89-2.75-10.33-4.11l-.05.11,9.91,5.08a.26.26,0,0,1-.27,0c-.86-.34-1.71-.68-2.56-1l-6.08-2.51a1.22,1.22,0,0,0-.85-.15l10.12,5.16a10.5,10.5,0,0,1-2.06-.73c-.67-.26-1.33-.54-2-.81L25,34.25c-.67-.27-1.33-.56-2-.81a8,8,0,0,0-2-.67L31.15,38a5.93,5.93,0,0,1-1.44-.47l-1.42-.58-1.42-.59-1.37-.56-1.42-.58c-.48-.2-.94-.41-1.43-.58a3.32,3.32,0,0,0-1.4-.38l9.68,5-.06.12-4.86-2a52.51,52.51,0,0,0-5-1.89l10,5.14A10.35,10.35,0,0,1,29.33,40l-1.65-.69-1.6-.65L24.43,38c-.55-.23-1.09-.48-1.65-.68a10.21,10.21,0,0,0-1.63-.59,5.37,5.37,0,0,0,.84.53q2.9,1.5,5.81,3l6,3a.66.66,0,0,0,.69,0c1.31-.71,2.64-1.4,4-2.09L46.83,37l.48-.28c-1.2.38-2.35.86-3.5,1.33l-3.43,1.37c-1.13.45-2.25,1-3.42,1.3L47.2,35.47l-.06-.12c-1.08.34-2.1.82-3.15,1.24s-2.16.9-3.24,1.34a24.17,24.17,0,0,1-3.22,1.15l9.76-5c-3.46,1.19-6.8,2.64-10.21,4a1.44,1.44,0,0,1,.39-.27l4.66-2.38L46.78,33c.14-.07.27-.17.47-.29-.13,0-.15,0-.16,0l-9.33,3.82-.17.07h-.12l-.06,0a1,1,0,0,1,.16-.1q2.67-1.39,5.35-2.78c1.32-.68,2.64-1.33,4-2,.15-.08.28-.17.42-.26l-.06-.11c-1.66.68-3.32,1.38-5,2.05s-3.34,1.4-5.07,2l10-5.13a8.64,8.64,0,0,0-2.07.67c-.7.26-1.37.55-2.06.83L41,32.48l-2,.85a10.94,10.94,0,0,1-2,.72L47.19,28.8l-.06-.15c-3.25,1.36-6.52,2.68-9.83,3.9l10-5.13-.06-.11c-3.37,1.29-6.67,2.77-10.08,4l9.94-5.08a5,5,0,0,0-1.68.51c-.56.2-1.1.45-1.65.67s-1.11.44-1.66.66l-1.65.69c-.55.22-1.09.46-1.65.67a8.7,8.7,0,0,1-1.62.58c1.09-.62,2.2-1.18,3.31-1.75s2.2-1.12,3.29-1.69S46,25.46,47.05,24.8a.51.51,0,0,0-.35,0l-1,.4-11.2,4.61a1,1,0,0,1-.81,0c-1.53-.66-3.07-1.28-4.6-1.91l-7.85-3.22-.23,0c3.41,1.9,6.87,3.68,10.33,5.47-1.75-.64-3.45-1.37-5.17-2.06ZM41,22.6s0-.07,0-.08a10,10,0,0,0-1.19-.44c-.39-.09-.66-.61-1.16-.33-.06,0-.19-.07-.29-.09-.7-.17-1.34-.51-2.06-.65a12.76,12.76,0,0,1-1.7-.51,1.34,1.34,0,0,0-.84,0c-.66.21-1.33.39-2,.59s-1.13.37-1.7.52c-.22,0-.5-.09-.71,0s-.4.32-.64.42-.67.17-1,.29a2.72,2.72,0,0,0-.62.36.23.23,0,0,0,0,.21.37.37,0,0,0,.25.05c.15,0,.19-.24.42-.15s.71.18,1.06.29.74.08,1,.4c.38-.14.71.09,1.07.16a1,1,0,0,1,.3.13,9.65,9.65,0,0,1-.2,1.18c-.15.47.25.75.31,1.14,0,.05.17.08.27.1s.21,0,.22,0c.18.38.48.27.78.23.07,0,.15.06.23.08l1,.16c.31,0,.66-.11.95.12a.09.09,0,0,0,.1,0,4,4,0,0,1,1.53-.56,1.4,1.4,0,0,0,.89-.67.56.56,0,0,0,0-.55,6.47,6.47,0,0,1-.2-1.22c.45-.32,1-.24,1.41-.43.21-.09.64.24.74.47a4.42,4.42,0,0,1,.17,1.81c0,.11,0,.25,0,.32a1,1,0,0,0,.54.42,4.05,4.05,0,0,0,.18-.79,5.07,5.07,0,0,0,0-1.35c-.09-.45.18-.88-.08-1.32ZM14.54,38.36a1.16,1.16,0,0,1,.06-1,1.18,1.18,0,0,0,.11-1.1c-.29.16-.23.44-.35.65l-.17-.5-.06,0v1.05l-.8-1.22a1.57,1.57,0,0,0,.49,1.29,1.3,1.3,0,0,1,.43,1l-1.08-1.25a3,3,0,0,0,.06.37,2.46,2.46,0,0,0,.86,1.1.63.63,0,0,1,.31.65c-.43-.29-.65-.8-1.3-1a5.43,5.43,0,0,0,.44.68,8.24,8.24,0,0,0,.83.72c.17.14.35.26.27.55a5.43,5.43,0,0,0-1.22-1c.13.59.58.84.9,1.25-.36,0-.52-.37-.93-.29a5.11,5.11,0,0,0,.66.66,7.77,7.77,0,0,0,1,.58c.16.09.32.16.25.41a4.43,4.43,0,0,0-1.53-.78,3.66,3.66,0,0,0,1.17,1l-.83-.14a.71.71,0,0,0,.31.38,3.72,3.72,0,0,0,1.47.6.51.51,0,0,1,.44.37,4.2,4.2,0,0,0-1.77-.34c0,.07.08.1.13.13a3.21,3.21,0,0,0,1.57.48c.26,0,.47,0,.58.36A4.16,4.16,0,0,0,15,43.91a1.82,1.82,0,0,0,.33.19c.5.09,1,.2,1.5.26s.37,0,.65.3l-1.85-.09a.57.57,0,0,0,.39.28q.76.09,1.53.12c.23,0,.45,0,.63.21a9.13,9.13,0,0,0-1.93.13c.1.07.14.13.19.14a4.16,4.16,0,0,0,1.65,0,.85.85,0,0,1,.73.13c.13.09.29.26.53.06l-.54-.43a3.9,3.9,0,0,0-.25-2.35c-.07.15-.14.23-.13.3,0,.62.09,1.25.13,1.9-.2-.09-.34-.2-.32-.44l.06-.61a3.61,3.61,0,0,0-.22-1.6c-.39.74-.06,1.46-.1,2.16-.34-.19-.34-.19-.3-.42A3.48,3.48,0,0,0,17.52,42a4.51,4.51,0,0,0,0,2.16c-.39-.17-.34-.45-.31-.75.05-.52.07-1.06.07-1.59a1.15,1.15,0,0,0-.17-.45,7.13,7.13,0,0,0-.22,2.18.53.53,0,0,1-.27-.7,3.45,3.45,0,0,0,.1-2,4.53,4.53,0,0,0-.33,2.1c-.33-.35-.31-.35-.24-.64s.21-.84.27-1.26c0-.24.11-.53-.16-.75l-.2.34V39.37a7.64,7.64,0,0,0-.63,2,.52.52,0,0,1-.13-.6,10,10,0,0,0,.37-1.29.58.58,0,0,0-.15-.63L15,40.43a.83.83,0,0,1,0-.73c.12-.41.2-.83.28-1.25a.44.44,0,0,0-.05-.29c-.31,0-.17-.23-.14-.39s.09-.39-.07-.56c-.27.1-.25.34-.32.52A6.55,6.55,0,0,0,14.54,38.36Zm38.05.47a4.09,4.09,0,0,0,.31,1.82.68.68,0,0,1-.09.83c-.05-.22-.09-.42-.13-.61-.09-.38-.17-.76-.27-1.13a2.34,2.34,0,0,0-.25-.4v1.08l-.28,0a2.48,2.48,0,0,0-.05.66,12.63,12.63,0,0,0,.29,1.25c.05.21.07.39-.17.52-.05-.35-.09-.67-.13-1s0-.67-.34-1a4.45,4.45,0,0,0,.13,2c.11.39.1.39-.29.66a7.53,7.53,0,0,0-.11-2.16c-.35.36-.23.79-.34,1.25l-.1-.58c-.26.1-.22.31-.23.48,0,.51,0,1,0,1.54,0,.27,0,.47-.33.57,0-.38.08-.74.09-1.1s0-.73,0-1.16c-.13.09-.2.12-.21.17A3.86,3.86,0,0,0,50,44.43c.07.39.08.38-.37.64,0-.39.07-.75.13-1.1a1.44,1.44,0,0,0-.07-1.11,3.77,3.77,0,0,0-.26,2.34l-.54.42a.53.53,0,0,0,.47,0,.92.92,0,0,1,.92-.13,1.34,1.34,0,0,0,.72.08,1.94,1.94,0,0,0,1-.22c-.67-.21-1.27-.05-1.86-.22.82-.2,1.71.06,2.46-.51l-1.85.08c.3-.28.3-.28.52-.29s.33,0,.49,0a2.93,2.93,0,0,0,1.42-.45,4.22,4.22,0,0,0-1.81.19.53.53,0,0,1,.6-.36,3.19,3.19,0,0,0,1.42-.37,1.58,1.58,0,0,0,.28-.25L53.59,43l-1.66.43c0-.24.19-.29.38-.33a4,4,0,0,0,1.94-.94,1.28,1.28,0,0,0-.92.18c-.29.1-.57.24-.84.36.22-.4.65-.39,1-.6a2.28,2.28,0,0,0,.88-.81,4.46,4.46,0,0,0-1.52.77c0-.31.2-.4.42-.49a3.36,3.36,0,0,0,1.34-.95,1.17,1.17,0,0,0,.15-.27l-.09-.09-1.48,1c.19-.41.18-.42.41-.54a3.87,3.87,0,0,0,1.18-1.06,1,1,0,0,0,.1-.27l-.45.06a2.59,2.59,0,0,0,.66-1.12,4.05,4.05,0,0,0-1.25,1.09.81.81,0,0,1,.44-.81,2.46,2.46,0,0,0,.86-1.24c-.54.2-.68.7-1,1a.62.62,0,0,1,.17-.66,9.4,9.4,0,0,0,.69-1.08c0-.08,0-.2,0-.45-.2.28-.33.43-.44.6s-.2.36-.3.53l-.08,0v-1.4H54v1.2H54l-.39-1a1.58,1.58,0,0,0,.12,1.3.86.86,0,0,1,0,1l-.45-1.3-.12,0c0,.2,0,.4,0,.6s.07.4.12.67L52.94,38a2.79,2.79,0,0,0,.29,1.66c.15.41.16.41,0,.86C53,40,53.07,39.33,52.59,38.83ZM34.43,54.11a15.3,15.3,0,0,0,3.2-.3A21.21,21.21,0,0,0,43.22,52c.62-.3,1.23-.65,1.83-1a.61.61,0,0,0,.35-.9c-.29-.75-.54-1.51-.8-2.26a1.6,1.6,0,0,0-.1-.23.35.35,0,0,0-.52-.15,3.66,3.66,0,0,0-.42.26,16.4,16.4,0,0,1-2.64,1.43,17.47,17.47,0,0,1-9.74,1.11A15,15,0,0,1,27,49c-.9-.44-1.76-1-2.63-1.46-.34-.19-.47-.16-.63.17a4.28,4.28,0,0,0-.17.46c-.24.63-.46,1.27-.7,1.9s-.16.65.29.91,1.18.67,1.78,1A21,21,0,0,0,34.43,54.11Zm14.76-4.66-.11-.38c-.31-.87-.61-1.74-.92-2.6-.14-.39-.29-.77-.42-1.16-.06-.15-.09-.32-.29-.34s-.19.17-.26.29a1.11,1.11,0,0,1-.78.64,3.63,3.63,0,0,1-1.64.08,1,1,0,0,0-.31,0c-.36,0-.67.17-.64.35s.32.35.56.38a.49.49,0,0,1,.44.36l.19.51c.34.92.67,1.85,1,2.76.19.51.39.56.82.28a1.74,1.74,0,0,1,.55-.21c.42-.09.85-.14,1.26-.24A.76.76,0,0,0,49.19,49.45ZM24.42,46.3c-.06-.07-.11-.19-.18-.21a1.56,1.56,0,0,0-.66-.11,4.93,4.93,0,0,1-1.33,0A1.32,1.32,0,0,1,21,45.16a.31.31,0,0,0-.21-.18c-.07,0-.17.1-.21.18-.16.4-.29.8-.44,1.2-.34.92-.69,1.84-1,2.77a.71.71,0,0,0,.56,1c.2,0,.41.06.6.1a2.86,2.86,0,0,1,1.16.33c.41.3.59.22.77-.26.34-.94.68-1.88,1-2.83.15-.43.25-.88.85-.89.08,0,.18-.09.26-.15A.57.57,0,0,0,24.42,46.3ZM35.33,28.39a6,6,0,0,0,2.2-.89A2.75,2.75,0,0,0,35.33,28.39ZM23,22.78l-1,.39c-.26.12-.51.26-.81.41l.5.24a7.52,7.52,0,0,0,.66-.57C22.56,23.06,23,23.28,23,22.78Zm13.78-3.63c-.48-.21-.85-.38-1.23-.52-.08,0-.19,0-.31.05a7.63,7.63,0,0,1,.62.47C36.15,19.38,36.4,19.36,36.81,19.15ZM23,24.28a2.9,2.9,0,0,0,1.64.63C24.25,24.32,23.61,24.4,23,24.28Zm3.38,1.56.1-.11c-.11-.11-.2-.29-.32-.32-.4-.11-.76-.39-1.3-.24Z" style="fill:#fff"/><path d="M21,26l5.23,2.11c1.72.69,3.42,1.42,5.17,2.06-3.46-1.79-6.92-3.57-10.33-5.47l.23,0,7.85,3.22c1.53.63,3.07,1.25,4.6,1.91a1,1,0,0,0,.81,0l11.2-4.61,1-.4a.51.51,0,0,1,.35,0c-1,.66-2.18,1.18-3.27,1.75s-2.19,1.13-3.29,1.69S38.27,29.37,37.18,30a8.7,8.7,0,0,0,1.62-.58c.56-.21,1.1-.45,1.65-.67l1.65-.69c.55-.22,1.11-.43,1.66-.66s1.09-.47,1.65-.67a5,5,0,0,1,1.68-.51l-9.94,5.08c3.41-1.21,6.71-2.69,10.08-4l.06.11-10,5.13c3.31-1.22,6.58-2.54,9.83-3.9l.06.15L37,34.05a10.94,10.94,0,0,0,2-.72l2-.85,2.05-.84c.69-.28,1.36-.57,2.06-.83a8.64,8.64,0,0,1,2.07-.67l-10,5.13c1.73-.55,3.4-1.26,5.07-2s3.33-1.37,5-2.05l.06.11c-.14.09-.27.18-.42.26-1.32.67-2.64,1.32-4,2Q40.24,35,37.57,36.42a1,1,0,0,0-.16.1l.06,0h.12l.17-.07,9.33-3.82s0,0,.16,0c-.2.12-.33.22-.47.29l-4.65,2.4-4.66,2.38a1.44,1.44,0,0,0-.39.27c3.41-1.32,6.75-2.77,10.21-4l-9.76,5a24.17,24.17,0,0,0,3.22-1.15c1.08-.44,2.15-.9,3.24-1.34s2.07-.9,3.15-1.24l.06.12L37,40.69c1.17-.35,2.29-.85,3.42-1.3L43.81,38c1.15-.47,2.3-1,3.5-1.33l-.48.28-8.39,4.28c-1.34.69-2.67,1.38-4,2.09a.66.66,0,0,1-.69,0l-6-3q-2.91-1.48-5.81-3a5.37,5.37,0,0,1-.84-.53,10.21,10.21,0,0,1,1.63.59c.56.2,1.1.45,1.65.68l1.65.66,1.6.65,1.65.69a10.35,10.35,0,0,0,1.68.56L21,35.43a52.51,52.51,0,0,1,5,1.89l4.86,2,.06-.12-9.68-5a3.32,3.32,0,0,1,1.4.38c.49.17,1,.38,1.43.58l1.42.58,1.37.56,1.42.59,1.42.58a5.93,5.93,0,0,0,1.44.47L21,32.77a8,8,0,0,1,2,.67c.67.25,1.33.54,2,.81l2.05.84c.66.27,1.32.55,2,.81a10.5,10.5,0,0,0,2.06.73L21,31.47a1.22,1.22,0,0,1,.85.15L28,34.13c.85.36,1.7.7,2.56,1a.26.26,0,0,0,.27,0l-9.91-5.08.05-.11c3.44,1.36,6.87,2.78,10.33,4.11L20.87,28.7l.05-.11,9.92,4.05c-.23-.35-.62-.44-.95-.63s-.76-.4-1.15-.59l-1.1-.56-1.14-.6-1.1-.56c-.38-.2-.76-.4-1.15-.59l-1.1-.55c-.39-.19-.77-.39-1.15-.59l-1.19-.61a1.72,1.72,0,0,1,.85.2l8.82,3.6a.6.6,0,0,0,.42,0l-5-2.56-5-2.56Z" style="fill:#fff"/><path d="M41,22.6l-.91.28a3.63,3.63,0,0,1,.11,1.54A6.92,6.92,0,0,1,40,26.34c-1.52-.32.36-3.62-2.18-2.85-.75.22-.74.31-.61,1.08.06.36.2.58.05.95-.3.72-1.23.68-1.84.92a3.15,3.15,0,0,1-2,.13,5.24,5.24,0,0,1-1.69-.41c-.42-.2-.65-.12-.77-.78-.08-.43.15-.8.11-1.23-.06-.62-.13-.5-.77-.69s-1.23-.33-1.9-.51c-.25-.06-1.34-.05-1.39-.19-.1-.29,1.62-.8,1.87-.9.75-.29,1.57-.39,2.4-.65a10.93,10.93,0,0,1,2.84-.78,11.77,11.77,0,0,1,3,.82c.41.13.81.32,1.23.41s.52,0,.8.06A7.25,7.25,0,0,1,41,22.6Z" style="fill:#fff"/><path d="M14.54,38.36a6.55,6.55,0,0,1,.19-.63c.07-.18,0-.42.32-.52.16.17.11.36.07.56s-.17.34.14.39a.44.44,0,0,1,.05.29c-.08.42-.16.84-.28,1.25a.83.83,0,0,0,0,.73l.48-1.57a.58.58,0,0,1,.15.63,10,10,0,0,1-.37,1.29.52.52,0,0,0,.13.6,7.64,7.64,0,0,1,.63-2v1.28l.2-.34c.27.22.19.51.16.75-.06.42-.17.84-.27,1.26s-.09.29.24.64a4.53,4.53,0,0,1,.33-2.1,3.45,3.45,0,0,1-.1,2,.53.53,0,0,0,.27.7,7.13,7.13,0,0,1,.22-2.18,1.15,1.15,0,0,1,.17.45c0,.53,0,1.07-.07,1.59,0,.3-.08.58.31.75a4.51,4.51,0,0,1,0-2.16,3.48,3.48,0,0,1,.17,2.11c0,.23,0,.23.3.42,0-.7-.29-1.42.1-2.16a3.61,3.61,0,0,1,.22,1.6l-.06.61c0,.24.12.35.32.44,0-.65-.09-1.28-.13-1.9,0-.07.06-.15.13-.3a3.9,3.9,0,0,1,.25,2.35l.54.43c-.24.2-.4,0-.53-.06a.85.85,0,0,0-.73-.13,4.16,4.16,0,0,1-1.65,0c-.05,0-.09-.07-.19-.14a9.13,9.13,0,0,1,1.93-.13C18,45,17.79,45,17.56,45q-.76,0-1.53-.12a.57.57,0,0,1-.39-.28l1.85.09c-.28-.28-.28-.25-.65-.3s-1-.17-1.5-.26a1.82,1.82,0,0,1-.33-.19,4.16,4.16,0,0,1,1.84.19c-.11-.33-.32-.36-.58-.36a3.21,3.21,0,0,1-1.57-.48s-.11-.06-.13-.13a4.2,4.2,0,0,1,1.77.34.51.51,0,0,0-.44-.37,3.72,3.72,0,0,1-1.47-.6.71.71,0,0,1-.31-.38l.83.14a3.66,3.66,0,0,1-1.17-1,4.43,4.43,0,0,1,1.53.78c.07-.25-.09-.32-.25-.41a7.77,7.77,0,0,1-1-.58,5.11,5.11,0,0,1-.66-.66c.41-.08.57.26.93.29-.32-.41-.77-.66-.9-1.25a5.43,5.43,0,0,1,1.22,1c.08-.29-.1-.41-.27-.55a8.24,8.24,0,0,1-.83-.72,5.43,5.43,0,0,1-.44-.68c.65.19.87.7,1.3,1a.63.63,0,0,0-.31-.65,2.46,2.46,0,0,1-.86-1.1,3,3,0,0,1-.06-.37l1.08,1.25a1.3,1.3,0,0,0-.43-1,1.57,1.57,0,0,1-.49-1.29l.8,1.22V36.4l.06,0,.17.5c.12-.21.06-.49.35-.65a1.18,1.18,0,0,1-.11,1.1A1.16,1.16,0,0,0,14.54,38.36Z" style="fill:#fff"/><path d="M52.59,38.83c.48.5.36,1.18.59,1.73.21-.45.2-.45,0-.86A2.79,2.79,0,0,1,52.94,38l.32.38c0-.27-.1-.47-.12-.67s0-.4,0-.6l.12,0,.45,1.3a.86.86,0,0,0,0-1,1.58,1.58,0,0,1-.12-1.3l.39,1H54v-1.2h.1v1.4l.08,0c.1-.17.19-.36.3-.53s.24-.32.44-.6c0,.25,0,.37,0,.45a9.4,9.4,0,0,1-.69,1.08.62.62,0,0,0-.17.66c.36-.29.5-.79,1-1a2.46,2.46,0,0,1-.86,1.24.81.81,0,0,0-.44.81,4.05,4.05,0,0,1,1.25-1.09,2.59,2.59,0,0,1-.66,1.12l.45-.06a1,1,0,0,1-.1.27,3.87,3.87,0,0,1-1.18,1.06c-.23.12-.22.13-.41.54l1.48-1,.09.09a1.17,1.17,0,0,1-.15.27,3.36,3.36,0,0,1-1.34.95c-.22.09-.4.18-.42.49a4.46,4.46,0,0,1,1.52-.77,2.28,2.28,0,0,1-.88.81c-.32.21-.75.2-1,.6.27-.12.55-.26.84-.36a1.28,1.28,0,0,1,.92-.18,4,4,0,0,1-1.94.94c-.19,0-.33.09-.38.33L53.59,43l.06.11a1.58,1.58,0,0,1-.28.25,3.19,3.19,0,0,1-1.42.37.53.53,0,0,0-.6.36,4.22,4.22,0,0,1,1.81-.19,2.93,2.93,0,0,1-1.42.45c-.16,0-.33,0-.49,0s-.22,0-.52.29l1.85-.08c-.75.57-1.64.31-2.46.51.59.17,1.19,0,1.86.22a1.94,1.94,0,0,1-1,.22,1.34,1.34,0,0,1-.72-.08.92.92,0,0,0-.92.13.53.53,0,0,1-.47,0l.54-.42a3.77,3.77,0,0,1,.26-2.34A1.44,1.44,0,0,1,49.74,44c-.06.35-.09.71-.13,1.1.45-.26.44-.25.37-.64a3.86,3.86,0,0,1,.13-1.88s.08-.08.21-.17c0,.43,0,.79,0,1.16s-.06.72-.09,1.1c.29-.1.34-.3.33-.57,0-.51,0-1,0-1.54,0-.17,0-.38.23-.48l.1.58c.11-.46,0-.89.34-1.25a7.53,7.53,0,0,1,.11,2.16c.39-.27.4-.27.29-.66a4.45,4.45,0,0,1-.13-2c.33.29.29.64.34,1s.08.64.13,1c.24-.13.22-.31.17-.52a12.63,12.63,0,0,1-.29-1.25,2.48,2.48,0,0,1,.05-.66l.28,0V39.34a2.34,2.34,0,0,1,.25.4c.1.37.18.75.27,1.13,0,.19.08.39.13.61a.68.68,0,0,0,.09-.83A4.09,4.09,0,0,1,52.59,38.83Z" style="fill:#fff"/><path d="M34.43,54.11A21,21,0,0,1,24.91,52c-.6-.3-1.2-.62-1.78-1s-.47-.42-.29-.91.46-1.27.7-1.9a4.28,4.28,0,0,1,.17-.46c.16-.33.29-.36.63-.17.87.49,1.73,1,2.63,1.46a15,15,0,0,0,4.21,1.28,17.47,17.47,0,0,0,9.74-1.11,16.4,16.4,0,0,0,2.64-1.43,3.66,3.66,0,0,1,.42-.26.35.35,0,0,1,.52.15,1.6,1.6,0,0,1,.1.23c.26.75.51,1.51.8,2.26a.61.61,0,0,1-.35.9c-.6.35-1.21.7-1.83,1a21.21,21.21,0,0,1-5.59,1.79A15.3,15.3,0,0,1,34.43,54.11ZM24,47.67c-.06,0-.11.07-.12.1L23,50.31a.33.33,0,0,0,.19.45c.48.28.95.58,1.44.83a20.1,20.1,0,0,0,9.46,2.27,19.57,19.57,0,0,0,3.06-.18c1-.19,2-.44,3-.71a19.54,19.54,0,0,0,4.76-2.13c.34-.2.37-.33.23-.71s-.28-.81-.43-1.21-.33-.83-.5-1.27Q34.08,53.92,24,47.67Z" style="fill:#fff"/><path d="M49.19,49.45a.76.76,0,0,1-.54.7c-.41.1-.84.15-1.26.24a1.74,1.74,0,0,0-.55.21c-.43.28-.63.23-.82-.28-.34-.91-.67-1.84-1-2.76l-.19-.51a.49.49,0,0,0-.44-.36c-.24,0-.51-.08-.56-.38s.28-.34.64-.35a1,1,0,0,1,.31,0,3.63,3.63,0,0,0,1.64-.08,1.11,1.11,0,0,0,.78-.64c.07-.12.06-.3.26-.29s.23.19.29.34c.13.39.28.77.42,1.16.31.86.61,1.73.92,2.6ZM44,46.21c.17.13.23.21.29.22.53,0,.73.36.88.79.23.72.49,1.43.75,2.14.15.4.31.78.48,1.21a3.14,3.14,0,0,1,.69-.37,6.65,6.65,0,0,1,.78-.09,4.1,4.1,0,0,0,.61-.11c.44-.1.58-.33.47-.76,0-.1-.07-.19-.1-.29-.35-.92-.68-1.84-1-2.75a2,2,0,0,0-.37-.84,1.64,1.64,0,0,1-1.5.84c-.39,0-.78,0-1.17,0Z" style="fill:#fff"/><path d="M24.42,46.3a.57.57,0,0,1-.1.18c-.08.06-.18.15-.26.15-.6,0-.7.46-.85.89-.33.95-.67,1.89-1,2.83-.18.48-.36.56-.77.26a2.86,2.86,0,0,0-1.16-.33c-.19,0-.4-.05-.6-.1a.71.71,0,0,1-.56-1c.33-.93.68-1.85,1-2.77.15-.4.28-.8.44-1.2,0-.08.14-.18.21-.18a.31.31,0,0,1,.21.18,1.32,1.32,0,0,0,1.26.81,4.93,4.93,0,0,0,1.33,0,1.56,1.56,0,0,1,.66.11C24.31,46.11,24.36,46.23,24.42,46.3Zm-3.65-1.12c-.51,1.42-1,2.75-1.45,4.08a.51.51,0,0,0,.41.73,7.09,7.09,0,0,0,1,.14,1.39,1.39,0,0,1,.74.24,2.83,2.83,0,0,0,.37.2l.23-.6c.36-1,.72-1.95,1.07-2.93a.75.75,0,0,1,.69-.59,1.19,1.19,0,0,0,.29-.12,1.46,1.46,0,0,0-.69-.12c-.37,0-.73,0-1.1,0A1.6,1.6,0,0,1,20.77,45.18Z" style="fill:#fff"/><path d="M24,47.67q10,6.26,20.2,0c.17.44.34.85.5,1.27s.29.8.43,1.21.11.51-.23.71A19.54,19.54,0,0,1,40.18,53c-1,.27-2,.52-3,.71a19.57,19.57,0,0,1-3.06.18,20.1,20.1,0,0,1-9.46-2.27c-.49-.25-1-.55-1.44-.83a.33.33,0,0,1-.19-.45l.93-2.54S24,47.72,24,47.67Zm8,5.06c.07.2.2.29.48.18,0-.32,0-.66,0-1,0-.06-.12-.12-.18-.18s-.12.15-.12.22a1.06,1.06,0,0,1-.18.78.62.62,0,0,1-.15-.85c.13-.24,0-.39,0-.62-.47.46-.3,1-.34,1.48,0,.13.16.23.33.12Zm7-.14c.14-.76,0-1.41.12-2-.18,0-.28,0-.26.19s.06.69.09,1l-.13,0-.51-1.17-.31.13c.32.75.32.75.23,1.19-.14-.36-.27-.66-.38-1s-.08-.25-.46-.07a16.87,16.87,0,0,0,1,1.75l.08-.43c0-.1,0-.2,0-.34ZM28.2,52.11c.18-.55.35-1.07.51-1.59a.37.37,0,0,0-.12-.23s-.19.05-.19.09c0,.31-.21.34-.46.44a.82.82,0,0,0-.46.85c0,.39.33.34.55.44C28.06,52.13,28.11,52.11,28.2,52.11Zm-2-.7.72.29c.27.1.32-.1.47-.35-.3.06-.56.19-.69-.05s0-.38.2-.54l.35.22.16-.39-.49-.14c.1-.16.2-.39.23-.38a2,2,0,0,1,.48.24c.09-.14.17-.29-.06-.38s-.48-.17-.68-.24Zm7.49,1c0-.38-.17-.61-.41-.65s-.37.09-.5.44a.71.71,0,0,0-.06.24.65.65,0,0,0,.46.64c.2,0,.43-.19.49-.47A.87.87,0,0,0,33.67,52.4Zm1,.58c0-.26,0-.5,0-.74a.93.93,0,0,0,0-.29c-.09-.23-.29-.22-.46-.18s-.32.11-.33.19c0,.33,0,.67,0,1Zm4.6-1.44a1.46,1.46,0,0,0,.09.39.48.48,0,0,0,.54.31.48.48,0,0,0,.34-.57,1.46,1.46,0,0,0-.3-.58c-.21-.25-.49-.18-.61.12A1.5,1.5,0,0,0,39.3,51.54Zm2.32-1.3-.32.51A7.26,7.26,0,0,0,41,50a.26.26,0,0,0-.24-.08c-.1,0-.11.12-.06.24.19.47.35,1,.53,1.43,0,0,0,.06.1.12l.33-.17a2.59,2.59,0,0,1-.12-.25l0,0c.35.21.35.21.58,0C41.56,50.83,41.56,50.83,41.62,50.24ZM31.12,51.8l-.33.21c-.3.21-.44.45-.3.58a1.56,1.56,0,0,0,.59.24s0,0,.06,0,.12-.08.12-.12a6.79,6.79,0,0,0,0-.9.28.28,0,0,0-.32-.3.29.29,0,0,0-.28.33ZM28.81,51c-.08.29-.14.48-.19.67-.18.64-.12.72.57.76,0,0,.07,0,.16-.08-.1-.35.38-.73-.06-1.15-.16.32-.08.69-.38,1C28.79,51.73,29.18,51.38,28.81,51Zm7,1.1a5.6,5.6,0,0,0-.26.68c0,.07.17.26.19.25.19-.11.46.12.6-.14a.14.14,0,0,0,0-.11c0-.26-.11-.51-.17-.77a.3.3,0,0,0-.45-.23c-.08.05-.11.19-.17.29ZM30,51.54l.3.28c.21-.19.11-.33,0-.42a.38.38,0,0,0-.33,0,.77.77,0,0,0-.38.89c0,.2.14.35.36.35a.36.36,0,0,0,.4-.41c-.42.12-.55,0-.48-.34A1.42,1.42,0,0,1,30,51.54Zm6.44-.28a2,2,0,0,0-.11.55,3.66,3.66,0,0,0,.23,1c.07.15.28.1.41-.08C36.49,52.35,37,51.71,36.46,51.26Zm4.48.61c-.21-.41-.42-.76-.11-1.19a.6.6,0,0,0-.63.22l.36,1.1Z" style="fill:#fff"/><path d="M44,46.21h.78c.39,0,.78,0,1.17,0a1.64,1.64,0,0,0,1.5-.84,2,2,0,0,1,.37.84c.35.91.68,1.83,1,2.75,0,.1.07.19.1.29.11.43,0,.66-.47.76a4.1,4.1,0,0,1-.61.11,6.65,6.65,0,0,0-.78.09,3.14,3.14,0,0,0-.69.37c-.17-.43-.33-.81-.48-1.21-.26-.71-.52-1.42-.75-2.14-.15-.43-.35-.78-.88-.79C44.2,46.42,44.14,46.34,44,46.21Z" style="fill:#fff"/><path d="M20.77,45.18a1.6,1.6,0,0,0,1.59,1c.37,0,.73,0,1.1,0a1.46,1.46,0,0,1,.69.12,1.19,1.19,0,0,1-.29.12.75.75,0,0,0-.69.59c-.35,1-.71,2-1.07,2.93l-.23.6a2.83,2.83,0,0,1-.37-.2,1.39,1.39,0,0,0-.74-.24,7.09,7.09,0,0,1-1-.14.51.51,0,0,1-.41-.73C19.78,47.93,20.26,46.6,20.77,45.18Z" style="fill:#fff"/><path d="M39,52.59l-.51-.68c0,.14,0,.24,0,.34l-.08.43a16.87,16.87,0,0,1-1-1.75c.38-.18.37-.18.46.07s.24.6.38,1c.09-.44.09-.44-.23-1.19l.31-.13.51,1.17.13,0c0-.35,0-.7-.09-1s.08-.24.26-.19C39,51.18,39.16,51.83,39,52.59Z" style="fill:#fff"/><path d="M28.2,52.11c-.09,0-.14,0-.17,0-.22-.1-.55,0-.55-.44a.82.82,0,0,1,.46-.85c.25-.1.45-.13.46-.44,0,0,.16-.11.19-.09a.37.37,0,0,1,.12.23C28.55,51,28.38,51.56,28.2,52.11Z" style="fill:#fff"/><path d="M26.18,51.41l.69-1.72c.2.07.44.14.68.24s.15.24.06.38a2,2,0,0,0-.48-.24s-.13.22-.23.38l.49.14-.16.39-.35-.22c-.16.16-.31.33-.2.54s.39.11.69.05c-.15.25-.2.45-.47.35Z" style="fill:#fff"/><path d="M33.67,52.4a.87.87,0,0,1,0,.2c-.06.28-.29.49-.49.47a.65.65,0,0,1-.46-.64.71.71,0,0,1,.06-.24c.13-.35.28-.48.5-.44S33.66,52,33.67,52.4Z" style="fill:#fff"/><path d="M34.7,53h-.89c0-.35,0-.69,0-1,0-.08.21-.16.33-.19s.37-.05.46.18a.93.93,0,0,1,0,.29C34.68,52.48,34.69,52.72,34.7,53Z" style="fill:#fff"/><path d="M39.3,51.54a1.5,1.5,0,0,1,.06-.33c.12-.3.4-.37.61-.12a1.46,1.46,0,0,1,.3.58.48.48,0,0,1-.34.57.48.48,0,0,1-.54-.31A1.46,1.46,0,0,1,39.3,51.54Z" style="fill:#fff"/><path d="M41.62,50.24c-.06.59-.06.59.52,1.07-.23.19-.23.19-.58,0l0,0a2.59,2.59,0,0,0,.12.25l-.33.17c-.05-.06-.09-.09-.1-.12-.18-.48-.34-1-.53-1.43,0-.12,0-.21.06-.24A.26.26,0,0,1,41,50a7.26,7.26,0,0,1,.32.72Z" style="fill:#fff"/><path d="M31.12,51.8l-.41,0A.29.29,0,0,1,31,51.5a.28.28,0,0,1,.32.3,6.79,6.79,0,0,1,0,.9s-.08.08-.12.12-.05,0-.06,0a1.56,1.56,0,0,1-.59-.24c-.14-.13,0-.37.3-.58Z" style="fill:#fff"/><path d="M28.81,51c.37.43,0,.78.1,1.15.3-.26.22-.63.38-1,.44.42,0,.8.06,1.15-.09,0-.12.08-.16.08-.69,0-.75-.12-.57-.76C28.67,51.43,28.73,51.24,28.81,51Z" style="fill:#fff"/><path d="M35.76,52.05l-.25,0c.06-.1.09-.24.17-.29a.3.3,0,0,1,.45.23c.06.26.12.51.17.77a.14.14,0,0,1,0,.11c-.14.26-.41,0-.6.14,0,0-.2-.18-.19-.25A5.6,5.6,0,0,1,35.76,52.05Z" style="fill:#fff"/><path d="M30,51.54a1.42,1.42,0,0,0-.16.33c-.07.37.06.46.48.34a.36.36,0,0,1-.4.41c-.22,0-.32-.15-.36-.35a.77.77,0,0,1,.38-.89.38.38,0,0,1,.33,0c.14.09.24.23,0,.42Z" style="fill:#fff"/><path d="M36.46,51.26c.51.45,0,1.09.53,1.46-.13.18-.34.23-.41.08a3.66,3.66,0,0,1-.23-1A2,2,0,0,1,36.46,51.26Z" style="fill:#fff"/><path d="M40.94,51.87l-.38.13-.36-1.1a.6.6,0,0,1,.63-.22C40.52,51.11,40.73,51.46,40.94,51.87Z" style="fill:#fff"/><path d="M32.07,52.73l-.2.14c-.17.11-.34,0-.33-.12,0-.48-.13-1,.34-1.48.05.23.16.38,0,.62a.62.62,0,0,0,.15.85Z" style="fill:#fff"/><path d="M32.06,52.74a1.06,1.06,0,0,0,.18-.78c0-.07.08-.14.12-.22s.18.12.18.18c0,.33,0,.67,0,1-.28.11-.41,0-.48-.18Z" style="fill:#fff"/><rect width="283" height="67" style="fill:none"/></svg>